<?xml version="1.0" standalone="no"?>
<!DOCTYPE svg PUBLIC "-//W3C//DTD SVG 1.1//EN" "http://www.w3.org/Graphics/SVG/1.1/DTD/svg11.dtd" >
<svg>
    <metadata>
        Created by FontForge 20090914 at Thu Feb 2 16:06:54 2017
        By www-data
        Copyright &#194;&#169; 2013, Natanael Gama (www.ndiscovered.com . info(at)ndiscovered.com), with Reserved Font
        Name Exo. This Font Software is licensed under the SIL Open Font License, Version 1.1.
    </metadata>
    <defs>
        <font id="Exo2-BoldItalic" horiz-adv-x="578">
            <font-face
                    font-family="Exo 2"
                    font-weight="700"
                    font-style="italic"
                    font-stretch="normal"
                    units-per-em="1000"
                    panose-1="0 0 8 0 0 0 0 0 0 0"
                    ascent="800"
                    descent="-200"
                    x-height="493"
                    cap-height="690"
                    bbox="-217 -294.002 1251.02 952"
                    underline-thickness="50"
                    underline-position="-50"
                    slope="-8"
                    unicode-range="U+0020-U+FB02"
            />
            <missing-glyph horiz-adv-x="600"
            />
            <glyph glyph-name=".notdef" horiz-adv-x="600"
            />
            <glyph glyph-name="space" unicode=" " horiz-adv-x="217"
            />
            <glyph glyph-name="exclam" unicode="!" horiz-adv-x="298"
                   d="M240 425l-43 -206h-116l13 206l38 270h146zM109 151h31.999c38.667 0 55 -18 49 -54l-6 -48c-4 -32.667 -23 -49 -57 -49h-32c-37.333 -0 -53.666 18.333 -48.999 55l7 48c4 32 22.667 48 56 48z"/>
            <glyph glyph-name="quotedbl" unicode="&#x22;" horiz-adv-x="374"
                   d="M176 469h-91l22 221h109zM338 469h-92l23 221h108z"/>
            <glyph glyph-name="numbersign" unicode="#" horiz-adv-x="711"
                   d="M570 426l-44 -140h110l-30 -89h-108l-62 -197h-113l63 197h-139l-62 -197h-113l63 197h-117l29 89h115l44 140h-114l30 88h112l55 176h113l-55 -176h138l55 176h113l-55 -176h112l-30 -88h-110zM457 426h-138l-44 -140h138z"/>
            <glyph glyph-name="dollar" unicode="$" horiz-adv-x="572"
                   d="M562 675l-14.9951 -103.001c-59.333 2 -130 3 -212 3c-39.333 0.666992 -66.333 -2.66602 -81 -9.99902s-24 -26 -28 -56c-3.33301 -22.667 -1.5 -38.5 5.5 -47.5s23.167 -18.5 48.5 -28.5l122 -48c52 -21.333 86.167 -47.5 102.5 -78.5s21.166 -73.167 14.499 -126.5
c-9.33301 -74 -32.333 -124.333 -69 -151s-98.334 -40.667 -185.001 -42l-24 -106h-111l26 111c-46.667 3.33301 -93.667 10.666 -141 21.999l16 109c138.667 -3.33301 209.667 -5 213 -5c45.333 0 76.166 4.5 92.499 13.5s26.5 28.167 30.5 57.5
c3.33301 22.667 1.66602 38.5 -5.00098 47.5s-21 17.5 -43 25.5l-129 53c-49.333 20.667 -82.5 47.334 -99.5 80.001s-22.5 73.667 -16.5 123c9.33301 72 33.666 120.5 72.999 145.5s100 38.167 182 39.5l23 91h111l-24 -96c42 -4 83 -11.667 123 -23z"/>
            <glyph glyph-name="percent" unicode="%" horiz-adv-x="907"
                   d="M251 703c65.333 0 109.501 -15.833 132.501 -47.5s29.167 -86.167 18.5 -163.5c-10.667 -75.333 -29.834 -127.333 -57.501 -156s-72.167 -43 -133.5 -43c-64 0 -107.5 15.833 -130.5 47.5s-29.167 86.167 -18.5 163.5c10.667 75.333 29.667 127.333 57 156
s71.333 43 132 43zM255.001 0h-101l511 690h100zM252.001 621c-28 0 -46.999 -8.33301 -56.999 -25s-18.667 -51.334 -26 -104.001c-6.66699 -46.667 -7.16699 -77.834 -1.5 -93.501s20.167 -23.5 43.5 -23.5c28 0 47.167 8.33301 57.5 25s19.166 51.334 26.499 104.001
c6 46.667 6.16699 77.834 0.5 93.501s-20.167 23.5 -43.5 23.5zM709.002 399c64.667 0 108.668 -16 132.001 -48s29.666 -86.333 18.999 -163c-11.333 -75.333 -30.666 -127.5 -57.999 -156.5s-72 -43.5 -134 -43.5c-64 0 -107.5 16 -130.5 48s-29.167 86.333 -18.5 163
c11.333 75.333 30.666 127.5 57.999 156.5s71.333 43.5 132 43.5zM709.003 316c-27.333 0 -45.998 -8.16699 -55.998 -24.5s-18.667 -50.833 -26 -103.5c-6.66699 -47.333 -7.33398 -78.666 -2.00098 -93.999s19.666 -23 42.999 -23c28.667 0 48.167 8.16699 58.5 24.5
s18.833 50.833 25.5 103.5c6 47.333 6.33301 78.666 1 93.999s-20 23 -44 23z"/>
            <glyph glyph-name="ampersand" unicode="&#x26;" horiz-adv-x="748"
                   d="M721 304l-85.998 0.000976562c-9.33301 -57.333 -25.666 -106.333 -48.999 -147c-62 -112.667 -174.667 -169 -338 -169c-84 0 -143.167 15.333 -177.5 46s-47.5 79.667 -39.5 147c12 110 65 168.333 159 175l1 5c-36.667 2.66699 -63 19 -79 49s-20 68.667 -12 116
c5.33301 30 13.666 55.667 24.999 77s24.5 38.333 39.5 51s34 22.667 57 30s46.167 12.166 69.5 14.499s51.333 3.5 84 3.5c63.333 0 121 -7.33301 173 -22l-24 -105c-42 8.66699 -89.667 13 -143 13c-46.667 0 -79 -5.83301 -97 -17.5s-29.667 -36.5 -35 -74.5
c-4.66699 -34.667 -1.33398 -58.167 9.99902 -70.5s34.666 -18.5 69.999 -18.5h190c1.33301 22 2 57.333 2 106h127c0.666992 -32.667 0 -68 -2 -106h90zM506.002 304.001l-192 -0.000976562c-38.667 0 -67.167 -7.5 -85.5 -22.5s-30.166 -42.167 -35.499 -81.5
c-4.66699 -33.333 -0.833984 -56.666 11.499 -69.999s36.833 -20 73.5 -20c88 0 151 31.667 189 95c17.333 24.667 30.333 57.667 39 99z"/>
            <glyph glyph-name="quotesingle" unicode="'" horiz-adv-x="213"
                   d="M176 469h-91l22 221h109z"/>
            <glyph glyph-name="parenleft" unicode="(" horiz-adv-x="364"
                   d="M393 791l16.999 -66.999c-119.333 -50 -194.666 -189 -225.999 -417c-16.667 -102.667 -17 -189.334 -1 -260.001s50.667 -120 104 -148l-19 -61c-95.333 31.333 -161.5 86.5 -198.5 165.5s-46.167 183.833 -27.5 314.5c18.667 132 56 236 112 312
s135.667 129.667 239 161z"/>
            <glyph glyph-name="parenright" unicode=")" horiz-adv-x="364"
                   d="M83 726l19.001 62.002c95.333 -31.333 161.5 -86.333 198.5 -165s46.167 -184.334 27.5 -317.001c-18.667 -130.667 -56 -234 -112 -310s-135.667 -130 -239 -162l-17 67c119.333 53.333 194.666 192.666 225.999 417.999c17.333 104.667 18 192.167 2 262.5
s-51 118.5 -105 144.5z"/>
            <glyph glyph-name="asterisk" unicode="*" horiz-adv-x="452"
                   d="M287 524l89 -129l-68 -49l-54 122l-87 -121l-62 48l125 128l11 168h83zM217 563l-4 -35l-21 -22l-121 29l33 77zM448 532l-125 -27l-16 22l5 36l120 49z"/>
            <glyph glyph-name="plus" unicode="+" horiz-adv-x="536"
                   d="M489 247h-173l-23 -167h-109l23 167h-173l16 108h172l24 168h110l-24 -168h172z"/>
            <glyph glyph-name="comma" unicode="," horiz-adv-x="244"
                   d="M86 151l33.0029 -0.000976562c19.333 0 32.666 -4.16699 39.999 -12.5s9.66602 -22.166 6.99902 -41.499l-9 -64c-8.66699 -64 -33 -124.667 -73 -182l-65 23c18 52 30.667 95 38 129c-30.667 -2 -44.334 13 -41.001 45l8 53c3.33301 19.333 9.5 32.5 18.5 39.5
s23.5 10.5 43.5 10.5z"/>
            <glyph glyph-name="hyphen" unicode="-" horiz-adv-x="414"
                   d="M344 206h-298l14 97h297z"/>
            <glyph glyph-name="period" unicode="." horiz-adv-x="241"
                   d="M80 151h37c38 0 54.333 -18 49 -54l-7 -48c-4 -32.667 -22.667 -49 -56 -49h-37c-37.333 -0 -54 18.333 -50 55l7 48c4.66699 32 23.667 48 57 48z"/>
            <glyph glyph-name="slash" unicode="/" horiz-adv-x="559"
                   d="M92 -72h-121l500 762h121z"/>
            <glyph glyph-name="zero" unicode="0" horiz-adv-x="627"
                   d="M362 703c98.667 0 164.999 -28 198.999 -84s41.667 -149.333 23 -280c-18 -130 -49.667 -221.167 -95 -273.5s-115.666 -78.5 -210.999 -78.5c-96 0 -161.5 28 -196.5 84s-43.167 149.333 -24.5 280c18 130 49.667 221.167 95 273.5s115.333 78.5 210 78.5zM356.999 582
c-46.667 0 -80.5 -16.333 -101.5 -49s-37.833 -96 -50.5 -190c-13.333 -94 -14.833 -156.667 -4.5 -188s37.833 -47 82.5 -47c47.333 0 81.5 16.333 102.5 49s37.833 96 50.5 190s13.667 156.667 3 188s-38 47 -82 47z"/>
            <glyph glyph-name="one" unicode="1" horiz-adv-x="429"
                   d="M295 0l-152 -0.000976562l70 489c3.33301 28.667 8.33301 53.334 15 74.001l-166 -44l-8 101l188 70h150z"/>
            <glyph glyph-name="two" unicode="2" horiz-adv-x="572"
                   d="M98 563l1 115.999c78 15.333 153.667 23 227 23c38 0 70.167 -2.33301 96.5 -7s49.833 -13 70.5 -25s35 -29 43 -51s10.333 -49.667 7 -83c-4.66699 -39.333 -16.834 -75.333 -36.501 -108s-53.167 -71 -100.5 -115l-201 -185c28 6 61.667 9 101 9h203l-18 -137h-489
l13 88c4.66699 28.667 13 49.334 25 62.001l195 181c54.667 50 93.334 89 116.001 117s35.667 54 39 78c2.66699 19.333 -2 31.833 -14 37.5s-33.667 8.5 -65 8.5c-74 0 -145 -3 -213 -9z"/>
            <glyph glyph-name="three" unicode="3" horiz-adv-x="559"
                   d="M104 575l-0.000976562 110c74 12 144.333 18 211 18c78.667 0 134.834 -13.167 168.501 -39.5s47.834 -68.5 42.501 -126.5c-3.33301 -43.333 -15.5 -81.833 -36.5 -115.5s-51.167 -52.5 -90.5 -56.5l-1 -4c82 -12.667 116 -68.334 102 -167.001
c-8.66699 -66 -35.334 -116.667 -80.001 -152s-112 -53.666 -202 -54.999c-54.667 -2 -126 4 -214 18l14 112c94 -4.66699 155.333 -6.33398 184 -5.00098c88 4 137.667 39 149 105c5.33301 30 1.66602 52.333 -11.001 67s-37.334 22.334 -74.001 23.001l-135 2l14 102h131
c38 0 64.333 8.16699 79 24.5s23.667 40.833 27 73.5c2.66699 28 -1.66602 46.667 -12.999 56s-38.666 14 -81.999 14c-54 0 -115 -1.33301 -183 -4z"/>
            <glyph glyph-name="four" unicode="4" horiz-adv-x="631"
                   d="M596 260l-13.001 -94.001l-82 -14h-2l-22 -152h-140l20 152h-254c-36 0 -61.667 12.833 -77 38.5s-14.666 52.834 2.00098 81.501l236 418h148l-221 -400c-12 -20 -8.33301 -30 11 -30h170l26 186l41 110h116l-41 -296h82z"/>
            <glyph glyph-name="five" unicode="5" horiz-adv-x="545"
                   d="M516 572l-275 -0.000976562l-26 -128l79 -9c148 -16.667 214.333 -88.667 199 -216c-18.667 -145.333 -108.334 -222.333 -269.001 -231c-65.333 -3.33301 -139 4 -221 22l23 118c63.333 -11.333 119 -15.333 167 -12c48 2.66699 84 13.167 108 31.5s38.667 45.5 44 81.5
c4 31.333 -2.66699 53.333 -20 66s-51.666 21.334 -102.999 26.001l-95 11c-17.333 2 -30.5 9.16699 -39.5 21.5s-12.167 26.833 -9.5 43.5l58 293h403z"/>
            <glyph glyph-name="six" unicode="6" horiz-adv-x="584"
                   d="M551 683l-14.001 -99c-34.667 1.33301 -84.667 2 -150 2c-56 0 -95.167 -11.833 -117.5 -35.5s-40.833 -73.5 -55.5 -149.5c46 36 96.667 54 152 54c68.667 0 117 -17.167 145 -51.5s36.333 -92.166 25 -173.499c-12.667 -85.333 -38.834 -147 -78.501 -185
s-104.5 -57 -194.5 -57c-98 0 -161.667 26.167 -191 78.5s-34.333 144.5 -15 276.5c8.66699 62 19.834 114.5 33.501 157.5s28.834 77.667 45.501 104s37.667 46.666 63 60.999s51.333 24 78 29s60 7.5 100 7.5c53.333 0 111.333 -6.33301 174 -19zM393.999 239
c6 42 4.66895 70 -3.99805 84s-30.334 21 -65.001 21c-41.333 0 -84.666 -18 -129.999 -54c-12 -76.667 -13.333 -126.667 -4 -150s35.666 -35 78.999 -35c42.667 0 72.167 10 88.5 30s28.166 54.667 35.499 104z"/>
            <glyph glyph-name="seven" unicode="7" horiz-adv-x="527"
                   d="M80 690l412 0.000976562c28 0 47 -7.83301 57 -23.5s9.33301 -35.834 -2 -60.501l-297 -606h-151l247 503c10.667 22.667 24 43.667 40 63h-317z"/>
            <glyph glyph-name="eight" unicode="8" horiz-adv-x="616"
                   d="M178 358l1.00098 4.00195c-66.667 9.33301 -93.334 63.333 -80.001 162c8.66699 64.667 31.167 110.667 67.5 138s98.833 40.666 187.5 39.999c93.333 0 156 -14.833 188 -44.5s43.333 -78.167 34 -145.5c-14 -93.333 -55.667 -144.333 -125 -153l-1 -4
c79.333 -8 110.666 -71 93.999 -189c-8.66699 -64.667 -31.667 -110.5 -69 -137.5s-103.666 -40.833 -198.999 -41.5c-96 0 -162.5 15.5 -199.5 46.5s-51.5 79.167 -43.5 144.5c7.33301 53.333 22 95.666 44 126.999s55.667 49 101 53zM348.001 593.002
c-42.667 0 -71.167 -6.49902 -85.5 -19.499s-24.166 -39.5 -29.499 -79.5c-4.66699 -33.333 -1.16699 -55.5 10.5 -66.5s39.167 -16.5 82.5 -16.5c40.667 0 68.167 6.33301 82.5 19s24.166 38 29.499 76c5.33301 35.333 2.33301 58.666 -9 69.999s-38.333 17 -81 17z
M306.001 305.003c-44.667 0 -75.332 -6.66797 -91.999 -20.001s-28 -42.666 -34 -87.999c-5.33301 -36.667 -1.33301 -61.167 12 -73.5s43.666 -18.5 90.999 -18.5c43.333 0 73.333 7 90 21s27.667 41.333 33 82c6 40 2.66699 66.167 -10 78.5s-42.667 18.5 -90 18.5z"/>
            <glyph glyph-name="nine" unicode="9" horiz-adv-x="584"
                   d="M33 7l15.001 100.002c34 -1.33301 88.667 -2 164 -2c55.333 1.33301 94.833 15 118.5 41s42.167 74 55.5 144c-42 -37.333 -92 -56 -150 -56c-38 0 -69.833 6.66699 -95.5 20s-43.834 30.666 -54.501 51.999s-18 45.833 -22 73.5s-3.33301 55.5 2 83.5
c10.667 88.667 36.167 150.5 76.5 185.5s105.833 52.5 196.5 52.5c66 0 115.167 -10.167 147.5 -30.5s53.5 -56.833 63.5 -109.5s7.33301 -124.334 -8 -215.001c-10.667 -73.333 -24 -132.833 -40 -178.5s-37.167 -82.167 -63.5 -109.5s-56.5 -46 -90.5 -56
s-77 -15 -129 -15c-64 0 -126 6.66699 -186 20zM206.001 462.002c-5.33301 -44 -3.33301 -74.666 6 -91.999s30.666 -26 63.999 -26c24 0 45.333 3.83301 64 11.5s39.667 21.5 63 41.5c12 77.333 13.5 128 4.5 152s-36.167 36 -81.5 36c-42 0 -71.167 -8.83301 -87.5 -26.5
s-27.166 -49.834 -32.499 -96.501z"/>
            <glyph glyph-name="colon" unicode=":" horiz-adv-x="257"
                   d="M116 451h37.001c37.333 0 53.666 -18.333 48.999 -55l-7 -47c-4 -32.667 -22.667 -49 -56 -49h-37c-37.333 0 -54 18 -50 54l7 49c4.66699 32 23.667 48 57 48zM74.001 152h37.001c37.333 0 53.666 -18.333 48.999 -55l-7 -48c-4 -32.667 -22.667 -49 -56 -49h-37
c-37.333 -0 -54 18.333 -50 55l7 48c4.66699 32.667 23.667 49 57 49z"/>
            <glyph glyph-name="semicolon" unicode=";" horiz-adv-x="260"
                   d="M130 451h37.002c37.333 0 53.666 -18.333 48.999 -55l-7 -47c-4 -32.667 -22.667 -49 -56 -49h-37c-38.667 0 -55.334 18 -50.001 54l7 49c4.66699 32 23.667 48 57 48zM95.002 151l33.0029 -0.000976562c19.333 0 32.666 -4.16699 39.999 -12.5
s9.66602 -22.166 6.99902 -41.499l-9 -64c-8.66699 -64 -33 -124.667 -73 -182l-65 23c18 52 30.667 95 38 129c-30.667 -2 -44.334 13 -41.001 45l8 53c3.33301 19.333 9.5 32.5 18.5 39.5s23.5 10.5 43.5 10.5z"/>
            <glyph glyph-name="less" unicode="&#x3c;" horiz-adv-x="515"
                   d="M474 403l-310 -103l280 -109l-16 -113l-397 166l16 114l443 164z"/>
            <glyph glyph-name="equal" unicode="=" horiz-adv-x="579"
                   d="M526 348h-458l15 108h459zM497 137h-459l16 108h459z"/>
            <glyph glyph-name="greater" unicode="&#x3e;" horiz-adv-x="514"
                   d="M485 358l-16 -114l-442 -165l16 119l309 108l-278 108l15 109z"/>
            <glyph glyph-name="question" unicode="?" horiz-adv-x="516"
                   d="M80 587l0.00195312 101c5.33301 1.33301 15.5 3.33301 30.5 6s25 4.33398 30 5.00098s13.833 2 26.5 4s23.167 3.33301 31.5 4l32.5 2.5c13.333 1 27.333 1.66699 42 2s30.667 0.5 48 0.5c71.333 0 124.166 -13.333 158.499 -40s47.833 -67 40.5 -121
c-4 -26.667 -13.167 -51.167 -27.5 -73.5s-31.166 -42 -50.499 -59l-58.5 -52c-19.667 -17.667 -38.167 -39.167 -55.5 -64.5s-29.333 -53.333 -36 -84h-118c4 38.667 15.167 75 33.5 109s37.666 60.833 57.999 80.5s39.833 40.667 58.5 63s30 41.833 34 58.5
c5.33301 25.333 2.66602 42.166 -8.00098 50.499s-32 12.5 -64 12.5c-62 0 -130.667 -1.66699 -206 -5zM205.002 151h32c38 0 54.667 -18 50 -54l-7 -48c-4 -32.667 -22.667 -49 -56 -49h-32c-37.333 -0 -54 18.333 -50 55l7 47c4 32.667 22.667 49 56 49z"/>
            <glyph glyph-name="at" unicode="@" horiz-adv-x="799"
                   d="M94 544l8.99609 100c99.333 5.33301 209 8.66602 329 9.99902c52 0.666992 94.833 -0.333008 128.5 -3s64.5 -8.5 92.5 -17.5s49 -20.833 63 -35.5s24.833 -34.834 32.5 -60.501s11.167 -55.667 10.5 -90s-4.66699 -76.833 -12 -127.5
c-17.333 -132 -42.333 -220 -75 -264s-92.667 -66 -180 -66c-81.333 0 -129 31 -143 93c-48 -63.333 -105 -95 -171 -95c-116.667 0 -161.667 81 -135 243c8 48 18.833 87.333 32.5 118s31.334 53.5 53.001 68.5s43.834 25 66.501 30s51.334 7.5 86.001 7.5
c62 0 144.333 -9.33301 247 -28l-46 -289c-2.66699 -26.667 6 -40 26 -40c32.667 0 55.167 14.667 67.5 44s25.5 91.333 39.5 186c4.66699 28.667 8.16699 52.334 10.5 71.001s2.83301 36.334 1.5 53.001s-2.66602 29.5 -3.99902 38.5s-6.5 17.5 -15.5 25.5
s-16.833 13.5 -23.5 16.5s-19.5 5.5 -38.5 7.5s-35.667 3.16699 -50 3.5s-36.5 0.5 -66.5 0.5h-335zM378.996 351l-67.001 0.999023c-46.667 0 -78.167 -7.16699 -94.5 -21.5s-29.166 -49.833 -38.499 -106.5c-8 -54.667 -9.16699 -88.667 -3.5 -102s20.5 -20 44.5 -20
s45.833 7.33301 65.5 22s42.167 39.334 67.5 74.001z"/>
            <glyph glyph-name="A" unicode="A" horiz-adv-x="647"
                   d="M432 180h-238.001l-74 -180h-159l290 653c9.33301 24.667 27.666 37 54.999 37h144c12.667 0 23.834 -4.16699 33.501 -12.5s14.834 -18.5 15.501 -30.5l108 -647h-152zM415.999 301l-27 209c-2 14.667 -3.66699 37 -5 67h-29c-12 -34 -20 -56 -24 -66l-87 -210h172z"/>
            <glyph glyph-name="B" unicode="B" horiz-adv-x="635"
                   d="M28 0l96.9961 690.002c59.333 5.33301 143 8 251 8c88.667 0 150.334 -13.333 185.001 -40s47.334 -75.334 38.001 -146.001c-7.33301 -49.333 -21.666 -86 -42.999 -110s-53.666 -38 -96.999 -42l-1 -6c96 -7.33301 135.333 -70 118 -188
c-10 -68.667 -33.333 -114.834 -70 -138.501s-97 -35.5 -181 -35.5c-130.667 0 -229.667 2.66699 -297 8zM234.996 409.002h104.999c38 0 65 6.5 81 19.5s26.333 37.833 31 74.5c4.66699 32 1.33398 53.167 -9.99902 63.5s-35.333 15.5 -72 15.5h-111zM191.995 108.002h107
c44.667 0 75.5 6.5 92.5 19.5s28.5 39.5 34.5 79.5c5.33301 39.333 1.83301 65.5 -10.5 78.5s-38.833 19.833 -79.5 20.5h-116z"/>
            <glyph glyph-name="C" unicode="C" horiz-adv-x="583"
                   d="M516 129l6 -113.998c-60 -18 -133.333 -27 -220 -27c-106.667 0 -179.167 28.167 -217.5 84.5s-48.5 149.166 -30.5 278.499c18.667 133.333 52 225.166 100 275.499s125.333 75.5 232 75.5c76.667 0 145.334 -8 206.001 -24l-20 -113c-54 3.33301 -118 5 -192 5
c-35.333 0 -63 -5.66699 -83 -17s-36.833 -33.5 -50.5 -66.5s-24.834 -82.167 -33.501 -147.5c-12 -86 -11.667 -144 1 -174s43.667 -45 93 -45c79.333 -0.666992 149 2.33301 209 9z"/>
            <glyph glyph-name="D" unicode="D" horiz-adv-x="678"
                   d="M28 0l97 690c86.667 6 169 9 247 9c76 0 135 -10.667 177 -32s70.5 -58.333 85.5 -111s16.167 -125 3.5 -217c-10.667 -74.667 -24.167 -134.667 -40.5 -180s-39 -80.5 -68 -105.5s-61.5 -41.667 -97.5 -50s-83.667 -12.5 -143 -12.5c-75.333 0 -162.333 3 -261 9z
M262 579l-65.998 -466.999c11.333 0 27.333 -0.166992 48 -0.5s35 -0.5 43 -0.5c32 0 57.5 2.83301 76.5 8.5s36.5 17 52.5 34s28.5 41.167 37.5 72.5s17.167 73 24.5 125c7.33301 50 11.166 89.333 11.499 118s-4 51.667 -13 69s-21.833 28.666 -38.5 33.999
s-40.334 8 -71.001 8z"/>
            <glyph glyph-name="E" unicode="E" horiz-adv-x="572"
                   d="M564 570l-257.999 0.00195312c-19.333 0 -33.166 -3.83301 -41.499 -11.5s-13.833 -21.834 -16.5 -42.501l-15 -104h272l-14 -108h-273l-18 -133c-2.66699 -18.667 -0.5 -31.834 6.5 -39.501s19.833 -11.5 38.5 -11.5h255l-4 -113
c-58.667 -6.66699 -158.334 -10 -299.001 -10c-56 0 -97 14.833 -123 44.5s-35.667 70.167 -29 121.5l55 394c6 42.667 23.167 76 51.5 100s66.166 36 113.499 36c145.333 0 251.333 -3.66699 318 -11z"/>
            <glyph glyph-name="F" unicode="F" horiz-adv-x="551"
                   d="M558 570l-241.001 -0.000976562c-22.667 0 -38.667 -3.66699 -48 -11s-15.333 -21.666 -18 -42.999l-16 -117h263l-15 -108h-263l-41 -291h-153l77 553c6.66699 44.667 24.334 79.167 53.001 103.5s66 36.5 112 36.5c142 0 245 -4 309 -12z"/>
            <glyph glyph-name="G" unicode="G" horiz-adv-x="643"
                   d="M460 399l146.002 0.000976562l-56 -399h-111l-4 85c-60 -65.333 -129.333 -98 -208 -98c-70.667 0 -120.834 29 -150.501 87s-36.834 150.333 -21.501 277c9.33301 72 23.166 131.333 41.499 178s42.666 82.667 72.999 108s63.833 42.666 100.5 51.999
s82.334 14 137.001 14c82.667 0 153 -8.33301 211 -25l-19 -111c-75.333 3.33301 -138.666 5 -189.999 5c-64.667 0 -110.167 -15.167 -136.5 -45.5s-45.833 -92.833 -58.5 -187.5c-10.667 -84.667 -10.667 -142.5 0 -173.5s36 -46.5 76 -46.5c28 0 52 5.5 72 16.5
s43 28.5 69 52.5z"/>
            <glyph glyph-name="H" unicode="H" horiz-adv-x="684"
                   d="M670 690l-97 -690h-152l43 307h-239l-44 -307h-153l97 690h153l-37 -264h240l37 264h152z"/>
            <glyph glyph-name="I" unicode="I" horiz-adv-x="292"
                   d="M181 0h-153l97 690h153z"/>
            <glyph glyph-name="J" unicode="J" horiz-adv-x="365"
                   d="M354 690l-76.999 -548c-6.66699 -50 -24.5 -88.167 -53.5 -114.5s-66.5 -39.5 -112.5 -39.5c-54 0 -96.333 7 -127 21l26 101h41c45.333 0 70.666 18.667 75.999 56l74 524h153z"/>
            <glyph glyph-name="K" unicode="K" horiz-adv-x="630"
                   d="M396 353l-1.00098 -4c16 -13.333 31 -34.333 45 -63l143 -286h-168l-142 304h-57c2 -22 1.33301 -45 -2 -69l-33 -235h-153l97 690h153l-29 -203c-3.33301 -25.333 -8.66602 -50 -15.999 -74h56l206 277h176l-215 -284c-16 -22 -36 -39.667 -60 -53z"/>
            <glyph glyph-name="L" unicode="L" horiz-adv-x="528"
                   d="M275 690l-72.999 -515c-2 -17.333 0.166992 -30.166 6.5 -38.499s19.166 -12.5 38.499 -12.5h236l-3 -117c-65.333 -6.66699 -162 -10 -290 -10c-49.333 0 -87 14.167 -113 42.5s-35.333 67.166 -28 116.499l73 534h153z"/>
            <glyph glyph-name="M" unicode="M" horiz-adv-x="909"
                   d="M673 690l147.001 -0.00292969c18.667 0 32.667 -5.33301 42 -16s13 -25 11 -43l-62 -631h-144l60 571h-17l-163 -430c-10 -30.667 -31.667 -46 -65 -46h-100c-34.667 0 -53.667 17 -57 51l-49 425h-17l-99 -571h-144l115 636
c3.33301 18.667 9.66602 32.334 18.999 41.001s23 13 41 13h143c32.667 0 50.667 -17.333 54 -52l39 -344c3.33301 -27.333 5 -60 5 -98h14c9.33301 30.667 20 62.334 32 95.001l130 352c10 30.667 31.667 46.334 65 47.001z"/>
            <glyph glyph-name="N" unicode="N" horiz-adv-x="717"
                   d="M704 690l-90 -637.998c-4.66699 -34.667 -23.667 -52 -57 -52h-85c-15.333 0 -26.833 3.66699 -34.5 11s-15.167 19.666 -22.5 36.999l-137 368c-12.667 33.333 -22.667 68 -30 104h-10c-1.33301 -40.667 -4 -76.667 -8 -108l-57 -412h-145l90 638
c4.66699 34.667 24 52 58 52h84c14.667 0 26 -3.83301 34 -11.5s15.333 -19.834 22 -36.501l133 -356c15.333 -40.667 27.333 -78 36 -112h12c0 39.333 2.33301 76.333 7 111l55 405h145z"/>
            <glyph glyph-name="O" unicode="O" horiz-adv-x="680"
                   d="M388 703c106 0 179.333 -27.167 220 -81.5s51.667 -148.5 33 -282.5c-18 -134.667 -51.5 -227 -100.5 -277s-126.167 -75 -231.5 -75c-108 0 -182 26.667 -222 80s-51 148 -33 284c18.667 132.667 52.5 224.5 101.5 275.5s126.5 76.5 232.5 76.5zM383 580
c-53.333 0 -91.3301 -16.167 -113.997 -48.5s-41 -96.5 -55 -192.5c-12.667 -90 -12.334 -150.667 0.999023 -182s45.666 -47 96.999 -47c52.667 0 90.667 16.5 114 49.5s42 96.833 56 191.5c13.333 91.333 13.166 152.333 -0.500977 183s-46.5 46 -98.5 46z"/>
            <glyph glyph-name="P" unicode="P" horiz-adv-x="609"
                   d="M28 0l96.999 689.999c61.333 6 146 9 254 9c92.667 0 156.334 -17.167 191.001 -51.5s46 -94.166 34 -179.499c-12 -88 -36.333 -146.667 -73 -176s-98.667 -44 -186 -44c-46 0 -89 3 -129 9l-36 -257h-152zM230.999 364.999l103.999 -0.000976562
c41.333 0 69.833 7.33301 85.5 22s26.834 45.334 33.501 92.001c6 40 3.33301 67.167 -8 81.5s-35 21.5 -71 21.5l-113 -1z"/>
            <glyph glyph-name="Q" unicode="Q" horiz-adv-x="680"
                   d="M388 703c106 0 179.333 -27.167 220 -81.5s51.667 -148.5 33 -282.5c-18 -134.667 -51.5 -227 -100.5 -277s-126.167 -75 -231.5 -75c-108 0 -182 26.667 -222 80s-51 148 -33 284c18.667 132.667 52.5 224.5 101.5 275.5s126.5 76.5 232.5 76.5zM383 580
c-53.333 0 -91.3301 -16.167 -113.997 -48.5s-41 -96.5 -55 -192.5c-12.667 -90 -12.334 -150.667 0.999023 -182s45.666 -47 96.999 -47c52.667 0 90.667 16.5 114 49.5s42 96.833 56 191.5c13.333 91.333 13.166 152.333 -0.500977 183s-46.5 46 -98.5 46zM191.003 -116
l48.999 80c78 -31.333 175.333 -56 292 -74l-58 -136c-107.333 30 -201.666 73.333 -282.999 130z"/>
            <glyph glyph-name="R" unicode="R" horiz-adv-x="641"
                   d="M28 0l97.0029 690.002c61.333 6 146.333 9 255 9c86 0 148.833 -15.833 188.5 -47.5s54.167 -85.834 43.5 -162.501c-6.66699 -48.667 -21.834 -86.834 -45.501 -114.501s-60.167 -44.5 -109.5 -50.5l-1 -6c46 -10.667 73.667 -46 83 -106l36 -212h-156l-32 214
c-2.66699 21.333 -8.33398 35.833 -17.001 43.5s-22.334 11.5 -41.001 11.5l-114 1l-38 -270h-149zM232.003 387.002h108c40 0 68.5 7.33301 85.5 22s28.5 42 34.5 82c5.33301 34.667 2 58.5 -10 71.5s-36.333 19.5 -73 19.5l-118 -1z"/>
            <glyph glyph-name="S" unicode="S"
                   d="M323 262l-131 52.9971c-50 20.667 -83.667 47.334 -101 80.001s-23 73.667 -17 123c10 73.333 35.5 122.5 76.5 147.5s104.833 37.5 191.5 37.5c86 0 161 -9.33301 225 -28l-15 -103c-60 2 -131.333 3 -214 3c-40.667 0.666992 -68.334 -2.5 -83.001 -9.5
s-24.334 -25.833 -29.001 -56.5c-3.33301 -22.667 -1.5 -38.5 5.5 -47.5s23.5 -18.5 49.5 -28.5l124 -48c52.667 -20.667 87.334 -46.5 104.001 -77.5s21.667 -73.5 15 -127.5c-10 -76 -34.5 -127.167 -73.5 -153.5s-105.167 -39.5 -198.5 -39.5
c-77.333 0 -156.333 9 -237 27l16 109c141.333 -3.33301 213 -5 215 -5c46.667 0 78.334 4.5 95.001 13.5s27.334 28.167 32.001 57.5c2.66699 22.667 0.666992 38.334 -6 47.001s-21.334 17.334 -44.001 26.001z"/>
            <glyph glyph-name="T" unicode="T" horiz-adv-x="594"
                   d="M617 566h-206l-79 -566h-153l80 566h-205l17 124h563z"/>
            <glyph glyph-name="U" unicode="U" horiz-adv-x="677"
                   d="M670 690l-59.999 -417.999c-15.333 -105.333 -45.333 -179.166 -90 -221.499s-115 -63.5 -211 -63.5c-98 0 -167.333 22.667 -208 68s-54 119.666 -40 222.999l58 412h153l-59 -418c-9.33301 -62.667 -7.33301 -105.334 6 -128.001s43.333 -34 90 -34
c48 0 82.667 12 104 36s36.666 68 45.999 132l58 412h153z"/>
            <glyph glyph-name="V" unicode="V" horiz-adv-x="633"
                   d="M682 690l-281.001 -651c-10.667 -26 -29 -39 -55 -39h-138c-12.667 -0 -23.667 4.33301 -33 13s-14.666 19 -15.999 31l-98 646h154l54 -496c2.66699 -26.667 4.66699 -53.667 6 -81h25c6 24 15 51.333 27 82l194 495h161z"/>
            <glyph glyph-name="W" unicode="W" horiz-adv-x="967"
                   d="M998 690l-201.999 -651.001c-8 -26 -26.667 -39 -56 -39h-144c-13.333 0 -25 4.5 -35 13.5s-15.333 19.833 -16 32.5l-13 446v88h-19c-8.66699 -36.667 -16.334 -66.334 -23.001 -89.001l-137 -451c-8 -26.667 -27 -40 -57 -40h-145
c-13.333 0 -25.166 4.33301 -35.499 13s-15.5 19.334 -15.5 32.001l-21 645h152v-482c0 -11.333 -0.5 -29.166 -1.5 -53.499s-1.5 -39.833 -1.5 -46.5h20c3.33301 14 13 49.333 29 106l133 432c8.66699 29.333 28 44 58 44h129c14 0 25.5 -4.83301 34.5 -14.5
s13.5 -21.5 13.5 -35.5l19 -433c1.33301 -43.333 1.66602 -76.333 0.999023 -99h21c10 45.333 18.333 80 25 104l132 478h155z"/>
            <glyph glyph-name="X" unicode="X" horiz-adv-x="638"
                   d="M458 354l129 -354h-153l-100 307h-11l-187 -307h-168l230 354l-117 336h151l90 -285h13l177 285h160z"/>
            <glyph glyph-name="Y" unicode="Y" horiz-adv-x="605"
                   d="M367 225l-30.999 -225h-154l33 233l-160 457h153l78 -256c7.33301 -29.333 11.666 -59 12.999 -89h11c6.66699 30.667 18.667 61 36 91l150 254h164z"/>
            <glyph glyph-name="Z" unicode="Z"
                   d="M187 117h328l-16 -117h-500l15 117l385 456h-312l16 117h485l-17 -117z"/>
            <glyph glyph-name="bracketleft" unicode="[" horiz-adv-x="344"
                   d="M366 676h-76.001c-15.333 0 -24 -7.33301 -26 -22l-100 -709c-1.33301 -12 3.33398 -18 14.001 -18h83l-13 -92h-156c-54 0 -77.333 26.667 -70 80l109 779c3.33301 23.333 12.5 41.5 27.5 54.5s33.833 19.5 56.5 19.5h164z"/>
            <glyph glyph-name="backslash" unicode="\" horiz-adv-x="543"
                   d="M474 -72h-111l-289 762h111z"/>
            <glyph glyph-name="bracketright" unicode="]" horiz-adv-x="344"
                   d="M99 768h155c22.667 0 41 -7.66699 55 -23s19.333 -34.333 16 -57l-110 -779c-3.33301 -22.667 -12.5 -40.667 -27.5 -54s-33.833 -20 -56.5 -20h-163l12 92h76c15.333 0 24 7.33301 26 22l100 709c2 12 -2.66699 18 -14 18h-82z"/>
            <glyph glyph-name="asciicircum" unicode="^" horiz-adv-x="461"
                   d="M453 402l-60 -32l-113 166h-8l-165 -166l-56 32l177 225h107z"/>
            <glyph glyph-name="underscore" unicode="_" horiz-adv-x="558"
                   d="M446 -97h-444l14 97h444z"/>
            <glyph glyph-name="grave" unicode="`" horiz-adv-x="353"
                   d="M344 587l-49 -63l-221 114l66 97z"/>
            <glyph glyph-name="a" unicode="a" horiz-adv-x="590"
                   d="M490 0h-114.998l1 89c-50.667 -65.333 -118 -99 -202 -101c-62 -2 -103.833 18.167 -125.5 60.5s-25.5 111.5 -11.5 207.5c6.66699 45.333 16 83.5 28 114.5s25.333 55.5 40 73.5s33.667 31.667 57 41s45.833 15.333 67.5 18s49.167 4 82.5 4
c35.333 0 77.666 -3 126.999 -9s88.666 -13 117.999 -21zM399.002 398l-76 0.00195312c-48 0 -80.667 -8.33301 -98 -25s-30.333 -56.334 -39 -119.001c-8.66699 -63.333 -10.667 -103.833 -6 -121.5s19 -25.834 43 -24.501c44 0.666992 93.333 31.667 148 93z"/>
            <glyph glyph-name="b" unicode="b" horiz-adv-x="592"
                   d="M263 700l-22.001 -171c-5.33301 -42.667 -14.666 -81.667 -27.999 -117c65.333 62.667 130.333 94 195 94c60 0 101 -20 123 -60s26 -108 12 -204c-12.667 -93.333 -38.667 -159.166 -78 -197.499s-99 -57.5 -179 -57.5c-40 0 -86.5 3.66699 -139.5 11
s-94.833 16.666 -125.5 27.999l95 674h147zM209.999 313l-30.002 -215.001c42.667 -1.33301 68.334 -2 77.001 -2c48.667 0.666992 81.334 10.334 98.001 29.001s29.667 61 39 127c7.33301 57.333 8.5 94 3.5 110s-19.167 24 -42.5 24c-38.667 0 -87 -24.333 -145 -73z"/>
            <glyph glyph-name="c" unicode="c" horiz-adv-x="507"
                   d="M435 117l10 -97c-50.667 -21.333 -114.667 -32 -192 -32c-89.333 0 -151.666 20.667 -186.999 62s-46.333 109 -33 203c13.333 92.667 40 158.167 80 196.5s104 57.5 192 57.5c78 0 141 -10.667 189 -32l-20 -90c-77.333 1.33301 -127 2 -149 2
c-46 0 -78.833 -9.5 -98.5 -28.5s-32.834 -56.5 -39.501 -112.5c-7.33301 -58 -4.83301 -95.5 7.5 -112.5s40.5 -25.5 84.5 -25.5c62 0 114 3 156 9z"/>
            <glyph glyph-name="d" unicode="d" horiz-adv-x="592"
                   d="M590 700l-98.999 -699.999h-116v90c-66.667 -68 -135 -102 -205 -102c-55.333 0 -94.666 21 -117.999 63s-28.666 110.333 -15.999 205c7.33301 52.667 17.666 96 30.999 130s30.166 59.5 50.499 76.5s41.333 28.667 63 35s47.5 9.5 77.5 9.5
c52.667 0 105.667 -4.33301 159 -13c1.33301 41.333 3.66602 73.666 6.99902 96.999l18 109h148zM399.001 403.001l-79 -0.000976562c-48.667 0 -81 -8.5 -97 -25.5s-28.333 -58.167 -37 -123.5c-8 -55.333 -9.66699 -92.833 -5 -112.5s19 -29.167 43 -28.5
s46.833 6.83398 68.5 18.501s47.167 30.5 76.5 56.5z"/>
            <glyph glyph-name="e" unicode="e" horiz-adv-x="560"
                   d="M472 117l9.99609 -94c-55.333 -23.333 -127.666 -35 -216.999 -35c-94 0 -158.667 22 -194 66s-47.666 111.667 -36.999 203c12 96 39.333 161.667 82 197s110.667 53 204 53c86.667 0 145.5 -14.333 176.5 -43s42.5 -71 34.5 -127
c-6.66699 -46.667 -25.667 -80 -57 -100s-79.666 -32.333 -144.999 -37l-146 -11c0.666992 -32.667 8.83398 -54.667 24.501 -66s40.5 -17 74.5 -17c64.667 0 128 3.66699 190 11zM191.996 276l115.001 11c26.667 2 46.167 7.33301 58.5 16s19.833 24.667 22.5 48
c2 22 -2.16699 35.667 -12.5 41s-32.166 7.66602 -65.499 6.99902c-38.667 0 -65.834 -8.16699 -81.501 -24.5s-27.834 -49.166 -36.501 -98.499z"/>
            <glyph glyph-name="f" unicode="f" horiz-adv-x="401"
                   d="M455 612h-88c-26 0 -44.833 -4.5 -56.5 -13.5s-19.5 -26.5 -23.5 -52.5l-7 -53h135l-13 -99h-137l-63 -439c-14 -100 -71.667 -150 -173 -150c-28.667 0 -74.334 3.66699 -137.001 11l23 98h64c26.667 0 45.834 4.5 57.501 13.5s19.5 26.5 23.5 52.5l59 414h-85l12 94
l87 5l11 77c14 100 71.667 150 173 150c66 0 120 -3.33301 162 -10z"/>
            <glyph glyph-name="g" unicode="g" horiz-adv-x="593"
                   d="M560 477l-61.002 -433c-10.667 -88.667 -41.5 -152.5 -92.5 -191.5s-122.167 -58.5 -213.5 -58.5c-78 0 -139.333 9 -184 27l11 87c22.667 -0.666992 69.667 -1 141 -1c106.667 0 170 30.333 190 91c2.66699 7.33301 6.16699 18.833 10.5 34.5s8.83301 30 13.5 43
s10.667 24.833 18 35.5c-24.667 -36 -55.834 -64.667 -93.501 -86s-79.5 -32.333 -125.5 -33c-60 -1.33301 -101.167 18.667 -123.5 60s-26.5 109.333 -12.5 204c6.66699 45.333 15.834 83.666 27.501 114.999s24.167 55.833 37.5 73.5s30.333 31.334 51 41.001
s40.334 15.667 59.001 18s42.334 3.5 71.001 3.5c102.667 0 194.667 -10 276 -30zM401.998 398h-79.999c-48.667 0 -80.834 -8.5 -96.501 -25.5s-28.167 -56.5 -37.5 -118.5c-9.33301 -62.667 -11.5 -103 -6.5 -121s19.5 -26.333 43.5 -25c44.667 2 94 33 148 93z"/>
            <glyph glyph-name="h" unicode="h" horiz-adv-x="596"
                   d="M265 700l-23.999 -174.001c-6 -41.333 -14.667 -81.666 -26 -120.999c76 68 146 102 210 102c45.333 0 79.166 -12.167 101.499 -36.5s30.166 -58.833 23.499 -103.5l-52 -367h-147l46 327c2.66699 22 1.83398 36.667 -2.49902 44s-13.833 11 -28.5 11
c-22 0 -44.833 -6.16699 -68.5 -18.5s-53.5 -32.5 -89.5 -60.5l-41 -303h-148l98 700h148z"/>
            <glyph glyph-name="i" unicode="i" horiz-adv-x="275"
                   d="M162 711h61.999c31.333 0 45.333 -15.333 42 -46l-7 -54c-4 -26.667 -20 -40 -48 -40h-63c-30.667 0 -44 15.333 -40 46l7 53c2.66699 27.333 18.334 41 47.001 41zM169.999 0h-147l69 493h147z"/>
            <glyph glyph-name="j" unicode="j" horiz-adv-x="276"
                   d="M162 711h61.999c31.333 0 45 -15.333 41 -46l-7 -54c-4 -26.667 -20 -40 -48 -40h-62c-31.333 0 -45 15.333 -41 46l8 53c2.66699 27.333 18.334 41 47.001 41zM239.999 493l-67 -473c-6 -46 -22.167 -88.667 -48.5 -128s-59.833 -69.333 -100.5 -90l-81 68
c48 46.667 75.667 98.667 83 156l67 467h147z"/>
            <glyph glyph-name="k" unicode="k" horiz-adv-x="563"
                   d="M396 493l151.001 -0.000976562c-24.667 -93.333 -78.667 -169 -162 -227c15.333 -16 29 -36.667 41 -62l91 -204h-154l-87 204c-24.667 -11.333 -53 -23.333 -85 -36l-24 -168h-148l98 700h148l-41 -301c-5.33301 -39.333 -17.333 -80 -36 -122
c51.333 26.667 96.166 58.834 134.499 96.501s62.833 77.5 73.5 119.5z"/>
            <glyph glyph-name="l" unicode="l" horiz-adv-x="325"
                   d="M265 700l-76.999 -542c-2.66699 -18 -0.833984 -30.333 5.49902 -37s19.833 -10 40.5 -10h43l7 -105c-23.333 -12 -61.666 -18 -114.999 -18c-46 0 -80.833 12.333 -104.5 37s-32.834 58.667 -27.501 102l81 573h147z"/>
            <glyph glyph-name="m" unicode="m" horiz-adv-x="876"
                   d="M203 493l0.000976562 -88.999c36 36 69.5 62.167 100.5 78.5s63.5 24.5 97.5 24.5c36 0 64.333 -8 85 -24s32.667 -38.667 36 -68c62 61.333 124 92 186 92c45.333 0 78.5 -12.5 99.5 -37.5s28.5 -59.167 22.5 -102.5l-51 -367h-147l46 327c2.66699 20.667 1 35 -5 43
s-16.333 12 -31 12c-16.667 0 -34.334 -5.33301 -53.001 -16s-44 -30.334 -76 -59.001l-43 -307h-142l45 327c3.33301 20 2.33301 34.167 -3 42.5s-16 12.5 -32 12.5c-17.333 0 -35.5 -5.16699 -54.5 -15.5s-43.833 -28.833 -74.5 -55.5l-43 -311h-147l69 493h115z"/>
            <glyph glyph-name="n" unicode="n" horiz-adv-x="596"
                   d="M204 493v-97.998c76.667 74.667 151.667 112 225 112c42 0 74.333 -12.167 97 -36.5s30.667 -58.833 24 -103.5l-52 -367h-147l45 323c3.33301 23.333 2.66602 39.166 -2.00098 47.499s-15 12.166 -31 11.499c-37.333 -0.666992 -88.666 -26.667 -153.999 -78l-42 -304
h-148l69 493h116z"/>
            <glyph glyph-name="o" unicode="o" horiz-adv-x="586"
                   d="M315 507c91.333 0 154.999 -20.667 190.999 -62s47.333 -109.666 34 -204.999c-12.667 -92.667 -40.167 -158 -82.5 -196s-108.166 -57 -197.499 -57c-90.667 0 -154.5 20.667 -191.5 62s-48.833 109 -35.5 203c13.333 93.333 41 159.166 83 197.499
s108.333 57.5 199 57.5zM313.999 396c-40.667 0 -69.834 -10.3311 -87.501 -30.998s-30.834 -62.334 -39.501 -125.001c-8 -57.333 -7 -95.333 3 -114s34.333 -28 73 -28c40 0 68.667 10.5 86 31.5s30.333 61.833 39 122.5c8.66699 57.333 7.83398 95.666 -2.49902 114.999
s-34.166 29 -71.499 29z"/>
            <glyph glyph-name="p" unicode="p" horiz-adv-x="593"
                   d="M205 493l-2.00098 -95.001c29.333 30 62.333 55.333 99 76s72.667 31 108 31c58 0 98 -20.333 120 -61s26.333 -109.667 13 -207c-6 -42.667 -14.167 -79.167 -24.5 -109.5s-22.166 -54.5 -35.499 -72.5s-29.5 -32.167 -48.5 -42.5s-38 -17.166 -57 -20.499
s-41.5 -5 -67.5 -5c-48.667 0 -97.667 4.33301 -147 13c0 -31.333 -2.33301 -62.333 -7 -93l-16 -97h-148l96 683h117zM180.999 89.999h75.999c50.667 0 83.834 8.5 99.501 25.5s27.834 58.167 36.501 123.5c8 62.667 9.5 102.834 4.5 120.501s-18.833 26.5 -41.5 26.5
c-17.333 0 -39.333 -7.33301 -66 -22s-53.334 -34.334 -80.001 -59.001z"/>
            <glyph glyph-name="q" unicode="q" horiz-adv-x="589"
                   d="M315 -190l21.999 151.996c5.33301 44.667 14.333 83.334 27 116.001c-62.667 -60 -126.334 -90 -191.001 -90c-57.333 0 -98 20.333 -122 61s-29.333 108.334 -16 203.001c14 96.667 39.667 163.334 77 200.001s96 55 176 55c42.667 0 90.334 -3.66699 143.001 -11
s94.334 -16.666 125.001 -27.999l-94 -658h-147zM368.999 186.996l28.998 209c-22 1.33301 -48.333 2 -79 2c-47.333 -1.33301 -79.166 -10.5 -95.499 -27.5s-29.166 -57.167 -38.499 -120.5c-8 -54.667 -9.33301 -91.167 -4 -109.5s20 -27.5 44 -27.5
c23.333 0 45.5 5.83301 66.5 17.5s46.833 30.5 77.5 56.5z"/>
            <glyph glyph-name="r" unicode="r" horiz-adv-x="423"
                   d="M443 507l-33 -137h-36c-20.667 0 -42.5 -4.5 -65.5 -13.5s-56.167 -24.833 -99.5 -47.5l-42 -309h-148l69 493h115v-93c75.333 71.333 145.333 107 210 107h30z"/>
            <glyph glyph-name="s" unicode="s" horiz-adv-x="524"
                   d="M268 177l-119.001 49.001c-40 16 -68 36.333 -84 61s-21.667 55.667 -17 93c5.33301 45.333 25.166 78 59.499 98s88.166 29.667 161.499 29c90.667 -1.33301 166.667 -8 228 -20l-14 -94c-128 2 -193 3 -195 3c-38.667 0 -64.334 -1.5 -77.001 -4.5
s-20 -10.167 -22 -21.5c-1.33301 -11.333 1.83398 -19.833 9.50098 -25.5s22.5 -12.834 44.5 -21.501l121 -48c40.667 -16 69.334 -35.333 86.001 -58s22.667 -53 18 -91c-4 -29.333 -11.833 -53.333 -23.5 -72s-28.5 -32.667 -50.5 -42s-45.667 -15.5 -71 -18.5
s-57.666 -4.5 -96.999 -4.5c-60 0 -132.333 6 -217 18l14 95c24 -1.33301 76.333 -2 157 -2c57.333 0 95.333 2 114 6s29.334 12.667 32.001 26c1.33301 10 -1.16699 17.333 -7.5 22s-18.833 10.667 -37.5 18z"/>
            <glyph glyph-name="t" unicode="t" horiz-adv-x="410"
                   d="M266 394l-32.999 -236c-2.66699 -18.667 -1.16699 -31.167 4.5 -37.5s18.5 -9.5 38.5 -9.5h66l7 -104c-35.333 -12.667 -81.333 -19 -138 -19c-46.667 0 -81.334 12.833 -104.001 38.5s-30.667 61.167 -24 106.5l38 261h-89l12 94l91 5l20 138h145l-19 -138h136l-14 -99
h-137z"/>
            <glyph glyph-name="u" unicode="u" horiz-adv-x="587"
                   d="M555 493l-67.999 -493h-114v93c-73.333 -70.667 -144.333 -106 -213 -106c-47.333 0 -81.833 12.333 -103.5 37s-29.167 58.667 -22.5 102l51 367h148l-47 -327c-2.66699 -20 -1.16699 -34.167 4.5 -42.5s16.5 -12.5 32.5 -12.5c21.333 0 42.166 5.66699 62.499 17
s47.5 31.333 81.5 60l42 305h146z"/>
            <glyph glyph-name="v" unicode="v" horiz-adv-x="567"
                   d="M404 493l158.001 -0.00195312c-14 -82.667 -37 -166.667 -69 -252c-24 -65.333 -49.667 -119.666 -77 -162.999c-18.667 -29.333 -38.334 -49.666 -59.001 -60.999s-49.334 -17 -86.001 -17h-113c-11.333 0 -21.166 3.5 -29.499 10.5s-13.166 16.167 -14.499 27.5
l-77 455h158l40 -393h12c13.333 0 23.833 2.83301 31.5 8.5s16.5 17.5 26.5 35.5c17.333 32.667 35 78 53 136c17.333 53.333 32.666 124.333 45.999 213z"/>
            <glyph glyph-name="w" unicode="w" horiz-adv-x="888"
                   d="M226 102h11.002c19.333 0 35.333 16.667 48 50c11.333 26.667 22.333 65 33 115c8.66699 38 19 101.333 31 190c4 24 18 36 42 36h139c10.667 0 19.5 -3.33301 26.5 -10s10.833 -15 11.5 -25l27 -356h10c9.33301 0 16.833 4.33301 22.5 13s11.5 21.334 17.5 38.001
c15.333 32.667 30.666 75.334 45.999 128.001c18 65.333 31 136 39 212h150c-16.667 -92.667 -37.667 -175.667 -63 -249c-22.667 -68 -45.334 -121 -68.001 -159c-16.667 -31.333 -35.334 -53.333 -56.001 -66s-50.667 -19 -90 -19h-73c-12 0 -22 3.66699 -30 11
s-12.333 16.666 -13 27.999l-23 364h-12c-4 -46 -12.667 -101 -26 -165c-13.333 -56 -27.666 -100.667 -42.999 -134c-16 -42 -36.5 -69.833 -61.5 -83.5s-57.167 -20.5 -96.5 -20.5h-80c-12 0 -22 3.66699 -30 11s-12.667 16.666 -14 27.999l-61 455h152z"/>
            <glyph glyph-name="x" unicode="x" horiz-adv-x="562"
                   d="M396 253l115 -253h-143l-88 207h-8l-147 -207h-157l188 254l-105 239h141l78 -190h12l136 190h153z"/>
            <glyph glyph-name="y" unicode="y"
                   d="M417 493h156.001c-14 -76 -34.833 -153.5 -62.5 -232.5s-56.834 -146.833 -87.501 -203.5c-50 -90.667 -103.5 -155.5 -160.5 -194.5s-124.833 -61.5 -203.5 -67.5l-18 91c46 12 83.5 25.5 112.5 40.5s56.833 39.5 83.5 73.5h-59c-16 0 -29.5 4.66699 -40.5 14
s-18.167 21.333 -21.5 36l-81 443h159l47 -377c1.33301 -10.667 7 -16 17 -16h40l4 9c52.667 109.333 91 237.333 115 384z"/>
            <glyph glyph-name="z" unicode="z" horiz-adv-x="522"
                   d="M492 388l-306 -282h270l-14 -106h-443l14 106h-1l307 282h-261l14 105h433z"/>
            <glyph glyph-name="braceleft" unicode="{" horiz-adv-x="341"
                   d="M367 768l-7.99902 -91c-28.667 0 -49.5 -4.5 -62.5 -13.5s-20.833 -25.833 -23.5 -50.5l-22 -152c-5.33301 -44 -16 -75.667 -32 -95s-45.333 -32.333 -88 -39c37.333 -12 62.5 -28.167 75.5 -48.5s16.833 -48.5 11.5 -84.5l-29 -207
c-3.33301 -22.667 -0.5 -38.5 8.5 -47.5s27.833 -13.5 56.5 -13.5l-5 -91c-74 -9.33301 -128 -0.833008 -162 25.5s-47 65.166 -39 116.499l33 239c0.666992 4.66699 1 9 1 13s0.166992 7.5 0.5 10.5s-0.166992 5.83301 -1.5 8.5s-2.16602 4.83398 -2.49902 6.50098
s-1.83301 3.5 -4.5 5.5s-4.33398 3.5 -5.00098 4.5s-3.16699 2.5 -7.5 4.5s-7 3.16699 -8 3.5s-4.5 1.66602 -10.5 3.99902s-9.66699 3.83301 -11 4.5l12 96c14 4 23.5 7 28.5 9s10.667 5.66699 17 11s10.833 12 13.5 20s5 19 7 33l25 181
c15.333 108.667 92.666 154.334 231.999 137.001z"/>
            <glyph glyph-name="bar" unicode="|" horiz-adv-x="260"
                   d="M117 -169h-104l133 950h105z"/>
            <glyph glyph-name="braceright" unicode="}" horiz-adv-x="342"
                   d="M93 677l4.99707 91.001c75.333 10 129.5 1.5 162.5 -25.5s46.167 -65.833 39.5 -116.5l-25 -182c-0.666992 -6 -1.16699 -11.167 -1.5 -15.5l-1 -12.5c-0.333008 -4 -0.166016 -7.33301 0.500977 -10s1.16699 -5 1.5 -7s1.66602 -4 3.99902 -6s3.83301 -3.5 4.5 -4.5
s2.83398 -2.16699 6.50098 -3.5s6.33398 -2.33301 8.00098 -3s5.16699 -1.83398 10.5 -3.50098s9.33301 -2.83398 12 -3.50098l-13 -96c-18 -6.66699 -30.333 -11.5 -37 -14.5s-13.167 -9 -19.5 -18s-10.5 -21.167 -12.5 -36.5l-34 -238
c-7.33301 -52.667 -29.166 -91 -65.499 -115s-91.833 -31.333 -166.5 -22l8 91c29.333 0 50.166 4.33301 62.499 13s20.166 25.334 23.499 50.001l29 210c6 37.333 17.5 65.5 34.5 84.5s47.167 34.167 90.5 45.5c-37.333 6.66699 -62.166 20.5 -74.499 41.5
s-15.166 52.833 -8.49902 95.5l22 152c3.33301 22.667 0.5 38.167 -8.5 46.5s-28.167 12.5 -57.5 12.5z"/>
            <glyph glyph-name="asciitilde" unicode="~" horiz-adv-x="511"
                   d="M117 214l-66.001 5.99902c-0.666992 48 7.83301 84 25.5 108s39.834 35.667 66.501 35c23.333 -0.666992 60.333 -9 111 -25s80 -24.667 88 -26c16.667 -2.66699 28.667 -0.166992 36 7.5s12.333 21.167 15 40.5l66 -5c0.666992 -47.333 -7.5 -83.166 -24.5 -107.499
s-39.5 -35.833 -67.5 -34.5c-25.333 0.666992 -63 9 -113 25s-79 24.667 -87 26c-16.667 2.66699 -28.5 0 -35.5 -8s-11.833 -22 -14.5 -42z"/>
            <glyph glyph-name="uni00A0" unicode="&#xa0;" horiz-adv-x="217"
            />
            <glyph glyph-name="exclamdown" unicode="&#xa1;" horiz-adv-x="283"
                   d="M152 507h32.001c37.333 0 53.666 -18.333 48.999 -55l-7 -48c-4 -32.667 -22.667 -49 -56 -49h-32c-38 0 -54.333 18 -49 54l6 48c4.66699 33.333 23.667 50 57 50zM185.001 82l-37 -267h-146l37 267l44 206h116z"/>
            <glyph glyph-name="cent" unicode="&#xa2;" horiz-adv-x="518"
                   d="M505 575l-20.999 -89.998c-76 1.33301 -125 2 -147 2c-45.333 0 -77.5 -9.5 -96.5 -28.5s-32.167 -56.5 -39.5 -112.5c-7.33301 -58 -4.83301 -95.5 7.5 -112.5s40.166 -25.5 83.499 -25.5c61.333 0 113 3 155 9l9 -97c-44.667 -18 -100 -28.333 -166 -31l-22 -89h-110
l24 96c-56.667 11.333 -96 37.666 -118 78.999s-27.333 100.666 -16 177.999c12.667 90.667 38 155.167 76 193.5s98 58.5 180 60.5l21 83h111l-23 -90c37.333 -6 68 -14.333 92 -25z"/>
            <glyph glyph-name="sterling" unicode="&#xa3;" horiz-adv-x="581"
                   d="M572 692l-14.999 -114.001c-28.667 0.666992 -87.667 1 -177 1c-31.333 0 -53.5 -5 -66.5 -15s-20.833 -29 -23.5 -57l-6 -104h178l-15 -78h-168l-3 -45c-2.66699 -41.333 -11.5 -73.833 -26.5 -97.5s-37.833 -46.5 -68.5 -68.5c16.667 6 41 9 73 9h264l-17 -123h-492
l15 125c62.667 26.667 97 80.334 103 161.001l3 39h-77l10 78h72l8 115c6 73.333 26 122.333 60 147s87.667 37 161 37c63.333 0 132.666 -3.33301 207.999 -10z"/>
            <glyph glyph-name="currency" unicode="&#xa4;" horiz-adv-x="585"
                   d="M565 525l-77.999 -68.999c15.333 -32.667 20 -69.334 14 -110.001c-4.66699 -40.667 -19 -77 -43 -109l67 -72l-66 -60l-67 74c-32.667 -19.333 -70.334 -29 -113.001 -29s-79.334 10.667 -110.001 32l-74 -66l-59 66l76 68c-15.333 33.333 -20 69.333 -14 108
c4.66699 41.333 19.334 78.333 44.001 111l-65 72l66 61l66 -75c33.333 18.667 70 28 110 28c43.333 0 80.333 -10.333 111 -31l76 68zM182.001 351.001c-4.66699 -36.667 2.50195 -65.667 21.502 -87s45.5 -32 79.5 -32c36.667 0 67.167 11 91.5 33s38.5 52 42.5 90
c4.66699 36 -2.5 64.667 -21.5 86s-45.833 32 -80.5 32c-36.667 0 -66.834 -11 -90.501 -33s-37.834 -51.667 -42.501 -89z"/>
            <glyph glyph-name="yen" unicode="&#xa5;" horiz-adv-x="653"
                   d="M466 350h101l-13 -94h-470l12 94h103l-120 340h153l77 -251c7.33301 -26 11.666 -55.667 12.999 -89h12c4.66699 26 16.334 56.333 35.001 91l150 249h163zM79 227h472l-13 -94h-161l-18 -133h-154l20 133h-158z"/>
            <glyph glyph-name="brokenbar" unicode="&#xa6;" horiz-adv-x="261"
                   d="M195 381h-104l57 400h104zM118 -169h-104l56 400h104z"/>
            <glyph glyph-name="section" unicode="&#xa7;" horiz-adv-x="543"
                   d="M305 310l-139.999 89.998c-19.333 12.667 -34.833 24.667 -46.5 36s-21.167 27.833 -28.5 49.5s-9 46.834 -5 75.501c7.33301 56 29.666 93.667 66.999 113s91 29 161 29c83.333 0 158.333 -4 225 -12l-17 -106c-30 2 -86.333 3 -169 3
c-39.333 0.666992 -66.833 -1.66602 -82.5 -6.99902s-24.834 -17 -27.501 -35c-2 -14 0.333008 -26 7 -36s18.334 -20 35.001 -30l119 -71c48 -28 75.833 -61.833 83.5 -101.5s-1.83301 -87.834 -28.5 -144.501l-103 3c7.33301 38.667 7.83301 67.834 1.5 87.501
s-23.5 38.5 -51.5 56.5zM76.001 358.998l104 -2.99902c-7.33301 -39.333 -8.16602 -68.166 -2.49902 -86.499s22.834 -36.5 51.501 -54.5l141 -87c18.667 -12 33.334 -22.833 44.001 -32.5s20.334 -26.167 29.001 -49.5s10.667 -51 6 -83c-4 -30 -11.833 -54.5 -23.5 -73.5
s-27.834 -33.5 -48.501 -43.5s-42.834 -16.667 -66.501 -20s-53.5 -5 -89.5 -5c-80.667 0 -155.334 4 -224.001 12l17 106c69.333 -2.66699 123 -4 161 -4c40 0 68.667 2.66699 86 8s27.666 17.666 30.999 36.999c2.66699 14.667 1 26.5 -5 35.5s-16.667 17.833 -32 26.5
l-122 73c-48.667 26.667 -77 59.667 -85 99s1.33301 87.666 28 144.999z"/>
            <glyph glyph-name="dieresis" unicode="&#xa8;" horiz-adv-x="423"
                   d="M339 708h50.999c21.333 0 30.666 -10.333 27.999 -31l-10 -63c-2 -20 -13 -30 -33 -30h-53c-21.333 0 -30.666 10 -27.999 30l10 63c2.66699 20.667 14.334 31 35.001 31zM164.999 708h50.001c21.333 0 30.666 -10.333 27.999 -31l-10 -63c-2 -20 -13 -30 -33 -30h-53
c-20.667 0 -30 10 -28 30l10 62c2.66699 21.333 14.667 32 36 32z"/>
            <glyph glyph-name="copyright" unicode="&#xa9;" horiz-adv-x="811"
                   d="M446 703c109.333 0 194.502 -33.5 255.502 -100.5s85.167 -154.833 72.5 -263.5c-12 -104.667 -53.833 -189.5 -125.5 -254.5s-161.834 -97.5 -270.501 -97.5c-110 0 -195.167 33.667 -255.5 101s-83.833 155 -70.5 263c12.667 104.667 54.667 189.5 126 254.5
s160.666 97.5 267.999 97.5zM450.002 635c-88.667 0 -162.669 -27.167 -222.002 -81.5s-93.666 -125.833 -102.999 -214.5c-9.33301 -86 8.83398 -154.833 54.501 -206.5s111.167 -77.5 196.5 -77.5c87.333 0 160.833 27 220.5 81s94.5 125.667 104.5 215
c9.33301 84.667 -8.5 153.167 -53.5 205.5s-110.833 78.5 -197.5 78.5zM535 236l6.00195 -80c-40.667 -12 -85.667 -18 -135 -18c-78.667 0 -131.334 15.833 -158.001 47.5s-34.667 87.167 -24 166.5c10 76.667 31.5 129.5 64.5 158.5s86.833 43.5 161.5 43.5
c44.667 0 87 -5 127 -15l-12 -79c-58.667 1.33301 -97.334 2 -116.001 2c-40 0 -67.5 -7 -82.5 -21s-25.5 -46 -31.5 -96c-6 -45.333 -4.66699 -75.5 4 -90.5s28.667 -22.5 60 -22.5c54 -1.33301 99.333 0 136 4z"/>
            <glyph glyph-name="ordfeminine" unicode="&#xaa;" horiz-adv-x="448"
                   d="M384 275h-85.999v54c-34 -40 -78 -60.333 -132 -61c-44 -1.33301 -74 12.334 -90 41.001s-19.667 74.667 -11 138c4 30.667 10.5 56.5 19.5 77.5s18.5 37.333 28.5 49s23.333 20.5 40 26.5s32 9.66699 46 11s32.333 2 55 2
c65.333 1.33301 123.666 -5.33398 174.999 -20.001zM314.001 536h-50.999c-30.667 0 -51.334 -5 -62.001 -15s-19 -35.333 -25 -76c-5.33301 -39.333 -6.33301 -64.333 -3 -75s12.333 -15.667 27 -15c27.333 0 59.333 19.333 96 58z"/>
            <glyph glyph-name="guillemotleft" unicode="&#xab;" horiz-adv-x="513"
                   d="M276 413l-122 -162l88 -169l-75 -50l-139 206l2 32l176 195zM484 413l-122 -162l87 -169l-75 -50l-139 206l2 32l176 195z"/>
            <glyph glyph-name="logicalnot" unicode="&#xac;" horiz-adv-x="579"
                   d="M525 357l-32 -222h-114l16 113h-345l16 109h459z"/>
            <glyph glyph-name="softhyphen" unicode="&#xad;" horiz-adv-x="414"
                   d="M343 206h-298l14 97h298z"/>
            <glyph glyph-name="registered" unicode="&#xae;" horiz-adv-x="525"
                   d="M312 703c62.667 0 113.333 -20.501 152 -61.501s54 -96.5 46 -166.5c-8 -66.667 -33.667 -119.5 -77 -158.5s-98.666 -58.5 -165.999 -58.5c-66.667 0 -118.834 21.333 -156.501 64s-52.167 97.334 -43.5 164.001c8 66 33.833 118.667 77.5 158s99.5 59 167.5 59z
M467.999 485.999c5.33301 55.333 -6.83203 98.666 -36.499 129.999s-70.5 47 -122.5 47c-57.333 0 -103.333 -16.833 -138 -50.5s-55.334 -78.5 -62.001 -134.5c-6 -56.667 6 -101 36 -133s71.333 -48 124 -48c56.667 0 102.5 16.833 137.5 50.5s55.5 79.834 61.5 138.501z
M173.001 366.999l33 233c22.667 2 57.334 3 104.001 3c34 0 59.333 -5.16699 76 -15.5s23 -29.5 19 -57.5c-3.33301 -29.333 -21 -47.333 -53 -54l-1 -2c14 -4 23 -16.333 27 -37l14 -70h-65l-11 71c-2.66699 12 -10.334 18 -23.001 18h-45l-12 -89h-63zM254.001 496.999
l41 -0.000976562c16.667 0.666992 28.167 2.83398 34.5 6.50098s10.5 12.167 12.5 25.5c1.33301 12 0 19.833 -4 23.5s-13 5.5 -27 5.5h-49z"/>
            <glyph glyph-name="macron" unicode="&#xaf;" horiz-adv-x="400"
                   d="M399 598h-299l13 95h299z"/>
            <glyph glyph-name="degree" unicode="&#xb0;" horiz-adv-x="347"
                   d="M219 701c41.333 0 74.333 -13.165 99 -39.498s34.667 -58.833 30 -97.5c-4 -38 -19.167 -68.667 -45.5 -92s-59.5 -35 -99.5 -35c-41.333 0 -73.833 13.167 -97.5 39.5s-33.5 59.166 -29.5 98.499c3.33301 37.333 18 67.666 44 90.999s59 35 99 35zM216 628.002
c-18 0 -32.498 -4.99902 -43.498 -14.999s-17.167 -23.667 -18.5 -41c-2 -18.667 2 -33.667 12 -45s24 -17 42 -17c17.333 0 31.666 5.16699 42.999 15.5s17.666 24.5 18.999 42.5c1.33301 17.333 -2.66699 31.666 -12 42.999s-23.333 17 -42 17z"/>
            <glyph glyph-name="plusminus" unicode="&#xb1;" horiz-adv-x="571"
                   d="M533 427l-16 -109h-173l-17 -119h-109l17 119h-173l16 109h172l17 120h110l-17 -120h173zM39 153h455l-16 -108h-455z"/>
            <glyph glyph-name="twosuperior" unicode="&#xb2;" horiz-adv-x="413"
                   d="M116 685l-0.000976562 83c45.333 8.66699 93.333 13 144 13s89.167 -7.5 115.5 -22.5s36.833 -43.5 31.5 -85.5c-2.66699 -21.333 -9.83398 -40.833 -21.501 -58.5s-31.834 -38.5 -60.501 -62.5l-118 -97c20.667 4.66699 40.667 6 60 4h121l-14 -99h-315l9 65
c2.66699 22.667 8.33398 37.667 17.001 45l109 93c56.667 45.333 88 79 94 101c2.66699 9.33301 0.833984 15.833 -5.49902 19.5s-17.166 5.5 -32.499 5.5c-38 0 -82.667 -1.33301 -134 -4z"/>
            <glyph glyph-name="threesuperior" unicode="&#xb3;" horiz-adv-x="394"
                   d="M117 689l0.00292969 82.001c46.667 7.33301 92.667 11 138 11c53.333 0 90.666 -8.16699 111.999 -24.5s30.333 -41.833 27 -76.5c-2.66699 -25.333 -10.334 -48.333 -23.001 -69s-32 -32 -58 -34l-1 -2c54 -8 76.333 -43.333 67 -106
c-5.33301 -36.667 -21.166 -65.334 -47.499 -86.001s-69.833 -31.334 -130.5 -32.001c-34.667 -0.666992 -82.334 3 -143.001 11l9 83c80 -1.33301 121 -2 123 -2c47.333 2.66699 73.333 19.667 78 51c2.66699 14.667 0.666992 25.334 -6 32.001s-19.334 10 -38.001 10h-89
l10 75h86c19.333 0 33 3.83301 41 11.5s12.667 19.5 14 35.5c1.33301 12.667 -1.16699 21.167 -7.5 25.5s-20.833 6.5 -43.5 6.5c-18.667 0 -58 -0.666992 -118 -2z"/>
            <glyph glyph-name="acute" unicode="&#xb4;" horiz-adv-x="353"
                   d="M371 631l-238 -107l-37 64l218 150z"/>
            <glyph glyph-name="paragraph" unicode="&#xb6;" horiz-adv-x="591"
                   d="M465 0l-96.999 -0.00195312l85 611c-14.667 0.666992 -34.334 1 -59.001 1l-116 -822h-97l57 411c-76.667 8.66699 -130.167 33.834 -160.5 75.501s-39.833 101.5 -28.5 179.5c12.667 90.667 44.667 154.334 96 191.001s132 55 242 55c68 0 126 -5.66699 174 -17z"/>
            <glyph glyph-name="periodcentered" unicode="&#xb7;" horiz-adv-x="251"
                   d="M110 334h36.001c38.667 0 55 -18.333 49 -55l-6 -47c-4 -33.333 -22.667 -50 -56 -50h-37c-38.667 0 -55.334 18.333 -50.001 55l7 48c4 32.667 23 49 57 49z"/>
            <glyph glyph-name="cedilla" unicode="&#xb8;" horiz-adv-x="248"
                   d="M21 -96l15 58c52 6 89.5 4.33301 112.5 -5s31.5 -31 25.5 -65c-8 -48 -31.833 -83.5 -71.5 -106.5s-87.167 -30.5 -142.5 -22.5l20 64c24.667 -0.666992 46.167 4 64.5 14s29.5 24.667 33.5 44c1.33301 8 -1.16699 13.167 -7.5 15.5s-22.833 3.5 -49.5 3.5z"/>
            <glyph glyph-name="onesuperior" unicode="&#xb9;" horiz-adv-x="300"
                   d="M249 360h-112l39 273c4 24 7.66699 40.333 11 49l-103 -24l-3 76l114 40h112z"/>
            <glyph glyph-name="ordmasculine" unicode="&#xba;" horiz-adv-x="437"
                   d="M254 615c66 0 111.498 -13.833 136.498 -41.5s32.833 -74.167 23.5 -139.5c-8.66699 -62 -27.167 -105.333 -55.5 -130s-73.833 -37 -136.5 -37c-64.667 0 -109.667 13.667 -135 41s-33.666 73 -24.999 137c8.66699 62.667 27.334 106.667 56.001 132s74 38 136 38z
M252.998 535c-26.667 0 -45.332 -6.66895 -55.999 -20.002s-18.667 -40.333 -24 -81c-4.66699 -33.333 -3.66699 -56.333 3 -69s22.667 -19 48 -19s43.5 6.83301 54.5 20.5s19.167 39.834 24.5 78.501c4.66699 36.667 3.66699 60.834 -3 72.501s-22.334 17.5 -47.001 17.5z
"/>
            <glyph glyph-name="guillemotright" unicode="&#xbb;" horiz-adv-x="515"
                   d="M17 82l123 162l-88 169l75 50l139 -206l-2 -32l-176 -194zM225 82l122 162l-88 169l75 50l139 -206l-2 -32l-176 -194z"/>
            <glyph glyph-name="onequarter" unicode="&#xbc;" horiz-adv-x="903"
                   d="M132 276l37.999 274c4.66699 26 8.33398 42.667 11.001 50l-102 -24l-3 73l114 41h113l-58 -414h-113zM719.999 690l-513 -690h-99l513 690h99zM844.999 95l-52 -9.00098l-12 -86h-102l11 86h-176c-20.667 0 -35.167 7.33301 -43.5 22s-6.83301 32.334 4.5 53.001
l147 253h105l-131 -234c-4.66699 -10.667 -1.66699 -16 9 -16h96l14 102l28 67h85l-24 -169h51z"/>
            <glyph glyph-name="onehalf" unicode="&#xbd;" horiz-adv-x="908"
                   d="M245 276h-114l39 274c2 18 5.66699 34.667 11 50l-102 -24l-3 73l114 41h113zM201 0h-98l512 690h99zM556 326l0.00390625 81.999c48 8.66699 96.667 13 146 13c59.333 0 102.166 -7.66699 128.499 -23s36.166 -45 29.499 -89
c-5.33301 -37.333 -33.333 -76.666 -84 -117.999l-128 -98c15.333 3.33301 35.666 5 60.999 5l135 -2l-13 -96h-333l9 62c2 20.667 8 36 18 46l114 92c55.333 43.333 87.666 77 96.999 101c4 10.667 2.66699 18 -4 22s-18.667 6 -36 6c-32 0 -78.667 -1 -140 -3z"/>
            <glyph glyph-name="threequarters" unicode="&#xbe;" horiz-adv-x="980"
                   d="M305 496l-5 -2.99902c32 -4 53.833 -15.167 65.5 -33.5s15.5 -43.5 11.5 -75.5c-5.33301 -40.667 -20.833 -70.5 -46.5 -89.5s-68.167 -28.5 -127.5 -28.5c-40 0 -92.667 4 -158 12l7 82c39.333 -2 82 -3 128 -3c29.333 0 50.166 4.16699 62.499 12.5
s19.833 22.166 22.5 41.499c2 13.333 -0.166992 23.333 -6.5 30s-20.5 10.334 -42.5 11.001h-92l10 74h89c36.667 0 56.334 16 59.001 48c2 13.333 -0.166992 22.166 -6.5 26.499s-20.5 6.5 -42.5 6.5c-12.667 0 -33.5 -0.166992 -62.5 -0.5s-51.167 -0.5 -66.5 -0.5l-1 80
c47.333 7.33301 95 11 143 11c60 0 101 -7.5 123 -22.5s30.333 -41.5 25 -79.5c-7.33301 -60 -37 -93 -89 -99zM809 690.001l-512 -690h-99l512 690h99zM923 96.001l-52 -9l-12 -86h-102l12 85h-176c-20.667 0 -35.167 7.5 -43.5 22.5s-6.83301 32.833 4.5 53.5l146 253h106
l-132 -234c-4.66699 -10.667 -1.66699 -16 9 -16h96l14 101l28 68h85l-24 -169h51z"/>
            <glyph glyph-name="questiondown" unicode="&#xbf;" horiz-adv-x="509"
                   d="M278 509h32c38.667 0 55 -18.333 49 -55l-7 -48c-4 -32.667 -22.667 -49 -56 -49h-32c-37.333 0 -53.333 18 -48 54l6 49c4 32.667 22.667 49 56 49zM208 288l117.999 -0.000976562c-3.33301 -33.333 -11.333 -64.166 -24 -92.499s-27.167 -52 -43.5 -71
s-32.5 -36.5 -48.5 -52.5s-30.5 -32 -43.5 -48s-21.5 -31 -25.5 -45c-5.33301 -21.333 -2.5 -37 8.5 -47s32.5 -15 64.5 -15c86 0 154.333 1.66699 205 5v-101c-5.33301 -0.666992 -15.5 -2.5 -30.5 -5.5s-24.833 -4.83301 -29.5 -5.5s-13.334 -2 -26.001 -4
s-23.167 -3.33301 -31.5 -4l-32.5 -2.5c-13.333 -1 -27.333 -1.66699 -42 -2s-30.667 -0.5 -48 -0.5c-72 0 -124.833 14.167 -158.5 42.5s-47.167 67.5 -40.5 117.5c3.33301 26.667 12.333 51.167 27 73.5s31.834 42 51.501 59l59.5 52c20 17.667 38.333 39 55 64
s28.334 52.5 35.001 82.5z"/>
            <glyph glyph-name="Agrave" unicode="&#xc0;" horiz-adv-x="647"
                   d="M416 723l-221 114l66 97l204 -148zM432 180h-238.001l-74 -180h-159l290 653c9.33301 24.667 27.666 37 54.999 37h144c12.667 0 23.834 -4.16699 33.501 -12.5s14.834 -18.5 15.501 -30.5l108 -647h-152zM415.999 301l-27 209c-2 14.667 -3.66699 37 -5 67h-29
c-12 -34 -20 -56 -24 -66l-87 -210h172z"/>
            <glyph glyph-name="Aacute" unicode="&#xc1;" horiz-adv-x="647"
                   d="M347 723l-37 63l218 151l57 -108zM432 180h-238.001l-74 -180h-159l290 653c9.33301 24.667 27.666 37 54.999 37h144c12.667 0 23.834 -4.16699 33.501 -12.5s14.834 -18.5 15.501 -30.5l108 -647h-152zM415.999 301l-27 209c-2 14.667 -3.66699 37 -5 67h-29
c-12 -34 -20 -56 -24 -66l-87 -210h172z"/>
            <glyph glyph-name="Acircumflex" unicode="&#xc2;" horiz-adv-x="647"
                   d="M241 723l-37 56l149 133h101l127 -139l-45 -52l-131 98h-8zM432 180h-238.001l-74 -180h-159l290 653c9.33301 24.667 27.666 37 54.999 37h144c12.667 0 23.834 -4.16699 33.501 -12.5s14.834 -18.5 15.501 -30.5l108 -647h-152zM415.999 301l-27 209
c-2 14.667 -3.66699 37 -5 67h-29c-12 -34 -20 -56 -24 -66l-87 -210h172z"/>
            <glyph glyph-name="Atilde" unicode="&#xc3;" horiz-adv-x="647"
                   d="M514 896l62.999 -5c0.666992 -46 -7.5 -80.833 -24.5 -104.5s-39.5 -34.834 -67.5 -33.501c-24 1.33301 -53.333 9.66602 -88 24.999s-56.667 23.666 -66 24.999c-17.333 2.66699 -29.666 -0.166016 -36.999 -8.49902s-12.333 -21.833 -15 -40.5l-63 6
c0 46.667 8.83301 81.834 26.5 105.501s40.167 34.834 67.5 33.501c22 -1.33301 49.833 -9.33301 83.5 -24s56.167 -23 67.5 -25c31.333 -5.33301 49 10 53 46zM431.999 180h-238.001l-74 -180h-159l290 653c9.33301 24.667 27.666 37 54.999 37h144
c12.667 0 23.834 -4.16699 33.501 -12.5s14.834 -18.5 15.501 -30.5l108 -647h-152zM415.998 301l-27 209c-2 14.667 -3.66699 37 -5 67h-29c-12 -34 -20 -56 -24 -66l-87 -210h172z"/>
            <glyph glyph-name="Adieresis" unicode="&#xc4;" horiz-adv-x="647"
                   d="M330 763h-53.001c-21.333 0 -30.666 9.66699 -27.999 29l10 63c2.66699 20.667 14.667 31 36 31h49c22 0 31.667 -10 29 -30l-10 -63c-2.66699 -20 -13.667 -30 -33 -30zM504.999 763h-53.002c-21.333 0 -30.666 9.66699 -27.999 29l10 63
c2.66699 20.667 14.334 31 35.001 31h50c22 0 31.667 -10 29 -30l-10 -63c-2.66699 -20 -13.667 -30 -33 -30zM431.997 180h-238.001l-74 -180h-159l290 653c9.33301 24.667 27.666 37 54.999 37h144c12.667 0 23.834 -4.16699 33.501 -12.5s14.834 -18.5 15.501 -30.5
l108 -647h-152zM415.996 301l-27 209c-2 14.667 -3.66699 37 -5 67h-29c-12 -34 -20 -56 -24 -66l-87 -210h172z"/>
            <glyph glyph-name="Aring" unicode="&#xc5;" horiz-adv-x="647"
                   d="M395 715c-35.333 0 -63.832 11.332 -85.499 33.999s-30.5 50.667 -26.5 84c3.33301 30.667 16 56.334 38 77.001s50 31 84 31c34.667 0 63.167 -11.333 85.5 -34s31.166 -51 26.499 -85c-4 -30.667 -16.833 -56.167 -38.5 -76.5s-49.5 -30.5 -83.5 -30.5z
M350.001 828.999c-1.33301 -16.667 2.33398 -29.666 11.001 -38.999s20.334 -14 35.001 -14c15.333 0 27.833 5 37.5 15s15.167 23 16.5 39c1.33301 15.333 -2.33398 27.5 -11.001 36.5s-20.334 13.5 -35.001 13.5s-27 -4.83301 -37 -14.5s-15.667 -21.834 -17 -36.501z
M432.001 180h-238.001l-74 -180h-159l290 653c9.33301 24.667 27.666 37 54.999 37h144c12.667 0 23.834 -4.16699 33.501 -12.5s14.834 -18.5 15.501 -30.5l108 -647h-152zM416 301l-27 209c-2 14.667 -3.66699 37 -5 67h-29c-12 -34 -20 -56 -24 -66l-87 -210h172z"/>
            <glyph glyph-name="AE" unicode="&#xc6;" horiz-adv-x="931"
                   d="M924 571h-243c-18.667 0 -33 -4 -43 -12s-16.333 -22 -19 -42l-15 -106h260l-13 -105h-262l-19 -135c-2 -19.333 0.166992 -32.833 6.5 -40.5s19.166 -11.5 38.499 -11.5h245l-4 -112c-63.333 -6.66699 -161.666 -10 -294.999 -10c-48 0 -84.167 14 -108.5 42
s-33.166 65.667 -26.499 113l5 34h-203l-120 -186h-159l368 561c32 50 68.667 84.167 110 102.5s105 27.5 191 27.5c147.333 0 255.666 -2.66699 324.999 -8zM448 307l31 224c3.33301 26 13.333 48 30 66h-7c-15.333 -14.667 -31 -34 -47 -58l-149 -232h142z"/>
            <glyph glyph-name="Ccedilla" unicode="&#xc7;" horiz-adv-x="583"
                   d="M516 129l6 -113.998c-60 -18 -133.333 -27 -220 -27c-106.667 0 -179.167 28.167 -217.5 84.5s-48.5 149.166 -30.5 278.499c18.667 133.333 52 225.166 100 275.499s125.333 75.5 232 75.5c76.667 0 145.334 -8 206.001 -24l-20 -113c-54 3.33301 -118 5 -192 5
c-35.333 0 -63 -5.66699 -83 -17s-36.833 -33.5 -50.5 -66.5s-24.834 -82.167 -33.501 -147.5c-12 -86 -11.667 -144 1 -174s43.667 -45 93 -45c79.333 -0.666992 149 2.33301 209 9zM197 -115.998l14.998 58c52.667 6 90.334 4.33301 113.001 -5s31.334 -31 26.001 -65
c-8 -48 -32 -83.5 -72 -106.5s-87.667 -30.5 -143 -22.5l21 64c24.667 -0.666992 46 4 64 14s29 24.667 33 44c1.33301 8 -1.16699 13.167 -7.5 15.5s-22.833 3.5 -49.5 3.5z"/>
            <glyph glyph-name="Egrave" unicode="&#xc8;" horiz-adv-x="572"
                   d="M406 735l-221 114l66 97l203 -149zM564 570l-257.999 0.00195312c-19.333 0 -33.166 -3.83301 -41.499 -11.5s-13.833 -21.834 -16.5 -42.501l-15 -104h272l-14 -108h-273l-18 -133c-2.66699 -18.667 -0.5 -31.834 6.5 -39.501s19.833 -11.5 38.5 -11.5h255l-4 -113
c-58.667 -6.66699 -158.334 -10 -299.001 -10c-56 0 -97 14.833 -123 44.5s-35.667 70.167 -29 121.5l55 394c6 42.667 23.167 76 51.5 100s66.166 36 113.499 36c145.333 0 251.333 -3.66699 318 -11z"/>
            <glyph glyph-name="Eacute" unicode="&#xc9;" horiz-adv-x="572"
                   d="M337 735l-37 63l218 151l57 -108zM564 570l-257.999 0.00195312c-19.333 0 -33.166 -3.83301 -41.499 -11.5s-13.833 -21.834 -16.5 -42.501l-15 -104h272l-14 -108h-273l-18 -133c-2.66699 -18.667 -0.5 -31.834 6.5 -39.501s19.833 -11.5 38.5 -11.5h255l-4 -113
c-58.667 -6.66699 -158.334 -10 -299.001 -10c-56 0 -97 14.833 -123 44.5s-35.667 70.167 -29 121.5l55 394c6 42.667 23.167 76 51.5 100s66.166 36 113.499 36c145.333 0 251.333 -3.66699 318 -11z"/>
            <glyph glyph-name="Ecircumflex" unicode="&#xca;" horiz-adv-x="572"
                   d="M231 734l-37 56l149 133h101l127 -138l-45 -53l-131 99h-8zM564 570l-257.999 0.00195312c-19.333 0 -33.166 -3.83301 -41.499 -11.5s-13.833 -21.834 -16.5 -42.501l-15 -104h272l-14 -108h-273l-18 -133c-2.66699 -18.667 -0.5 -31.834 6.5 -39.501
s19.833 -11.5 38.5 -11.5h255l-4 -113c-58.667 -6.66699 -158.334 -10 -299.001 -10c-56 0 -97 14.833 -123 44.5s-35.667 70.167 -29 121.5l55 394c6 42.667 23.167 76 51.5 100s66.166 36 113.499 36c145.333 0 251.333 -3.66699 318 -11z"/>
            <glyph glyph-name="Edieresis" unicode="&#xcb;" horiz-adv-x="572"
                   d="M495 775h-53.002c-21.333 0 -30.666 9.66699 -27.999 29l10 63c2.66699 20.667 14.334 31 35.001 31h50c22 0 31.667 -10.333 29 -31l-10 -62c-2.66699 -20 -13.667 -30 -33 -30zM319.998 775h-53.001c-21.333 0 -30.666 9.66699 -27.999 29l10 63
c2.66699 20.667 14.667 31 36 31h49c22 0 31.667 -10.333 29 -31l-10 -63c-2.66699 -19.333 -13.667 -29 -33 -29zM563.997 570l-257.999 0.00195312c-19.333 0 -33.166 -3.83301 -41.499 -11.5s-13.833 -21.834 -16.5 -42.501l-15 -104h272l-14 -108h-273l-18 -133
c-2.66699 -18.667 -0.5 -31.834 6.5 -39.501s19.833 -11.5 38.5 -11.5h255l-4 -113c-58.667 -6.66699 -158.334 -10 -299.001 -10c-56 0 -97 14.833 -123 44.5s-35.667 70.167 -29 121.5l55 394c6 42.667 23.167 76 51.5 100s66.166 36 113.499 36
c145.333 0 251.333 -3.66699 318 -11z"/>
            <glyph glyph-name="Igrave" unicode="&#xcc;" horiz-adv-x="292"
                   d="M287 786l-49 -63l-221 114l66 97zM181 0h-153l97 690h153z"/>
            <glyph glyph-name="Iacute" unicode="&#xcd;" horiz-adv-x="292"
                   d="M407 829l-238 -106l-37 63l219 151zM181 0h-153l97 690h153z"/>
            <glyph glyph-name="Icircumflex" unicode="&#xce;" horiz-adv-x="292"
                   d="M403 773l-45 -52l-131 98h-8l-155 -96l-37 56l148 133h101zM181 0h-153l97 690h153z"/>
            <glyph glyph-name="Idieresis" unicode="&#xcf;" horiz-adv-x="292"
                   d="M291 886h51c21.333 0 30.666 -10 27.999 -30l-10 -63c-2 -20 -13 -30 -33 -30h-53c-20.667 0 -30 9.66699 -28 29l10 63c2.66699 20.667 14.334 31 35.001 31zM117 886l50 0.000976562c12 0 20 -2.33301 24 -7s5.33301 -12.334 4 -23.001l-10 -63c-2 -20 -13 -30 -33 -30
h-53c-20.667 0 -30 9.66699 -28 29l10 63c2.66699 20.667 14.667 31 36 31zM181 0.000976562h-153l97 690h153z"/>
            <glyph glyph-name="Eth" unicode="&#xd0;" horiz-adv-x="678"
                   d="M85 402l40 288c86.667 6 169 9 247 9c76 0 135 -10.667 177 -32s70.5 -58.333 85.5 -111s16.167 -125 3.5 -217c-10.667 -74.667 -24.167 -134.667 -40.5 -180s-39 -80.5 -68 -105.5s-61.5 -41.667 -97.5 -50s-83.667 -12.5 -143 -12.5c-75.333 0 -162.333 3 -261 9
l46 326h-55l10 76h56zM226 326l-29.998 -213.999c11.333 0 27.333 -0.166992 48 -0.5s35 -0.5 43 -0.5c32 0 57.5 2.83301 76.5 8.5s36.5 17 52.5 34s28.5 41.167 37.5 72.5s17.167 73 24.5 125c7.33301 50 11.166 89.333 11.499 118s-4 51.667 -13 69
s-21.833 28.666 -38.5 33.999s-40.334 8 -71.001 8l-105 -1l-25 -177h122l-10 -76h-123z"/>
            <glyph glyph-name="Ntilde" unicode="&#xd1;" horiz-adv-x="717"
                   d="M315 754l-61.999 6c0 46.667 8.66699 81.834 26 105.501s39.666 34.834 66.999 33.501c22.667 -1.33301 50.667 -9.33301 84 -24s55.666 -23 66.999 -25c18 -2.66699 30.833 -0.166992 38.5 7.5s12.834 20.5 15.501 38.5l62 -5c0.666992 -46 -7.5 -80.833 -24.5 -104.5
s-39.5 -34.834 -67.5 -33.501c-24 1.33301 -53.167 9.66602 -87.5 24.999s-56.166 23.666 -65.499 24.999c-17.333 2.66699 -29.833 -0.166016 -37.5 -8.49902s-12.834 -21.833 -15.501 -40.5zM704.001 690l-90 -637.998c-4.66699 -34.667 -23.667 -52 -57 -52h-85
c-15.333 0 -26.833 3.66699 -34.5 11s-15.167 19.666 -22.5 36.999l-137 368c-12.667 33.333 -22.667 68 -30 104h-10c-1.33301 -40.667 -4 -76.667 -8 -108l-57 -412h-145l90 638c4.66699 34.667 24 52 58 52h84c14.667 0 26 -3.83301 34 -11.5s15.333 -19.834 22 -36.501
l133 -356c15.333 -40.667 27.333 -78 36 -112h12c0 39.333 2.33301 76.333 7 111l55 405h145z"/>
            <glyph glyph-name="Ograve" unicode="&#xd2;" horiz-adv-x="680"
                   d="M481 786l-49 -63l-221 114l66 97zM388 703c106 0 179.333 -27.167 220 -81.5s51.667 -148.5 33 -282.5c-18 -134.667 -51.5 -227 -100.5 -277s-126.167 -75 -231.5 -75c-108 0 -182 26.667 -222 80s-51 148 -33 284c18.667 132.667 52.5 224.5 101.5 275.5
s126.5 76.5 232.5 76.5zM383 580c-53.333 0 -91.3301 -16.167 -113.997 -48.5s-41 -96.5 -55 -192.5c-12.667 -90 -12.334 -150.667 0.999023 -182s45.666 -47 96.999 -47c52.667 0 90.667 16.5 114 49.5s42 96.833 56 191.5c13.333 91.333 13.166 152.333 -0.500977 183
s-46.5 46 -98.5 46z"/>
            <glyph glyph-name="Oacute" unicode="&#xd3;" horiz-adv-x="680"
                   d="M601 829l-237 -106l-38 63l219 151zM388 703c106 0 179.333 -27.167 220 -81.5s51.667 -148.5 33 -282.5c-18 -134.667 -51.5 -227 -100.5 -277s-126.167 -75 -231.5 -75c-108 0 -182 26.667 -222 80s-51 148 -33 284c18.667 132.667 52.5 224.5 101.5 275.5
s126.5 76.5 232.5 76.5zM383 580c-53.333 0 -91.3301 -16.167 -113.997 -48.5s-41 -96.5 -55 -192.5c-12.667 -90 -12.334 -150.667 0.999023 -182s45.666 -47 96.999 -47c52.667 0 90.667 16.5 114 49.5s42 96.833 56 191.5c13.333 91.333 13.166 152.333 -0.500977 183
s-46.5 46 -98.5 46z"/>
            <glyph glyph-name="Ocircumflex" unicode="&#xd4;" horiz-adv-x="680"
                   d="M598 773l-46 -52l-131 98h-8l-155 -96l-37 56l148 133h101zM388 703c106 0 179.333 -27.167 220 -81.5s51.667 -148.5 33 -282.5c-18 -134.667 -51.5 -227 -100.5 -277s-126.167 -75 -231.5 -75c-108 0 -182 26.667 -222 80s-51 148 -33 284
c18.667 132.667 52.5 224.5 101.5 275.5s126.5 76.5 232.5 76.5zM383 580c-53.333 0 -91.3301 -16.167 -113.997 -48.5s-41 -96.5 -55 -192.5c-12.667 -90 -12.334 -150.667 0.999023 -182s45.666 -47 96.999 -47c52.667 0 90.667 16.5 114 49.5s42 96.833 56 191.5
c13.333 91.333 13.166 152.333 -0.500977 183s-46.5 46 -98.5 46z"/>
            <glyph glyph-name="Otilde" unicode="&#xd5;" horiz-adv-x="680"
                   d="M295 754l-63 6c0.666992 46.667 9.66699 81.834 27 105.501s39.666 34.834 66.999 33.501c22 -1.33301 49.833 -9.33301 83.5 -24s56.167 -23 67.5 -25c18 -2.66699 30.833 -0.166992 38.5 7.5s12.834 20.5 15.501 38.5l62 -5c0.666992 -46 -7.5 -80.833 -24.5 -104.5
s-39.5 -34.834 -67.5 -33.501c-24 1.33301 -53.167 9.66602 -87.5 24.999s-56.166 23.666 -65.499 24.999c-17.333 2.66699 -29.833 -0.166016 -37.5 -8.49902s-12.834 -21.833 -15.501 -40.5zM388 703c106 0 179.333 -27.167 220 -81.5s51.667 -148.5 33 -282.5
c-18 -134.667 -51.5 -227 -100.5 -277s-126.167 -75 -231.5 -75c-108 0 -182 26.667 -222 80s-51 148 -33 284c18.667 132.667 52.5 224.5 101.5 275.5s126.5 76.5 232.5 76.5zM383 580c-53.333 0 -91.3301 -16.167 -113.997 -48.5s-41 -96.5 -55 -192.5
c-12.667 -90 -12.334 -150.667 0.999023 -182s45.666 -47 96.999 -47c52.667 0 90.667 16.5 114 49.5s42 96.833 56 191.5c13.333 91.333 13.166 152.333 -0.500977 183s-46.5 46 -98.5 46z"/>
            <glyph glyph-name="Odieresis" unicode="&#xd6;" horiz-adv-x="680"
                   d="M485 886h51.001c21.333 0 30.666 -10 27.999 -30l-10 -63c-2 -20 -12.667 -30 -32 -30h-54c-20.667 0 -29.667 9.66699 -27 29l9 63c4 20.667 15.667 31 35 31zM311.001 886l50 0.000976562c12 0 20 -2.33301 24 -7s5.33301 -12.334 4 -23.001l-10 -63
c-2 -20 -12.667 -30 -32 -30h-54c-20.667 0 -29.667 9.66699 -27 29l9 63c2.66699 20.667 14.667 31 36 31zM388.001 703.001c106 0 179.333 -27.167 220 -81.5s51.667 -148.5 33 -282.5c-18 -134.667 -51.5 -227 -100.5 -277s-126.167 -75 -231.5 -75
c-108 0 -182 26.667 -222 80s-51 148 -33 284c18.667 132.667 52.5 224.5 101.5 275.5s126.5 76.5 232.5 76.5zM383.001 580.001c-53.333 0 -91.3301 -16.167 -113.997 -48.5s-41 -96.5 -55 -192.5c-12.667 -90 -12.334 -150.667 0.999023 -182s45.666 -47 96.999 -47
c52.667 0 90.667 16.5 114 49.5s42 96.833 56 191.5c13.333 91.333 13.166 152.333 -0.500977 183s-46.5 46 -98.5 46z"/>
            <glyph glyph-name="multiply" unicode="&#xd7;" horiz-adv-x="525"
                   d="M344 287l117 -119l-79 -84l-128 132l-168 -133l-60 91l152 119l-115 119l79 80l126 -128l172 136l59 -90z"/>
            <glyph glyph-name="Oslash" unicode="&#xd8;" horiz-adv-x="680"
                   d="M659 746l-63.998 -108c51.333 -55.333 66.666 -155 45.999 -299c-18 -134.667 -51.5 -227 -100.5 -277s-126.167 -75 -231.5 -75c-38.667 0 -71 2.66699 -97 8l-60 -98l-106 56l58 95c-53.333 53.333 -70 154.333 -50 303c18.667 132.667 52.5 224.5 101.5 275.5
s126.5 76.5 232.5 76.5c37.333 0 70.666 -3 99.999 -9l65 107zM482.002 351c13.333 91.333 13.1689 152.333 -0.498047 183s-46.5 46 -98.5 46c-53.333 0 -91.333 -16.167 -114 -48.5s-41 -96.5 -55 -192.5c-12.667 -90 -12.334 -150.667 0.999023 -182
s45.666 -47 96.999 -47c52.667 0 90.667 16.5 114 49.5s42 96.833 56 191.5z"/>
            <glyph glyph-name="Ugrave" unicode="&#xd9;" horiz-adv-x="677"
                   d="M479 786l-49 -63l-221 114l66 97zM670 690l-59.999 -417.999c-15.333 -105.333 -45.333 -179.166 -90 -221.499s-115 -63.5 -211 -63.5c-98 0 -167.333 22.667 -208 68s-54 119.666 -40 222.999l58 412h153l-59 -418c-9.33301 -62.667 -7.33301 -105.334 6 -128.001
s43.333 -34 90 -34c48 0 82.667 12 104 36s36.666 68 45.999 132l58 412h153z"/>
            <glyph glyph-name="Uacute" unicode="&#xda;" horiz-adv-x="677"
                   d="M599 829l-237 -106l-38 63l219 151zM670 690l-59.999 -417.999c-15.333 -105.333 -45.333 -179.166 -90 -221.499s-115 -63.5 -211 -63.5c-98 0 -167.333 22.667 -208 68s-54 119.666 -40 222.999l58 412h153l-59 -418c-9.33301 -62.667 -7.33301 -105.334 6 -128.001
s43.333 -34 90 -34c48 0 82.667 12 104 36s36.666 68 45.999 132l58 412h153z"/>
            <glyph glyph-name="Ucircumflex" unicode="&#xdb;" horiz-adv-x="677"
                   d="M596 773l-46 -52l-131 98h-8l-155 -96l-37 56l148 133h101zM670 690l-59.999 -417.999c-15.333 -105.333 -45.333 -179.166 -90 -221.499s-115 -63.5 -211 -63.5c-98 0 -167.333 22.667 -208 68s-54 119.666 -40 222.999l58 412h153l-59 -418
c-9.33301 -62.667 -7.33301 -105.334 6 -128.001s43.333 -34 90 -34c48 0 82.667 12 104 36s36.666 68 45.999 132l58 412h153z"/>
            <glyph glyph-name="Udieresis" unicode="&#xdc;" horiz-adv-x="677"
                   d="M483 886h51.001c21.333 0 30.666 -10 27.999 -30l-10 -63c-2 -20 -12.667 -30 -32 -30h-54c-20.667 0 -30 9.66699 -28 29l10 63c4 20.667 15.667 31 35 31zM309.001 886l50 0.000976562c12 0 20 -2.33301 24 -7s5.33301 -12.334 4 -23.001l-10 -63
c-2 -20 -12.667 -30 -32 -30h-54c-20.667 0 -30 9.66699 -28 29l10 63c2.66699 20.667 14.667 31 36 31zM670.001 690.001l-59.999 -417.999c-15.333 -105.333 -45.333 -179.166 -90 -221.499s-115 -63.5 -211 -63.5c-98 0 -167.333 22.667 -208 68s-54 119.666 -40 222.999
l58 412h153l-59 -418c-9.33301 -62.667 -7.33301 -105.334 6 -128.001s43.333 -34 90 -34c48 0 82.667 12 104 36s36.666 68 45.999 132l58 412h153z"/>
            <glyph glyph-name="Yacute" unicode="&#xdd;" horiz-adv-x="605"
                   d="M321 723l-37 63l218 151l56 -108zM367 225l-30.999 -225h-154l33 233l-160 457h153l78 -256c7.33301 -29.333 11.666 -59 12.999 -89h11c6.66699 30.667 18.667 61 36 91l150 254h164z"/>
            <glyph glyph-name="Thorn" unicode="&#xde;" horiz-adv-x="609"
                   d="M278 690l-16.001 -116h99c90.667 0 153.834 -17 189.501 -51s47.5 -95 35.5 -183c-12 -86 -36.5 -144.333 -73.5 -175s-96.833 -46 -179.5 -46c-40 0 -84.667 3 -134 9l-18 -128h-153l97 690h153zM213.999 237h103c39.333 0 67 7.5 83 22.5s27.333 45.833 34 92.5
c6 42 3.83301 70 -6.5 84s-33.833 21 -70.5 21l-112 -1z"/>
            <glyph glyph-name="germandbls" unicode="&#xdf;" horiz-adv-x="701"
                   d="M521 312l71.001 -52.9971c28 -22.667 47 -44.334 57 -65.001s13 -46 9 -76c-7.33301 -48.667 -26.5 -82.334 -57.5 -101.001s-80.5 -28 -148.5 -28c-49.333 0 -104.666 3.66699 -165.999 11l15 100c56 -1.33301 95.333 -2 118 -2c32 0 54.833 2.66699 68.5 8
s21.167 16.333 22.5 33c1.33301 12 -1.33398 22.167 -8.00098 30.5s-21 21.833 -43 40.5l-66 45c-46 35.333 -66 75 -60 119c2 15.333 8.16699 30.166 18.5 44.499s20.666 26 30.999 35s27.833 23.167 52.5 42.5c24 18.667 40.333 33.667 49 45s14 23.666 16 36.999
c2 16 -2.5 27.5 -13.5 34.5s-35.5 10.5 -73.5 10.5c-45.333 0 -76.833 -6 -94.5 -18s-28.834 -35.333 -33.501 -70l-81 -580c-8 -49.333 -26 -86.666 -54 -111.999s-69.333 -38 -124 -38c-26 0 -70 3.66699 -132 11l23 98h64c26 0 44.667 4.5 56 13.5s19.333 26.5 24 52.5
l58 414h-86l12 94l88 5l9 64c9.33301 68.667 33.833 115 73.5 139s102.834 36 189.501 36c96.667 0 162 -11.833 196 -35.5s46.333 -63.834 37 -120.501c-7.33301 -46 -34.333 -87.333 -81 -124c-4.66699 -4 -13.667 -10.833 -27 -20.5s-22.666 -16.667 -27.999 -21
s-11 -10.166 -17 -17.499s-9.66699 -14.333 -11 -21c-2.66699 -14 10.666 -32 39.999 -54c2.66699 -2.66699 5 -4.66699 7 -6z"/>
            <glyph glyph-name="agrave" unicode="&#xe0;" horiz-adv-x="590"
                   d="M364 541l-221 113l66 98l204 -149zM490 0h-114.998l1 89c-50.667 -65.333 -118 -99 -202 -101c-62 -2 -103.833 18.167 -125.5 60.5s-25.5 111.5 -11.5 207.5c6.66699 45.333 16 83.5 28 114.5s25.333 55.5 40 73.5s33.667 31.667 57 41s45.833 15.333 67.5 18
s49.167 4 82.5 4c35.333 0 77.666 -3 126.999 -9s88.666 -13 117.999 -21zM399.002 398l-76 0.00195312c-48 0 -80.667 -8.33301 -98 -25s-30.333 -56.334 -39 -119.001c-8.66699 -63.333 -10.667 -103.833 -6 -121.5s19 -25.834 43 -24.501
c44 0.666992 93.333 31.667 148 93z"/>
            <glyph glyph-name="aacute" unicode="&#xe1;" horiz-adv-x="590"
                   d="M296 541l-37 63l218 150l56 -107zM490 0h-114.998l1 89c-50.667 -65.333 -118 -99 -202 -101c-62 -2 -103.833 18.167 -125.5 60.5s-25.5 111.5 -11.5 207.5c6.66699 45.333 16 83.5 28 114.5s25.333 55.5 40 73.5s33.667 31.667 57 41s45.833 15.333 67.5 18
s49.167 4 82.5 4c35.333 0 77.666 -3 126.999 -9s88.666 -13 117.999 -21zM399.002 398l-76 0.00195312c-48 0 -80.667 -8.33301 -98 -25s-30.333 -56.334 -39 -119.001c-8.66699 -63.333 -10.667 -103.833 -6 -121.5s19 -25.834 43 -24.501
c44 0.666992 93.333 31.667 148 93z"/>
            <glyph glyph-name="acircumflex" unicode="&#xe2;" horiz-adv-x="590"
                   d="M190 540l-37 56l148 133h101l128 -139l-45 -52l-132 99h-8zM490 0h-114.998l1 89c-50.667 -65.333 -118 -99 -202 -101c-62 -2 -103.833 18.167 -125.5 60.5s-25.5 111.5 -11.5 207.5c6.66699 45.333 16 83.5 28 114.5s25.333 55.5 40 73.5s33.667 31.667 57 41
s45.833 15.333 67.5 18s49.167 4 82.5 4c35.333 0 77.666 -3 126.999 -9s88.666 -13 117.999 -21zM399.002 398l-76 0.00195312c-48 0 -80.667 -8.33301 -98 -25s-30.333 -56.334 -39 -119.001c-8.66699 -63.333 -10.667 -103.833 -6 -121.5s19 -25.834 43 -24.501
c44 0.666992 93.333 31.667 148 93z"/>
            <glyph glyph-name="atilde" unicode="&#xe3;" horiz-adv-x="590"
                   d="M463 714l62 -5.99902c0.666992 -46 -7.5 -80.667 -24.5 -104s-39.5 -34.333 -67.5 -33c-24 1.33301 -53.167 9.5 -87.5 24.5s-56.166 23.167 -65.499 24.5c-17.333 2.66699 -29.833 0 -37.5 -8s-12.834 -21.333 -15.501 -40l-62 5c0 47.333 8.66699 82.666 26 105.999
s39.666 34.333 66.999 33c22 -1.33301 49.667 -9.16602 83 -23.499s56 -22.5 68 -24.5c18 -2.66699 30.833 -0.333984 38.5 6.99902s12.834 20.333 15.501 39zM490 0.000976562h-114.998l1 89c-50.667 -65.333 -118 -99 -202 -101c-62 -2 -103.833 18.167 -125.5 60.5
s-25.5 111.5 -11.5 207.5c6.66699 45.333 16 83.5 28 114.5s25.333 55.5 40 73.5s33.667 31.667 57 41s45.833 15.333 67.5 18s49.167 4 82.5 4c35.333 0 77.666 -3 126.999 -9s88.666 -13 117.999 -21zM399.002 398.001l-76 0.00195312c-48 0 -80.667 -8.33301 -98 -25
s-30.333 -56.334 -39 -119.001c-8.66699 -63.333 -10.667 -103.833 -6 -121.5s19 -25.834 43 -24.501c44 0.666992 93.333 31.667 148 93z"/>
            <glyph glyph-name="adieresis" unicode="&#xe4;" horiz-adv-x="590"
                   d="M279 580h-54c-20.667 0 -29.667 10 -27 30l9 62c2.66699 21.333 14.667 32 36 32h50c22.667 0 32 -10.333 28 -31l-10 -63c-2 -20 -12.667 -30 -32 -30zM454 580h-54c-21.333 0 -30.333 10 -27 30l9 63c4 20.667 15.667 31 35 31h51c22.667 0 32 -10.333 28 -31l-10 -63
c-2 -20 -12.667 -30 -32 -30zM490 0h-114.998l1 89c-50.667 -65.333 -118 -99 -202 -101c-62 -2 -103.833 18.167 -125.5 60.5s-25.5 111.5 -11.5 207.5c6.66699 45.333 16 83.5 28 114.5s25.333 55.5 40 73.5s33.667 31.667 57 41s45.833 15.333 67.5 18s49.167 4 82.5 4
c35.333 0 77.666 -3 126.999 -9s88.666 -13 117.999 -21zM399.002 398l-76 0.00195312c-48 0 -80.667 -8.33301 -98 -25s-30.333 -56.334 -39 -119.001c-8.66699 -63.333 -10.667 -103.833 -6 -121.5s19 -25.834 43 -24.501c44 0.666992 93.333 31.667 148 93z"/>
            <glyph glyph-name="aring" unicode="&#xe5;" horiz-adv-x="590"
                   d="M343 532c-35.333 0 -63.833 11.334 -85.5 34.001s-30.167 51 -25.5 85c3.33301 30 15.833 55.5 37.5 76.5s49.5 31.5 83.5 31.5c35.333 0 64 -11.333 86 -34s31 -51 27 -85c-4 -30.667 -17 -56.334 -39 -77.001s-50 -31 -84 -31zM299 647.001
c-2 -16.667 1.50098 -29.667 10.501 -39s20.833 -14 35.5 -14c15.333 0 27.833 5 37.5 15s15.167 23 16.5 39c1.33301 14.667 -2.5 26.5 -11.5 35.5s-20.833 13.5 -35.5 13.5s-26.834 -4.66699 -36.501 -14s-15.167 -21.333 -16.5 -36zM490.001 0.000976562h-114.998l1 89
c-50.667 -65.333 -118 -99 -202 -101c-62 -2 -103.833 18.167 -125.5 60.5s-25.5 111.5 -11.5 207.5c6.66699 45.333 16 83.5 28 114.5s25.333 55.5 40 73.5s33.667 31.667 57 41s45.833 15.333 67.5 18s49.167 4 82.5 4c35.333 0 77.666 -3 126.999 -9
s88.666 -13 117.999 -21zM399.003 398.001l-76 0.00195312c-48 0 -80.667 -8.33301 -98 -25s-30.333 -56.334 -39 -119.001c-8.66699 -63.333 -10.667 -103.833 -6 -121.5s19 -25.834 43 -24.501c44 0.666992 93.333 31.667 148 93z"/>
            <glyph glyph-name="ae" unicode="&#xe6;" horiz-adv-x="891"
                   d="M800 117l8.99805 -94.002c-52.667 -23.333 -123 -35 -211 -35c-116 0 -188.667 36 -218 108c-51.333 -70 -120 -106 -206 -108c-62 -2 -103.667 18.167 -125 60.5s-25.333 111.5 -12 207.5c6 45.333 14.833 83.5 26.5 114.5s24.167 55.333 37.5 73
s30.833 31.334 52.5 41.001s42.5 15.834 62.5 18.501s45.667 4 77 4c76 0 148 -6.66699 216 -20c36 13.333 83.667 20 143 20c86 0 144.5 -14.333 175.5 -43s42.833 -71 35.5 -127c-7.33301 -46.667 -26.5 -80 -57.5 -100s-78.833 -32.333 -143.5 -37l-147 -12
c0.666992 -32.667 8.83398 -54.5 24.501 -65.5s40.834 -16.5 75.501 -16.5c63.333 0 125 3.66699 185 11zM522.998 275.998l116.001 11c26.667 2 46 7.33301 58 16s19.333 24.667 22 48c2.66699 22 -1.33301 35.667 -12 41s-32.334 7.66602 -65.001 6.99902
c-38.667 0 -66 -8.16699 -82 -24.5s-28.333 -49.166 -37 -98.499zM223.999 107.998c42 0 88.668 29 140.001 87c0 12 1.33301 32.667 4 62c8 60 20.667 106.667 38 140l-84 1c-48 0 -80.167 -8.16699 -96.5 -24.5s-28.833 -56.166 -37.5 -119.499
s-10.834 -103.833 -6.50098 -121.5s18.5 -25.834 42.5 -24.501z"/>
            <glyph glyph-name="ccedilla" unicode="&#xe7;" horiz-adv-x="507"
                   d="M435 117l10 -97c-50.667 -21.333 -114.667 -32 -192 -32c-89.333 0 -151.666 20.667 -186.999 62s-46.333 109 -33 203c13.333 92.667 40 158.167 80 196.5s104 57.5 192 57.5c78 0 141 -10.667 189 -32l-20 -90c-77.333 1.33301 -127 2 -149 2
c-46 0 -78.833 -9.5 -98.5 -28.5s-32.834 -56.5 -39.501 -112.5c-7.33301 -58 -4.83301 -95.5 7.5 -112.5s40.5 -25.5 84.5 -25.5c62 0 114 3 156 9zM152 -108l14.998 58c52.667 6 90.334 4.33301 113.001 -5s31.334 -31 26.001 -65c-8 -48 -32 -83.5 -72 -106.5
s-87.667 -30.5 -143 -22.5l21 64c24.667 -0.666992 46 4 64 14s29 24.667 33 44c1.33301 8 -1.16699 13.167 -7.5 15.5s-22.833 3.5 -49.5 3.5z"/>
            <glyph glyph-name="egrave" unicode="&#xe8;" horiz-adv-x="560"
                   d="M357 541l-221 113l66 98l204 -149zM472 117l9.99609 -94c-55.333 -23.333 -127.666 -35 -216.999 -35c-94 0 -158.667 22 -194 66s-47.666 111.667 -36.999 203c12 96 39.333 161.667 82 197s110.667 53 204 53c86.667 0 145.5 -14.333 176.5 -43s42.5 -71 34.5 -127
c-6.66699 -46.667 -25.667 -80 -57 -100s-79.666 -32.333 -144.999 -37l-146 -11c0.666992 -32.667 8.83398 -54.667 24.501 -66s40.5 -17 74.5 -17c64.667 0 128 3.66699 190 11zM191.996 276l115.001 11c26.667 2 46.167 7.33301 58.5 16s19.833 24.667 22.5 48
c2 22 -2.16699 35.667 -12.5 41s-32.166 7.66602 -65.499 6.99902c-38.667 0 -65.834 -8.16699 -81.501 -24.5s-27.834 -49.166 -36.501 -98.499z"/>
            <glyph glyph-name="eacute" unicode="&#xe9;" horiz-adv-x="560"
                   d="M288 541l-37 63l219 150l56 -107zM472 117l9.99609 -94c-55.333 -23.333 -127.666 -35 -216.999 -35c-94 0 -158.667 22 -194 66s-47.666 111.667 -36.999 203c12 96 39.333 161.667 82 197s110.667 53 204 53c86.667 0 145.5 -14.333 176.5 -43s42.5 -71 34.5 -127
c-6.66699 -46.667 -25.667 -80 -57 -100s-79.666 -32.333 -144.999 -37l-146 -11c0.666992 -32.667 8.83398 -54.667 24.501 -66s40.5 -17 74.5 -17c64.667 0 128 3.66699 190 11zM191.996 276l115.001 11c26.667 2 46.167 7.33301 58.5 16s19.833 24.667 22.5 48
c2 22 -2.16699 35.667 -12.5 41s-32.166 7.66602 -65.499 6.99902c-38.667 0 -65.834 -8.16699 -81.501 -24.5s-27.834 -49.166 -36.501 -98.499z"/>
            <glyph glyph-name="ecircumflex" unicode="&#xea;" horiz-adv-x="560"
                   d="M183 540l-37 56l148 133h101l127 -139l-45 -52l-131 99h-8zM472 117l9.99609 -94c-55.333 -23.333 -127.666 -35 -216.999 -35c-94 0 -158.667 22 -194 66s-47.666 111.667 -36.999 203c12 96 39.333 161.667 82 197s110.667 53 204 53c86.667 0 145.5 -14.333 176.5 -43
s42.5 -71 34.5 -127c-6.66699 -46.667 -25.667 -80 -57 -100s-79.666 -32.333 -144.999 -37l-146 -11c0.666992 -32.667 8.83398 -54.667 24.501 -66s40.5 -17 74.5 -17c64.667 0 128 3.66699 190 11zM191.996 276l115.001 11c26.667 2 46.167 7.33301 58.5 16
s19.833 24.667 22.5 48c2 22 -2.16699 35.667 -12.5 41s-32.166 7.66602 -65.499 6.99902c-38.667 0 -65.834 -8.16699 -81.501 -24.5s-27.834 -49.166 -36.501 -98.499z"/>
            <glyph glyph-name="edieresis" unicode="&#xeb;" horiz-adv-x="560"
                   d="M271 580h-52.999c-20.667 0 -30 10 -28 30l10 62c2.66699 21.333 14.667 32 36 32h50c21.333 0 30.666 -10.333 27.999 -31l-10 -63c-2 -20 -13 -30 -33 -30zM446.001 580h-53c-20.667 0 -30 10 -28 30l10 63c2.66699 20.667 14.334 31 35.001 31h51
c21.333 0 30.666 -10.333 27.999 -31l-10 -63c-2 -20 -13 -30 -33 -30zM472.001 117l9.99609 -94c-55.333 -23.333 -127.666 -35 -216.999 -35c-94 0 -158.667 22 -194 66s-47.666 111.667 -36.999 203c12 96 39.333 161.667 82 197s110.667 53 204 53
c86.667 0 145.5 -14.333 176.5 -43s42.5 -71 34.5 -127c-6.66699 -46.667 -25.667 -80 -57 -100s-79.666 -32.333 -144.999 -37l-146 -11c0.666992 -32.667 8.83398 -54.667 24.501 -66s40.5 -17 74.5 -17c64.667 0 128 3.66699 190 11zM191.997 276l115.001 11
c26.667 2 46.167 7.33301 58.5 16s19.833 24.667 22.5 48c2 22 -2.16699 35.667 -12.5 41s-32.166 7.66602 -65.499 6.99902c-38.667 0 -65.834 -8.16699 -81.501 -24.5s-27.834 -49.166 -36.501 -98.499z"/>
            <glyph glyph-name="igrave" unicode="&#xec;" horiz-adv-x="276"
                   d="M251 603l-49 -62l-221 113l66 98zM171 0h-148l69 493h148z"/>
            <glyph glyph-name="iacute" unicode="&#xed;" horiz-adv-x="276"
                   d="M371 647l-237 -106l-38 63l219 150zM171 0h-148l69 493h148z"/>
            <glyph glyph-name="icircumflex" unicode="&#xee;" horiz-adv-x="276"
                   d="M368 590l-46 -52l-131 99h-8l-155 -97l-37 56l148 133h101zM171 0h-148l69 493h148z"/>
            <glyph glyph-name="idieresis" unicode="&#xef;" horiz-adv-x="276"
                   d="M255 704h51.001c21.333 0 30.666 -10.333 27.999 -31l-10 -63c-2 -20 -12.667 -30 -32 -30h-54c-20.667 0 -30 10 -28 30l10 63c4 20.667 15.667 31 35 31zM81.001 704h50.001c21.333 0 30.666 -10.333 27.999 -31l-10 -63c-2 -20 -12.667 -30 -32 -30h-54
c-20.667 0 -30 10 -28 30l10 62c2.66699 21.333 14.667 32 36 32zM171.002 0h-148l69 493h148z"/>
            <glyph glyph-name="eth" unicode="&#xf0;" horiz-adv-x="576"
                   d="M564 660l-80.9971 -69.002c48 -68 63.667 -171.333 47 -310c-13.333 -103.333 -42 -178.166 -86 -224.499s-111 -69.5 -201 -69.5c-162.667 0 -233.667 78.333 -213 235c10 76.667 33.667 134 71 172s90.666 57 159.999 57c52 0 93.667 -12.333 125 -37
c-0.666992 74 -17.834 124.333 -51.501 151s-88.5 38.334 -164.5 35.001l19 98c87.333 4 157.666 -7.66699 210.999 -35l93 81zM252.003 97.998c38.667 0 66.833 14.167 84.5 42.5s31.5 79.5 41.5 153.5l3 29c-24.667 14 -51.667 21 -81 21c-36.667 0 -63.5 -10 -80.5 -30
s-28.833 -52.333 -35.5 -97s-5 -75.667 5 -93s31 -26 63 -26z"/>
            <glyph glyph-name="ntilde" unicode="&#xf1;" horiz-adv-x="596"
                   d="M467 714l62 -5.99902c0.666992 -46 -7.33301 -80.667 -24 -104s-39 -34.333 -67 -33c-24.667 1.33301 -54.167 9.5 -88.5 24.5s-56.166 23.167 -65.499 24.5c-17.333 2.66699 -29.833 0 -37.5 -8s-12.834 -21.333 -15.501 -40l-62 5c0 47.333 8.66699 82.666 26 105.999
s39.666 34.333 66.999 33c22 -1.33301 49.667 -9.16602 83 -23.499s56 -22.5 68 -24.5c18 -2.66699 30.833 -0.333984 38.5 6.99902s12.834 20.333 15.501 39zM204 493.001v-97.998c76.667 74.667 151.667 112 225 112c42 0 74.333 -12.167 97 -36.5
s30.667 -58.833 24 -103.5l-52 -367h-147l45 323c3.33301 23.333 2.66602 39.166 -2.00098 47.499s-15 12.166 -31 11.499c-37.333 -0.666992 -88.666 -26.667 -153.999 -78l-42 -304h-148l69 493h116z"/>
            <glyph glyph-name="ograve" unicode="&#xf2;" horiz-adv-x="586"
                   d="M408 603l-49 -62l-221 113l66 98zM315 507c91.333 0 154.999 -20.667 190.999 -62s47.333 -109.666 34 -204.999c-12.667 -92.667 -40.167 -158 -82.5 -196s-108.166 -57 -197.499 -57c-90.667 0 -154.5 20.667 -191.5 62s-48.833 109 -35.5 203
c13.333 93.333 41 159.166 83 197.499s108.333 57.5 199 57.5zM313.999 396c-40.667 0 -69.834 -10.3311 -87.501 -30.998s-30.834 -62.334 -39.501 -125.001c-8 -57.333 -7 -95.333 3 -114s34.333 -28 73 -28c40 0 68.667 10.5 86 31.5s30.333 61.833 39 122.5
c8.66699 57.333 7.83398 95.666 -2.49902 114.999s-34.166 29 -71.499 29z"/>
            <glyph glyph-name="oacute" unicode="&#xf3;" horiz-adv-x="586"
                   d="M528 647l-238 -106l-37 63l219 150zM315 507c91.333 0 154.999 -20.667 190.999 -62s47.333 -109.666 34 -204.999c-12.667 -92.667 -40.167 -158 -82.5 -196s-108.166 -57 -197.499 -57c-90.667 0 -154.5 20.667 -191.5 62s-48.833 109 -35.5 203
c13.333 93.333 41 159.166 83 197.499s108.333 57.5 199 57.5zM313.999 396c-40.667 0 -69.834 -10.3311 -87.501 -30.998s-30.834 -62.334 -39.501 -125.001c-8 -57.333 -7 -95.333 3 -114s34.333 -28 73 -28c40 0 68.667 10.5 86 31.5s30.333 61.833 39 122.5
c8.66699 57.333 7.83398 95.666 -2.49902 114.999s-34.166 29 -71.499 29z"/>
            <glyph glyph-name="ocircumflex" unicode="&#xf4;" horiz-adv-x="586"
                   d="M524 590l-45 -52l-131 99h-8l-155 -97l-37 56l148 133h101zM315 507c91.333 0 154.999 -20.667 190.999 -62s47.333 -109.666 34 -204.999c-12.667 -92.667 -40.167 -158 -82.5 -196s-108.166 -57 -197.499 -57c-90.667 0 -154.5 20.667 -191.5 62s-48.833 109 -35.5 203
c13.333 93.333 41 159.166 83 197.499s108.333 57.5 199 57.5zM313.999 396c-40.667 0 -69.834 -10.3311 -87.501 -30.998s-30.834 -62.334 -39.501 -125.001c-8 -57.333 -7 -95.333 3 -114s34.333 -28 73 -28c40 0 68.667 10.5 86 31.5s30.333 61.833 39 122.5
c8.66699 57.333 7.83398 95.666 -2.49902 114.999s-34.166 29 -71.499 29z"/>
            <glyph glyph-name="otilde" unicode="&#xf5;" horiz-adv-x="586"
                   d="M222 572l-63.002 4.99707c0 46.667 8.83301 81.834 26.5 105.501s40.167 34.834 67.5 33.501c22 -1.33301 49.667 -9.16602 83 -23.499s56 -22.5 68 -24.5c17.333 -2.66699 30 -0.166992 38 7.5s13.333 20.5 16 38.5l62 -6c0.666992 -46 -7.5 -80.667 -24.5 -104
s-39.5 -34.333 -67.5 -33c-24.667 1.33301 -54.167 9.5 -88.5 24.5s-56.166 23.167 -65.499 24.5c-17.333 2.66699 -29.666 0 -36.999 -8s-12.333 -21.333 -15 -40zM314.998 506.997c91.333 0 154.999 -20.667 190.999 -62s47.333 -109.666 34 -204.999
c-12.667 -92.667 -40.167 -158 -82.5 -196s-108.166 -57 -197.499 -57c-90.667 0 -154.5 20.667 -191.5 62s-48.833 109 -35.5 203c13.333 93.333 41 159.166 83 197.499s108.333 57.5 199 57.5zM313.997 395.997c-40.667 0 -69.834 -10.3311 -87.501 -30.998
s-30.834 -62.334 -39.501 -125.001c-8 -57.333 -7 -95.333 3 -114s34.333 -28 73 -28c40 0 68.667 10.5 86 31.5s30.333 61.833 39 122.5c8.66699 57.333 7.83398 95.666 -2.49902 114.999s-34.166 29 -71.499 29z"/>
            <glyph glyph-name="odieresis" unicode="&#xf6;" horiz-adv-x="586"
                   d="M412 704h51c21.333 0 30.666 -10.333 27.999 -31l-10 -63c-2 -20 -13 -30 -33 -30h-53c-20.667 0 -30 10 -28 30l10 63c2.66699 20.667 14.334 31 35.001 31zM238 704h50.001c21.333 0 30.666 -10.333 27.999 -31l-10 -63c-2 -20 -13 -30 -33 -30h-53
c-20.667 0 -30 10 -28 30l10 62c2.66699 21.333 14.667 32 36 32zM315.001 507c91.333 0 154.999 -20.667 190.999 -62s47.333 -109.666 34 -204.999c-12.667 -92.667 -40.167 -158 -82.5 -196s-108.166 -57 -197.499 -57c-90.667 0 -154.5 20.667 -191.5 62
s-48.833 109 -35.5 203c13.333 93.333 41 159.166 83 197.499s108.333 57.5 199 57.5zM314 396c-40.667 0 -69.834 -10.3311 -87.501 -30.998s-30.834 -62.334 -39.501 -125.001c-8 -57.333 -7 -95.333 3 -114s34.333 -28 73 -28c40 0 68.667 10.5 86 31.5
s30.333 61.833 39 122.5c8.66699 57.333 7.83398 95.666 -2.49902 114.999s-34.166 29 -71.499 29z"/>
            <glyph glyph-name="divide" unicode="&#xf7;" horiz-adv-x="547"
                   d="M291 552h32c21.333 0 36 -4.33301 44 -13s10.667 -23.334 8 -44.001l-4 -32c-3.33301 -20 -9.5 -34 -18.5 -42s-23.5 -12 -43.5 -12h-34c-21.333 0 -36 4.33301 -44 13s-10.667 23.334 -8 44.001l5 32c2.66699 20 8.66699 34 18 42s24.333 12 45 12zM495 239h-458l16 109
h458zM237 176l31.999 0.000976562c21.333 0 36 -4.33301 44 -13s10.667 -23.334 8 -44.001l-5 -33c-2.66699 -20 -8.5 -33.833 -17.5 -41.5s-23.5 -11.5 -43.5 -11.5h-34c-21.333 0 -36 4.5 -44 13.5s-10.333 23.833 -7 44.5l4 31c2.66699 20 8.83398 34 18.501 42
s24.5 12 44.5 12z"/>
            <glyph glyph-name="oslash" unicode="&#xf8;" horiz-adv-x="586"
                   d="M539 543l-51 -81c50 -40.667 67.333 -114.667 52 -222c-12.667 -92.667 -40.167 -158 -82.5 -196s-108.166 -57 -197.499 -57c-24 0 -44 1.33301 -60 4l-58 -93l-94 51l47 76c-56.667 38.667 -77.334 114.334 -62.001 227.001c13.333 93.333 41 159.166 83 197.499
s108.333 57.5 199 57.5c23.333 0 47.333 -1.66699 72 -5l57 93zM388 252c8.66699 57.333 7.83398 95.668 -2.49902 115.001s-34.166 29 -71.499 29c-40.667 0 -69.834 -10.333 -87.501 -31s-30.834 -62.334 -39.501 -125.001c-8 -57.333 -7 -95.333 3 -114
s34.333 -28 73 -28c40 0 68.667 10.5 86 31.5s30.333 61.833 39 122.5z"/>
            <glyph glyph-name="ugrave" unicode="&#xf9;" horiz-adv-x="587"
                   d="M362 548l-221 114l66 97l204 -148zM555 493l-67.999 -493h-114v93c-73.333 -70.667 -144.333 -106 -213 -106c-47.333 0 -81.833 12.333 -103.5 37s-29.167 58.667 -22.5 102l51 367h148l-47 -327c-2.66699 -20 -1.16699 -34.167 4.5 -42.5s16.5 -12.5 32.5 -12.5
c21.333 0 42.166 5.66699 62.499 17s47.5 31.333 81.5 60l42 305h146z"/>
            <glyph glyph-name="uacute" unicode="&#xfa;" horiz-adv-x="587"
                   d="M294 548l-38 63l219 151l56 -108zM555 493l-67.999 -493h-114v93c-73.333 -70.667 -144.333 -106 -213 -106c-47.333 0 -81.833 12.333 -103.5 37s-29.167 58.667 -22.5 102l51 367h148l-47 -327c-2.66699 -20 -1.16699 -34.167 4.5 -42.5s16.5 -12.5 32.5 -12.5
c21.333 0 42.166 5.66699 62.499 17s47.5 31.333 81.5 60l42 305h146z"/>
            <glyph glyph-name="ucircumflex" unicode="&#xfb;" horiz-adv-x="587"
                   d="M188 547l-37 57l148 133h101l128 -139l-46 -52l-131 98h-8zM555 493l-67.999 -493h-114v93c-73.333 -70.667 -144.333 -106 -213 -106c-47.333 0 -81.833 12.333 -103.5 37s-29.167 58.667 -22.5 102l51 367h148l-47 -327c-2.66699 -20 -1.16699 -34.167 4.5 -42.5
s16.5 -12.5 32.5 -12.5c21.333 0 42.166 5.66699 62.499 17s47.5 31.333 81.5 60l42 305h146z"/>
            <glyph glyph-name="udieresis" unicode="&#xfc;" horiz-adv-x="587"
                   d="M452 588h-53.999c-20.667 0 -30 9.66699 -28 29l10 63c4 20.667 15.667 31 35 31h51c21.333 0 30.666 -10 27.999 -30l-10 -63c-2 -20 -12.667 -30 -32 -30zM277.001 588h-53.999c-20.667 0 -30 9.66699 -28 29l10 63c2.66699 20.667 14.667 31 36 31h50
c21.333 0 30.666 -10 27.999 -30l-10 -64c-2 -19.333 -12.667 -29 -32 -29zM555.002 493l-67.999 -493h-114v93c-73.333 -70.667 -144.333 -106 -213 -106c-47.333 0 -81.833 12.333 -103.5 37s-29.167 58.667 -22.5 102l51 367h148l-47 -327
c-2.66699 -20 -1.16699 -34.167 4.5 -42.5s16.5 -12.5 32.5 -12.5c21.333 0 42.166 5.66699 62.499 17s47.5 31.333 81.5 60l42 305h146z"/>
            <glyph glyph-name="yacute" unicode="&#xfd;"
                   d="M272 541l-37 63l218 150l56 -107zM417 493h156.001c-14 -76 -34.833 -153.5 -62.5 -232.5s-56.834 -146.833 -87.501 -203.5c-50 -90.667 -103.5 -155.5 -160.5 -194.5s-124.833 -61.5 -203.5 -67.5l-18 91c46 12 83.5 25.5 112.5 40.5s56.833 39.5 83.5 73.5h-59
c-16 0 -29.5 4.66699 -40.5 14s-18.167 21.333 -21.5 36l-81 443h159l47 -377c1.33301 -10.667 7 -16 17 -16h40l4 9c52.667 109.333 91 237.333 115 384z"/>
            <glyph glyph-name="thorn" unicode="&#xfe;" horiz-adv-x="592"
                   d="M222 436l2 -7c52 50.667 112.333 76 181 76c58.667 0 99.5 -20.333 122.5 -61s28.167 -109.667 15.5 -207c-6.66699 -50.667 -16.667 -93 -30 -127s-30.333 -59.667 -51 -77s-42.167 -29.333 -64.5 -36s-48.833 -10 -79.5 -10c-53.333 0 -104.333 4 -153 12
c-2.66699 -32 -5.66699 -56 -9 -72l-16 -117h-147l124 890h148l-19 -138c-7.33301 -52.667 -15.333 -94.667 -24 -126zM180 92l77 -0.999023c49.333 0 82 8.5 98 25.5s28.333 57.833 37 122.5c8 59.333 9.66699 98.666 5 117.999s-19 29 -43 29
c-26.667 0 -51.167 -7.83301 -73.5 -23.5s-46.833 -39.167 -73.5 -70.5z"/>
            <glyph glyph-name="ydieresis" unicode="&#xff;"
                   d="M430 580h-54c-21.333 0 -30.333 10 -27 30l10 63c2.66699 20.667 14 31 34 31h51c22.667 0 32 -10.333 28 -31l-9 -63c-2.66699 -20 -13.667 -30 -33 -30zM255 580h-53.001c-21.333 0 -30.666 10 -27.999 30l10 62c2.66699 21.333 14.667 32 36 32h49
c22.667 0 32 -10.333 28 -31l-9 -63c-2.66699 -20 -13.667 -30 -33 -30zM416.999 493h156.001c-14 -76 -34.833 -153.5 -62.5 -232.5s-56.834 -146.833 -87.501 -203.5c-50 -90.667 -103.5 -155.5 -160.5 -194.5s-124.833 -61.5 -203.5 -67.5l-18 91
c46 12 83.5 25.5 112.5 40.5s56.833 39.5 83.5 73.5h-59c-16 0 -29.5 4.66699 -40.5 14s-18.167 21.333 -21.5 36l-81 443h159l47 -377c1.33301 -10.667 7 -16 17 -16h40l4 9c52.667 109.333 91 237.333 115 384z"/>
            <glyph glyph-name="Amacron" unicode="&#x100;" horiz-adv-x="647"
                   d="M540 776h-299l14 96h299zM432 180h-238.001l-74 -180h-159l290 653c9.33301 24.667 27.666 37 54.999 37h144c12.667 0 23.834 -4.16699 33.501 -12.5s14.834 -18.5 15.501 -30.5l108 -647h-152zM415.999 301l-27 209c-2 14.667 -3.66699 37 -5 67h-29
c-12 -34 -20 -56 -24 -66l-87 -210h172z"/>
            <glyph glyph-name="amacron" unicode="&#x101;" horiz-adv-x="590"
                   d="M489 594h-299l13 95h299zM490 0h-114.998l1 89c-50.667 -65.333 -118 -99 -202 -101c-62 -2 -103.833 18.167 -125.5 60.5s-25.5 111.5 -11.5 207.5c6.66699 45.333 16 83.5 28 114.5s25.333 55.5 40 73.5s33.667 31.667 57 41s45.833 15.333 67.5 18s49.167 4 82.5 4
c35.333 0 77.666 -3 126.999 -9s88.666 -13 117.999 -21zM399.002 398l-76 0.00195312c-48 0 -80.667 -8.33301 -98 -25s-30.333 -56.334 -39 -119.001c-8.66699 -63.333 -10.667 -103.833 -6 -121.5s19 -25.834 43 -24.501c44 0.666992 93.333 31.667 148 93z"/>
            <glyph glyph-name="Abreve" unicode="&#x102;" horiz-adv-x="647"
                   d="M503 902l68.998 -13c-1.33301 -43.333 -18.166 -79 -50.499 -107s-75.166 -42 -128.499 -42c-55.333 0 -97 15.167 -125 45.5s-36 66.5 -24 108.5l71 4c-3.33301 -20.667 2 -36 16 -46s35.667 -15 65 -15c66 0 101.667 21.667 107 65zM431.998 180h-238.001l-74 -180
h-159l290 653c9.33301 24.667 27.666 37 54.999 37h144c12.667 0 23.834 -4.16699 33.501 -12.5s14.834 -18.5 15.501 -30.5l108 -647h-152zM415.997 301l-27 209c-2 14.667 -3.66699 37 -5 67h-29c-12 -34 -20 -56 -24 -66l-87 -210h172z"/>
            <glyph glyph-name="abreve" unicode="&#x103;" horiz-adv-x="590"
                   d="M451 719l69 -13c-1.33301 -42.667 -18.166 -78 -50.499 -106s-74.833 -42 -127.5 -42c-55.333 0 -97 15 -125 45s-36.333 66.333 -25 109l71 4c-2.66699 -21.333 3 -37 17 -47s35.667 -15 65 -15c65.333 0 100.666 21.667 105.999 65zM490 0h-114.998l1 89
c-50.667 -65.333 -118 -99 -202 -101c-62 -2 -103.833 18.167 -125.5 60.5s-25.5 111.5 -11.5 207.5c6.66699 45.333 16 83.5 28 114.5s25.333 55.5 40 73.5s33.667 31.667 57 41s45.833 15.333 67.5 18s49.167 4 82.5 4c35.333 0 77.666 -3 126.999 -9
s88.666 -13 117.999 -21zM399.002 398l-76 0.00195312c-48 0 -80.667 -8.33301 -98 -25s-30.333 -56.334 -39 -119.001c-8.66699 -63.333 -10.667 -103.833 -6 -121.5s19 -25.834 43 -24.501c44 0.666992 93.333 31.667 148 93z"/>
            <glyph glyph-name="Aogonek" unicode="&#x104;" horiz-adv-x="647"
                   d="M499 647l109.001 -647.003c-28.667 -32 -52.667 -66.667 -72 -104c-9.33301 -17.333 -9.5 -28.5 -0.5 -33.5s25.5 -4.16699 49.5 2.5l14 -57c-29.333 -10.667 -55.833 -17.167 -79.5 -19.5s-42.5 -0.666016 -56.5 5.00098s-24.833 13.667 -32.5 24
s-11.334 22.333 -11.001 36s4.16602 27.834 11.499 42.501c17.333 34.667 52.333 69.334 105 104.001h-81l-23 180h-238l-74 -180h-159l290 653c9.33301 24.667 27.666 37 54.999 37h144c12.667 0 23.834 -4.16699 33.501 -12.5s14.834 -18.5 15.501 -30.5zM416.001 300.997
l-27 209c-2 14.667 -3.66699 37 -5 67h-29c-12 -34 -20 -56 -24 -66l-87 -210h172z"/>
            <glyph glyph-name="aogonek" unicode="&#x105;" horiz-adv-x="590"
                   d="M557 477l-66.9961 -477.003c-28.667 -32 -52.667 -66.667 -72 -104c-9.33301 -17.333 -9.5 -28.5 -0.5 -33.5s25.5 -4.16699 49.5 2.5l14 -57c-29.333 -10.667 -55.833 -17.167 -79.5 -19.5s-42.5 -0.666016 -56.5 5.00098s-24.833 13.667 -32.5 24
s-11.334 22.333 -11.001 36s4.16602 27.834 11.499 42.501c17.333 34.667 52.333 69.334 105 104.001h-43l1 89c-50.667 -65.333 -118 -99 -202 -101c-62 -2 -103.833 18.167 -125.5 60.5s-25.5 111.5 -11.5 207.5c6.66699 45.333 16 83.5 28 114.5s25.333 55.5 40 73.5
s33.667 31.667 57 41s45.833 15.333 67.5 18s49.167 4 82.5 4c35.333 0 77.666 -3 126.999 -9s88.666 -13 117.999 -21zM399.004 397.997l-76 0.00195312c-48 0 -80.667 -8.33301 -98 -25s-30.333 -56.334 -39 -119.001c-8.66699 -63.333 -10.667 -103.833 -6 -121.5
s19 -25.834 43 -24.501c44 0.666992 93.333 31.667 148 93z"/>
            <glyph glyph-name="Cacute" unicode="&#x106;" horiz-adv-x="583"
                   d="M588 830l-237 -107l-37 64l218 150zM516 129l6 -113.998c-60 -18 -133.333 -27 -220 -27c-106.667 0 -179.167 28.167 -217.5 84.5s-48.5 149.166 -30.5 278.499c18.667 133.333 52 225.166 100 275.499s125.333 75.5 232 75.5c76.667 0 145.334 -8 206.001 -24l-20 -113
c-54 3.33301 -118 5 -192 5c-35.333 0 -63 -5.66699 -83 -17s-36.833 -33.5 -50.5 -66.5s-24.834 -82.167 -33.501 -147.5c-12 -86 -11.667 -144 1 -174s43.667 -45 93 -45c79.333 -0.666992 149 2.33301 209 9z"/>
            <glyph glyph-name="cacute" unicode="&#x107;" horiz-adv-x="507"
                   d="M508 647l-237 -106l-38 63l219 150zM435 117l10 -97c-50.667 -21.333 -114.667 -32 -192 -32c-89.333 0 -151.666 20.667 -186.999 62s-46.333 109 -33 203c13.333 92.667 40 158.167 80 196.5s104 57.5 192 57.5c78 0 141 -10.667 189 -32l-20 -90
c-77.333 1.33301 -127 2 -149 2c-46 0 -78.833 -9.5 -98.5 -28.5s-32.834 -56.5 -39.501 -112.5c-7.33301 -58 -4.83301 -95.5 7.5 -112.5s40.5 -25.5 84.5 -25.5c62 0 114 3 156 9z"/>
            <glyph glyph-name="Cdotaccent" unicode="&#x10a;" horiz-adv-x="583"
                   d="M385 887h44c13.333 0 23.833 -3.83301 31.5 -11.5s10.5 -18.167 8.5 -31.5l-6 -53c-4 -25.333 -18.333 -38 -43 -38h-46c-30 0 -43 14.667 -39 44l6 52c4 25.333 18.667 38 44 38zM516 129l6 -113.998c-60 -18 -133.333 -27 -220 -27
c-106.667 0 -179.167 28.167 -217.5 84.5s-48.5 149.166 -30.5 278.499c18.667 133.333 52 225.166 100 275.499s125.333 75.5 232 75.5c76.667 0 145.334 -8 206.001 -24l-20 -113c-54 3.33301 -118 5 -192 5c-35.333 0 -63 -5.66699 -83 -17s-36.833 -33.5 -50.5 -66.5
s-24.834 -82.167 -33.501 -147.5c-12 -86 -11.667 -144 1 -174s43.667 -45 93 -45c79.333 -0.666992 149 2.33301 209 9z"/>
            <glyph glyph-name="cdotaccent" unicode="&#x10b;" horiz-adv-x="507"
                   d="M305 704h43.999c13.333 0 23.833 -3.83301 31.5 -11.5s10.5 -18.167 8.5 -31.5l-7 -53c-3.33301 -25.333 -17.666 -38 -42.999 -38h-45c-14.667 0 -25.5 3.83301 -32.5 11.5s-9.16699 18.5 -6.5 32.5l6 52c4 25.333 18.667 38 44 38zM434.999 117l10 -97
c-50.667 -21.333 -114.667 -32 -192 -32c-89.333 0 -151.666 20.667 -186.999 62s-46.333 109 -33 203c13.333 92.667 40 158.167 80 196.5s104 57.5 192 57.5c78 0 141 -10.667 189 -32l-20 -90c-77.333 1.33301 -127 2 -149 2c-46 0 -78.833 -9.5 -98.5 -28.5
s-32.834 -56.5 -39.501 -112.5c-7.33301 -58 -4.83301 -95.5 7.5 -112.5s40.5 -25.5 84.5 -25.5c62 0 114 3 156 9z"/>
            <glyph glyph-name="Ccaron" unicode="&#x10c;" horiz-adv-x="583"
                   d="M593 871l-160 -131h-80l-134 140l49 50l126 -92h8l156 90zM516 129l6 -113.998c-60 -18 -133.333 -27 -220 -27c-106.667 0 -179.167 28.167 -217.5 84.5s-48.5 149.166 -30.5 278.499c18.667 133.333 52 225.166 100 275.499s125.333 75.5 232 75.5
c76.667 0 145.334 -8 206.001 -24l-20 -113c-54 3.33301 -118 5 -192 5c-35.333 0 -63 -5.66699 -83 -17s-36.833 -33.5 -50.5 -66.5s-24.834 -82.167 -33.501 -147.5c-12 -86 -11.667 -144 1 -174s43.667 -45 93 -45c79.333 -0.666992 149 2.33301 209 9z"/>
            <glyph glyph-name="ccaron" unicode="&#x10d;" horiz-adv-x="507"
                   d="M513 688l-160 -131h-80l-134 140l49 50l125 -92h8l157 90zM435 117l10 -97c-50.667 -21.333 -114.667 -32 -192 -32c-89.333 0 -151.666 20.667 -186.999 62s-46.333 109 -33 203c13.333 92.667 40 158.167 80 196.5s104 57.5 192 57.5c78 0 141 -10.667 189 -32l-20 -90
c-77.333 1.33301 -127 2 -149 2c-46 0 -78.833 -9.5 -98.5 -28.5s-32.834 -56.5 -39.501 -112.5c-7.33301 -58 -4.83301 -95.5 7.5 -112.5s40.5 -25.5 84.5 -25.5c62 0 114 3 156 9z"/>
            <glyph glyph-name="Dcaron" unicode="&#x10e;" horiz-adv-x="678"
                   d="M349 739l-135 141l49 49l126 -92h8l156 91l35 -58l-160 -131h-79zM28 0l97 690c86.667 6 169 9 247 9c76 0 135 -10.667 177 -32s70.5 -58.333 85.5 -111s16.167 -125 3.5 -217c-10.667 -74.667 -24.167 -134.667 -40.5 -180s-39 -80.5 -68 -105.5
s-61.5 -41.667 -97.5 -50s-83.667 -12.5 -143 -12.5c-75.333 0 -162.333 3 -261 9zM262 579l-65.998 -466.999c11.333 0 27.333 -0.166992 48 -0.5s35 -0.5 43 -0.5c32 0 57.5 2.83301 76.5 8.5s36.5 17 52.5 34s28.5 41.167 37.5 72.5s17.167 73 24.5 125
c7.33301 50 11.166 89.333 11.499 118s-4 51.667 -13 69s-21.833 28.666 -38.5 33.999s-40.334 8 -71.001 8z"/>
            <glyph glyph-name="dcaron" unicode="&#x10f;" horiz-adv-x="592"
                   d="M442 700l148.001 0.000976562l-99 -700h-116v90c-66.667 -68 -135 -102 -205 -102c-55.333 0 -94.666 21 -117.999 63s-28.666 110.333 -15.999 205c7.33301 52.667 17.666 96 30.999 130s30.166 59.5 50.499 76.5s41.333 28.667 63 35s47.5 9.5 77.5 9.5
c52.667 0 105.667 -4.33301 159 -13c1.33301 41.333 3.66602 73.666 6.99902 96.999zM684.001 700.001l29.999 0.00195312c17.333 0 29.5 -3.33301 36.5 -10s9.16699 -18 6.5 -34l-8 -51c-7.33301 -50 -29.666 -98.333 -66.999 -145l-59 18
c16 39.333 27.667 73.666 35 102.999c-14 -0.666992 -24 2.16602 -30 8.49902s-8.33301 15.833 -7 28.5l7 42c2.66699 15.333 8.16699 25.833 16.5 31.5s21.5 8.5 39.5 8.5zM399 403.003l-79 -0.000976562c-48.667 0 -81 -8.5 -97 -25.5s-28.333 -58.167 -37 -123.5
c-8 -55.333 -9.66699 -92.833 -5 -112.5s19 -29.167 43 -28.5s46.833 6.83398 68.5 18.501s47.167 30.5 76.5 56.5z"/>
            <glyph glyph-name="Dcroat" unicode="&#x110;" horiz-adv-x="678"
                   d="M85 402l40 288c86.667 6 169 9 247 9c76 0 135 -10.667 177 -32s70.5 -58.333 85.5 -111s16.167 -125 3.5 -217c-10.667 -74.667 -24.167 -134.667 -40.5 -180s-39 -80.5 -68 -105.5s-61.5 -41.667 -97.5 -50s-83.667 -12.5 -143 -12.5c-75.333 0 -162.333 3 -261 9
l46 326h-55l10 76h56zM226 326l-29.998 -213.999c11.333 0 27.333 -0.166992 48 -0.5s35 -0.5 43 -0.5c32 0 57.5 2.83301 76.5 8.5s36.5 17 52.5 34s28.5 41.167 37.5 72.5s17.167 73 24.5 125c7.33301 50 11.166 89.333 11.499 118s-4 51.667 -13 69
s-21.833 28.666 -38.5 33.999s-40.334 8 -71.001 8l-105 -1l-25 -177h122l-10 -76h-123z"/>
            <glyph glyph-name="dcroat" unicode="&#x111;" horiz-adv-x="594"
                   d="M638 562h-68l-79 -562h-116v90c-66.667 -68 -135 -102 -205 -102c-55.333 0 -94.666 21 -117.999 63s-28.666 110.333 -15.999 205c7.33301 52.667 17.666 96 30.999 130s30.166 59.5 50.499 76.5s41.333 28.667 63 35s47.5 9.5 77.5 9.5
c52.667 0 105.667 -4.33301 159 -13c2 38 3.33301 60.667 4 68h-121l9 68h122l11 70h148l-10 -70h68zM399 403l-79 -0.000976562c-48.667 0 -81 -8.5 -97 -25.5s-28.333 -58.167 -37 -123.5c-8 -55.333 -9.66699 -92.833 -5 -112.5s19 -29.167 43 -28.5
s46.833 6.83398 68.5 18.501s47.167 30.5 76.5 56.5z"/>
            <glyph glyph-name="Emacron" unicode="&#x112;" horiz-adv-x="572"
                   d="M530 788h-299l13 95h300zM564 570l-257.999 0.00195312c-19.333 0 -33.166 -3.83301 -41.499 -11.5s-13.833 -21.834 -16.5 -42.501l-15 -104h272l-14 -108h-273l-18 -133c-2.66699 -18.667 -0.5 -31.834 6.5 -39.501s19.833 -11.5 38.5 -11.5h255l-4 -113
c-58.667 -6.66699 -158.334 -10 -299.001 -10c-56 0 -97 14.833 -123 44.5s-35.667 70.167 -29 121.5l55 394c6 42.667 23.167 76 51.5 100s66.166 36 113.499 36c145.333 0 251.333 -3.66699 318 -11z"/>
            <glyph glyph-name="emacron" unicode="&#x113;" horiz-adv-x="560"
                   d="M482 594h-300l14 95h299zM472 117l9.99609 -94c-55.333 -23.333 -127.666 -35 -216.999 -35c-94 0 -158.667 22 -194 66s-47.666 111.667 -36.999 203c12 96 39.333 161.667 82 197s110.667 53 204 53c86.667 0 145.5 -14.333 176.5 -43s42.5 -71 34.5 -127
c-6.66699 -46.667 -25.667 -80 -57 -100s-79.666 -32.333 -144.999 -37l-146 -11c0.666992 -32.667 8.83398 -54.667 24.501 -66s40.5 -17 74.5 -17c64.667 0 128 3.66699 190 11zM191.996 276l115.001 11c26.667 2 46.167 7.33301 58.5 16s19.833 24.667 22.5 48
c2 22 -2.16699 35.667 -12.5 41s-32.166 7.66602 -65.499 6.99902c-38.667 0 -65.834 -8.16699 -81.501 -24.5s-27.834 -49.166 -36.501 -98.499z"/>
            <glyph glyph-name="Edotaccent" unicode="&#x116;" horiz-adv-x="572"
                   d="M406 764h-45.002c-30.667 0 -44 14.667 -40 44l7 52c4 25.333 18.333 38 43 38h44c13.333 0 23.833 -3.83301 31.5 -11.5s10.834 -18.167 9.50098 -31.5l-7 -52c-3.33301 -26 -17.666 -39 -42.999 -39zM563.998 570l-257.999 0.00195312
c-19.333 0 -33.166 -3.83301 -41.499 -11.5s-13.833 -21.834 -16.5 -42.501l-15 -104h272l-14 -108h-273l-18 -133c-2.66699 -18.667 -0.5 -31.834 6.5 -39.501s19.833 -11.5 38.5 -11.5h255l-4 -113c-58.667 -6.66699 -158.334 -10 -299.001 -10
c-56 0 -97 14.833 -123 44.5s-35.667 70.167 -29 121.5l55 394c6 42.667 23.167 76 51.5 100s66.166 36 113.499 36c145.333 0 251.333 -3.66699 318 -11z"/>
            <glyph glyph-name="edotaccent" unicode="&#x117;" horiz-adv-x="560"
                   d="M357 570h-45.001c-30.667 0 -44 14.667 -40 44l7 52c4 25.333 18.667 38 44 38h43c14 0 24.667 -3.66699 32 -11s10.333 -18 9 -32l-7 -53c-3.33301 -25.333 -17.666 -38 -42.999 -38zM471.999 117l9.99609 -94c-55.333 -23.333 -127.666 -35 -216.999 -35
c-94 0 -158.667 22 -194 66s-47.666 111.667 -36.999 203c12 96 39.333 161.667 82 197s110.667 53 204 53c86.667 0 145.5 -14.333 176.5 -43s42.5 -71 34.5 -127c-6.66699 -46.667 -25.667 -80 -57 -100s-79.666 -32.333 -144.999 -37l-146 -11
c0.666992 -32.667 8.83398 -54.667 24.501 -66s40.5 -17 74.5 -17c64.667 0 128 3.66699 190 11zM191.995 276l115.001 11c26.667 2 46.167 7.33301 58.5 16s19.833 24.667 22.5 48c2 22 -2.16699 35.667 -12.5 41s-32.166 7.66602 -65.499 6.99902
c-38.667 0 -65.834 -8.16699 -81.501 -24.5s-27.834 -49.166 -36.501 -98.499z"/>
            <glyph glyph-name="Eogonek" unicode="&#x118;" horiz-adv-x="572"
                   d="M564 570h-257.999c-19.333 0 -33.166 -3.83301 -41.499 -11.5s-13.833 -21.834 -16.5 -42.501l-15 -104h272l-14 -108h-273l-18 -133c-2.66699 -18.667 -0.5 -31.834 6.5 -39.501s19.833 -11.5 38.5 -11.5h255l-4 -113c-29.333 -32 -53.333 -67 -72 -105
c-8.66699 -16.667 -8.66699 -27.667 0 -33s25.334 -4.33301 50.001 3l14 -57c-29.333 -10.667 -55.833 -17.167 -79.5 -19.5s-42.667 -0.666016 -57 5.00098s-25.333 13.667 -33 24s-11.334 22.333 -11.001 36s4.16602 27.834 11.499 42.501c18 33.333 50.333 66 97 98
c-48 -2.66699 -121 -4 -219 -4c-56 0 -97 14.833 -123 44.5s-35.667 70.167 -29 121.5l55 394c6 42.667 23.167 76 51.5 100s66.166 36 113.499 36c145.333 0 251.333 -3.66699 318 -11z"/>
            <glyph glyph-name="eogonek" unicode="&#x119;" horiz-adv-x="560"
                   d="M459 -112l13.998 -57.001c-29.333 -10.667 -55.833 -17.167 -79.5 -19.5s-42.667 -0.666016 -57 5.00098s-25.333 13.667 -33 24s-11.334 22.333 -11.001 36s4.16602 27.834 11.499 42.501c13.333 25.333 35.666 50.666 66.999 75.999c-34.667 -4.66699 -70 -7 -106 -7
c-94 0 -158.667 22 -194 66s-47.666 111.667 -36.999 203c12 96 39.333 161.667 82 197s110.667 53 204 53c86.667 0 145.5 -14.333 176.5 -43s42.5 -71 34.5 -127c-6.66699 -46.667 -25.667 -80 -57 -100s-79.666 -32.333 -144.999 -37l-146 -11
c0.666992 -32.667 8.83398 -54.667 24.501 -66s40.5 -17 74.5 -17c64.667 0 128 3.66699 190 11l10 -94c-25.333 -26 -49.666 -60.667 -72.999 -104c-8.66699 -17.333 -8.66699 -28.5 0 -33.5s25.334 -4.16699 50.001 2.5zM191.998 275.999l115.001 11
c26.667 2 46.167 7.33301 58.5 16s19.833 24.667 22.5 48c2 22 -2.16699 35.667 -12.5 41s-32.166 7.66602 -65.499 6.99902c-38.667 0 -65.834 -8.16699 -81.501 -24.5s-27.834 -49.166 -36.501 -98.499z"/>
            <glyph glyph-name="Ecaron" unicode="&#x11a;" horiz-adv-x="572"
                   d="M340 751l-135 140l49 50l126 -92h8l156 90l35 -57l-160 -131h-79zM564 570l-257.999 0.00195312c-19.333 0 -33.166 -3.83301 -41.499 -11.5s-13.833 -21.834 -16.5 -42.501l-15 -104h272l-14 -108h-273l-18 -133c-2.66699 -18.667 -0.5 -31.834 6.5 -39.501
s19.833 -11.5 38.5 -11.5h255l-4 -113c-58.667 -6.66699 -158.334 -10 -299.001 -10c-56 0 -97 14.833 -123 44.5s-35.667 70.167 -29 121.5l55 394c6 42.667 23.167 76 51.5 100s66.166 36 113.499 36c145.333 0 251.333 -3.66699 318 -11z"/>
            <glyph glyph-name="ecaron" unicode="&#x11b;" horiz-adv-x="560"
                   d="M291 557l-134 140l48 50l126 -92h8l157 90l35 -57l-160 -131h-80zM472 117l9.99609 -94c-55.333 -23.333 -127.666 -35 -216.999 -35c-94 0 -158.667 22 -194 66s-47.666 111.667 -36.999 203c12 96 39.333 161.667 82 197s110.667 53 204 53
c86.667 0 145.5 -14.333 176.5 -43s42.5 -71 34.5 -127c-6.66699 -46.667 -25.667 -80 -57 -100s-79.666 -32.333 -144.999 -37l-146 -11c0.666992 -32.667 8.83398 -54.667 24.501 -66s40.5 -17 74.5 -17c64.667 0 128 3.66699 190 11zM191.996 276l115.001 11
c26.667 2 46.167 7.33301 58.5 16s19.833 24.667 22.5 48c2 22 -2.16699 35.667 -12.5 41s-32.166 7.66602 -65.499 6.99902c-38.667 0 -65.834 -8.16699 -81.501 -24.5s-27.834 -49.166 -36.501 -98.499z"/>
            <glyph glyph-name="Gbreve" unicode="&#x11e;" horiz-adv-x="643"
                   d="M514 902l69 -13c-1.33301 -42.667 -18.166 -78.167 -50.499 -106.5s-74.833 -42.5 -127.5 -42.5c-55.333 0 -97 15 -125 45s-36.333 66.333 -25 109l71 4c-2.66699 -20.667 2.83301 -36 16.5 -46s35.5 -15 65.5 -15c65.333 0 100.666 21.667 105.999 65zM460 399
l146.002 0.000976562l-56 -399h-111l-4 85c-60 -65.333 -129.333 -98 -208 -98c-70.667 0 -120.834 29 -150.501 87s-36.834 150.333 -21.501 277c9.33301 72 23.166 131.333 41.499 178s42.666 82.667 72.999 108s63.833 42.666 100.5 51.999s82.334 14 137.001 14
c82.667 0 153 -8.33301 211 -25l-19 -111c-75.333 3.33301 -138.666 5 -189.999 5c-64.667 0 -110.167 -15.167 -136.5 -45.5s-45.833 -92.833 -58.5 -187.5c-10.667 -84.667 -10.667 -142.5 0 -173.5s36 -46.5 76 -46.5c28 0 52 5.5 72 16.5s43 28.5 69 52.5z"/>
            <glyph glyph-name="gbreve" unicode="&#x11f;" horiz-adv-x="593"
                   d="M451 722l68.998 -14c-1.33301 -42.667 -18.166 -78 -50.499 -106s-75.166 -42 -128.499 -42c-55.333 0 -97 15 -125 45s-36 66.333 -24 109l71 4c-3.33301 -20.667 2 -36 16 -46s35.667 -15 65 -15c66 0 101.667 21.667 107 65zM559.998 477l-61.002 -433
c-10.667 -88.667 -41.5 -152.5 -92.5 -191.5s-122.167 -58.5 -213.5 -58.5c-78 0 -139.333 9 -184 27l11 87c22.667 -0.666992 69.667 -1 141 -1c106.667 0 170 30.333 190 91c2.66699 7.33301 6.16699 18.833 10.5 34.5s8.83301 30 13.5 43s10.667 24.833 18 35.5
c-24.667 -36 -55.834 -64.667 -93.501 -86s-79.5 -32.333 -125.5 -33c-60 -1.33301 -101.167 18.667 -123.5 60s-26.5 109.333 -12.5 204c6.66699 45.333 15.834 83.666 27.501 114.999s24.167 55.833 37.5 73.5s30.333 31.334 51 41.001s40.334 15.667 59.001 18
s42.334 3.5 71.001 3.5c102.667 0 194.667 -10 276 -30zM401.996 398h-79.999c-48.667 0 -80.834 -8.5 -96.501 -25.5s-28.167 -56.5 -37.5 -118.5c-9.33301 -62.667 -11.5 -103 -6.5 -121s19.5 -26.333 43.5 -25c44.667 2 94 33 148 93z"/>
            <glyph glyph-name="Gdotaccent" unicode="&#x120;" horiz-adv-x="643"
                   d="M427 753h-45c-14.667 0 -25.5 3.83301 -32.5 11.5s-9.16699 18.5 -6.5 32.5l6 51c4 26 18.667 39 44 39h44c13.333 0 23.833 -3.83301 31.5 -11.5s10.5 -18.167 8.5 -31.5l-7 -53c-2.66699 -25.333 -17 -38 -43 -38zM460 399l146.002 0.000976562l-56 -399h-111l-4 85
c-60 -65.333 -129.333 -98 -208 -98c-70.667 0 -120.834 29 -150.501 87s-36.834 150.333 -21.501 277c9.33301 72 23.166 131.333 41.499 178s42.666 82.667 72.999 108s63.833 42.666 100.5 51.999s82.334 14 137.001 14c82.667 0 153 -8.33301 211 -25l-19 -111
c-75.333 3.33301 -138.666 5 -189.999 5c-64.667 0 -110.167 -15.167 -136.5 -45.5s-45.833 -92.833 -58.5 -187.5c-10.667 -84.667 -10.667 -142.5 0 -173.5s36 -46.5 76 -46.5c28 0 52 5.5 72 16.5s43 28.5 69 52.5z"/>
            <glyph glyph-name="gdotaccent" unicode="&#x121;" horiz-adv-x="593"
                   d="M364 572h-45.001c-14.667 0 -25.5 4 -32.5 12s-9.5 18.667 -7.5 32l7 52c4 26 18.667 39 44 39h43c14 0 24.667 -3.83301 32 -11.5s10.333 -18.5 9 -32.5l-7 -52c-3.33301 -26 -17.666 -39 -42.999 -39zM559.999 477l-61.002 -433
c-10.667 -88.667 -41.5 -152.5 -92.5 -191.5s-122.167 -58.5 -213.5 -58.5c-78 0 -139.333 9 -184 27l11 87c22.667 -0.666992 69.667 -1 141 -1c106.667 0 170 30.333 190 91c2.66699 7.33301 6.16699 18.833 10.5 34.5s8.83301 30 13.5 43s10.667 24.833 18 35.5
c-24.667 -36 -55.834 -64.667 -93.501 -86s-79.5 -32.333 -125.5 -33c-60 -1.33301 -101.167 18.667 -123.5 60s-26.5 109.333 -12.5 204c6.66699 45.333 15.834 83.666 27.501 114.999s24.167 55.833 37.5 73.5s30.333 31.334 51 41.001s40.334 15.667 59.001 18
s42.334 3.5 71.001 3.5c102.667 0 194.667 -10 276 -30zM401.997 398h-79.999c-48.667 0 -80.834 -8.5 -96.501 -25.5s-28.167 -56.5 -37.5 -118.5c-9.33301 -62.667 -11.5 -103 -6.5 -121s19.5 -26.333 43.5 -25c44.667 2 94 33 148 93z"/>
            <glyph glyph-name="Gcommaaccent" unicode="&#x122;" horiz-adv-x="643"
                   d="M460 399l146.002 0.000976562l-56 -399h-111l-4 85c-60 -65.333 -129.333 -98 -208 -98c-70.667 0 -120.834 29 -150.501 87s-36.834 150.333 -21.501 277c9.33301 72 23.166 131.333 41.499 178s42.666 82.667 72.999 108s63.833 42.666 100.5 51.999
s82.334 14 137.001 14c82.667 0 153 -8.33301 211 -25l-19 -111c-75.333 3.33301 -138.666 5 -189.999 5c-64.667 0 -110.167 -15.167 -136.5 -45.5s-45.833 -92.833 -58.5 -187.5c-10.667 -84.667 -10.667 -142.5 0 -173.5s36 -46.5 76 -46.5c28 0 52 5.5 72 16.5
s43 28.5 69 52.5zM290.002 -51.999l29.999 0.00195312c17.333 0 29.5 -3.5 36.5 -10.5s9.16699 -18.167 6.5 -33.5l-8 -52c-7.33301 -50.667 -29.666 -99.334 -66.999 -146.001l-59 19c15.333 34.667 27 69 35 103c-14 -0.666992 -24 2.16602 -30 8.49902
s-8.33301 15.833 -7 28.5l7 42c2.66699 16 8.16699 26.833 16.5 32.5s21.5 8.5 39.5 8.5z"/>
            <glyph glyph-name="gcommaaccent" unicode="&#x123;" horiz-adv-x="593"
                   d="M351 551l-29.998 -0.00195312c-17.333 0 -29.5 3.5 -36.5 10.5s-9.16699 18.167 -6.5 33.5l8 52c7.33301 49.333 29.666 98 66.999 146l59 -19c-14.667 -33.333 -26.334 -67.666 -35.001 -102.999c14 0.666992 24 -2.16602 30 -8.49902s8.33301 -15.833 7 -28.5l-7 -42
c-2.66699 -16 -8.16699 -26.833 -16.5 -32.5s-21.5 -8.5 -39.5 -8.5zM560.002 476.998l-61.002 -433c-10.667 -88.667 -41.5 -152.5 -92.5 -191.5s-122.167 -58.5 -213.5 -58.5c-78 0 -139.333 9 -184 27l11 87c22.667 -0.666992 69.667 -1 141 -1
c106.667 0 170 30.333 190 91c2.66699 7.33301 6.16699 18.833 10.5 34.5s8.83301 30 13.5 43s10.667 24.833 18 35.5c-24.667 -36 -55.834 -64.667 -93.501 -86s-79.5 -32.333 -125.5 -33c-60 -1.33301 -101.167 18.667 -123.5 60s-26.5 109.333 -12.5 204
c6.66699 45.333 15.834 83.666 27.501 114.999s24.167 55.833 37.5 73.5s30.333 31.334 51 41.001s40.334 15.667 59.001 18s42.334 3.5 71.001 3.5c102.667 0 194.667 -10 276 -30zM402 397.998h-79.999c-48.667 0 -80.834 -8.5 -96.501 -25.5s-28.167 -56.5 -37.5 -118.5
c-9.33301 -62.667 -11.5 -103 -6.5 -121s19.5 -26.333 43.5 -25c44.667 2 94 33 148 93z"/>
            <glyph glyph-name="Hbar" unicode="&#x126;" horiz-adv-x="684"
                   d="M709 514h-64l-72 -514h-152l43 307h-239l-44 -307h-153l73 514h-59l10 71h59l14 105h153l-14 -105h239l15 105h152l-15 -105h64zM493 514h-239l-13 -88h240z"/>
            <glyph glyph-name="hbar" unicode="&#x127;" horiz-adv-x="595"
                   d="M245 562l-4.99902 -36.001c-6 -41.333 -14.667 -81.666 -26 -120.999c74.667 68 144.667 102 210 102c44.667 0 78.167 -12.167 100.5 -36.5s30.166 -58.833 23.499 -103.5l-52 -367h-147l46 327c2.66699 22 2 36.667 -2 44s-13.667 11 -29 11
c-22 0 -44.833 -6.16699 -68.5 -18.5s-53.5 -32.5 -89.5 -60.5l-41 -303h-148l79 562h-60l9 68h61l10 70h147l-9 -70h129l-9 -68h-129z"/>
            <glyph glyph-name="Imacron" unicode="&#x12a;" horiz-adv-x="292"
                   d="M363 776h-300l14 96h299zM181 0h-153l97 690h153z"/>
            <glyph glyph-name="imacron" unicode="&#x12b;" horiz-adv-x="276"
                   d="M327 594h-300l14 95h299zM171 0h-148l69 493h148z"/>
            <glyph glyph-name="Iogonek" unicode="&#x12e;" horiz-adv-x="292"
                   d="M181 0l-19.9971 -0.00195312c-28.667 -32 -52.667 -66.667 -72 -104c-9.33301 -17.333 -9.5 -28.5 -0.5 -33.5s25.833 -4.16699 50.5 2.5l13 -57c-29.333 -10.667 -55.833 -17.167 -79.5 -19.5s-42.5 -0.666016 -56.5 5.00098s-24.833 13.667 -32.5 24
s-11.334 22.333 -11.001 36s4.16602 27.834 11.499 42.501c17.333 35.333 52.666 70 105.999 104h-62l97 690h153z"/>
            <glyph glyph-name="iogonek" unicode="&#x12f;" horiz-adv-x="276"
                   d="M168 704h42.999c14 0 24.667 -3.66699 32 -11s10.333 -18 9 -32l-7 -53c-3.33301 -25.333 -17.666 -38 -42.999 -38h-45c-30.667 0 -44 14.667 -40 44l7 52c4 25.333 18.667 38 44 38zM91.999 493l148.002 -0.00292969l-69 -493h-13
c-28.667 -32 -52.667 -66.667 -72 -104c-9.33301 -17.333 -9.5 -28.5 -0.5 -33.5s25.5 -4.16699 49.5 2.5l14 -57c-29.333 -10.667 -55.833 -17.167 -79.5 -19.5s-42.5 -0.666016 -56.5 5.00098s-24.833 13.667 -32.5 24s-11.334 22.333 -11.001 36
s4.16602 27.834 11.499 42.501c17.333 34.667 52.333 69.334 105 104.001h-63z"/>
            <glyph glyph-name="Idotaccent" unicode="&#x130;" horiz-adv-x="292"
                   d="M204 887h43c14 0 24.667 -3.83301 32 -11.5s10.333 -18.167 9 -31.5l-7 -53c-2.66699 -25.333 -17 -38 -43 -38h-45c-30.667 0 -44 14.667 -40 44l7 51c4 26 18.667 39 44 39zM181 0h-153l97 690h153z"/>
            <glyph glyph-name="dotlessi" unicode="&#x131;" horiz-adv-x="276"
                   d="M171 0h-148l69 493h148z"/>
            <glyph glyph-name="IJ" unicode="&#x132;" horiz-adv-x="656"
                   d="M181 0h-153l97 690h153zM645 690l-77.001 -548c-6.66699 -50 -24.5 -88.167 -53.5 -114.5s-66.5 -39.5 -112.5 -39.5c-53.333 0 -95.666 7 -126.999 21l27 101h41c46 0 71 18.667 75 56l75 524h152z"/>
            <glyph glyph-name="ij" unicode="&#x133;" horiz-adv-x="550"
                   d="M162 711h61.999c31.333 0 45.333 -15.333 42 -46l-7 -54c-4 -26.667 -20 -40 -48 -40h-63c-30.667 0 -44 15.333 -40 46l7 53c2.66699 27.333 18.334 41 47.001 41zM436.999 711h61.999c31.333 0 45 -15.333 41 -46l-7 -54c-4 -26.667 -20 -40 -48 -40h-62
c-31.333 0 -45 15.333 -41 46l8 53c2.66699 27.333 18.334 41 47.001 41zM169.998 0h-147l69 493h147zM514.998 493l-67 -473c-6 -46 -22.333 -88.667 -49 -128s-60.334 -69.333 -101.001 -90l-80 68c46.667 46.667 74.334 98.667 83.001 156l67 467h147z"/>
            <glyph glyph-name="Kcommaaccent" unicode="&#x136;" horiz-adv-x="630"
                   d="M396 353l-1.00098 -4c16 -13.333 31 -34.333 45 -63l143 -286h-168l-142 304h-57c2 -22 1.33301 -45 -2 -69l-33 -235h-153l97 690h153l-29 -203c-3.33301 -25.333 -8.66602 -50 -15.999 -74h56l206 277h176l-215 -284c-16 -22 -36 -39.667 -60 -53zM273.999 -52
l29.999 0.00195312c17.333 0 29.5 -3.5 36.5 -10.5s9.16699 -18.167 6.5 -33.5l-8 -52c-8.66699 -52 -31 -100.667 -67 -146l-59 19c14.667 35.333 26.334 69.666 35.001 102.999c-14 -0.666992 -24 2.16602 -30 8.49902s-8.33301 15.833 -7 28.5l7 42
c2.66699 16 8.16699 26.833 16.5 32.5s21.5 8.5 39.5 8.5z"/>
            <glyph glyph-name="kcommaaccent" unicode="&#x137;" horiz-adv-x="563"
                   d="M396 493l151.001 -0.000976562c-24.667 -93.333 -78.667 -169 -162 -227c15.333 -16 29 -36.667 41 -62l91 -204h-154l-87 204c-24.667 -11.333 -53 -23.333 -85 -36l-24 -168h-148l98 700h148l-41 -301c-5.33301 -39.333 -17.333 -80 -36 -122
c51.333 26.667 96.166 58.834 134.499 96.501s62.833 77.5 73.5 119.5zM250.001 -48.001l29.999 0.00195312c17.333 0 29.5 -3.5 36.5 -10.5s9.16699 -18.167 6.5 -33.5l-8 -52c-7.33301 -50.667 -29.666 -99.334 -66.999 -146.001l-59 19c15.333 34.667 27 69 35 103
c-14 -0.666992 -24 2.16602 -30 8.49902s-8.33301 15.833 -7 28.5l7 42c2.66699 16 8.16699 26.833 16.5 32.5s21.5 8.5 39.5 8.5z"/>
            <glyph glyph-name="Lacute" unicode="&#x139;" horiz-adv-x="528"
                   d="M405 824l-237 -106l-37 63l218 151zM275 690l-72.999 -515c-2 -17.333 0.166992 -30.166 6.5 -38.499s19.166 -12.5 38.499 -12.5h236l-3 -117c-65.333 -6.66699 -162 -10 -290 -10c-49.333 0 -87 14.167 -113 42.5s-35.333 67.166 -28 116.499l73 534h153z"/>
            <glyph glyph-name="lacute" unicode="&#x13a;" horiz-adv-x="325"
                   d="M401 844l-237 -106l-37 63l218 151zM265 700l-76.999 -542c-2.66699 -18 -0.833984 -30.333 5.49902 -37s19.833 -10 40.5 -10h43l7 -105c-23.333 -12 -61.666 -18 -114.999 -18c-46 0 -80.833 12.333 -104.5 37s-32.834 58.667 -27.501 102l81 573h147z"/>
            <glyph glyph-name="Lcommaaccent" unicode="&#x13b;" horiz-adv-x="528"
                   d="M275 690l-72.999 -515c-2 -17.333 0.166992 -30.166 6.5 -38.499s19.166 -12.5 38.499 -12.5h236l-3 -117c-65.333 -6.66699 -162 -10 -290 -10c-49.333 0 -87 14.167 -113 42.5s-35.333 67.166 -28 116.499l73 534h153zM249.001 -52l29.002 0.000976562
c17.333 0 29.5 -3.5 36.5 -10.5s9.16699 -18.167 6.5 -33.5l-8 -52c-7.33301 -51.333 -29.333 -100 -66 -146l-59 19c15.333 36.667 26.666 71 33.999 103c-14 -0.666992 -23.833 2.16602 -29.5 8.49902s-7.83398 15.833 -6.50098 28.5l6 42c3.33301 16 9 26.833 17 32.5
s21.333 8.5 40 8.5z"/>
            <glyph glyph-name="lcommaaccent" unicode="&#x13c;" horiz-adv-x="325"
                   d="M265 700l-76.999 -542c-2.66699 -18 -0.833984 -30.333 5.49902 -37s19.833 -10 40.5 -10h43l7 -105c-23.333 -12 -61.666 -18 -114.999 -18c-46 0 -80.833 12.333 -104.5 37s-32.834 58.667 -27.501 102l81 573h147zM134.001 -50l29.999 0.00195312
c34 0 48 -14.667 42 -44l-7 -52c-8.66699 -52 -31 -100.667 -67 -146l-59 19c14.667 35.333 26.334 69.666 35.001 102.999c-14 -0.666992 -24 2.16602 -30 8.49902s-8.33301 15.833 -7 28.5l7 42c2.66699 16 8.16699 26.833 16.5 32.5s21.5 8.5 39.5 8.5z"/>
            <glyph glyph-name="Lcaron" unicode="&#x13d;" horiz-adv-x="528"
                   d="M390 691h30.001c17.333 0 29.5 -3.33301 36.5 -10s9.16699 -18 6.5 -34l-8 -51c-7.33301 -50 -29.333 -98.667 -66 -146l-59 18c15.333 38 26.666 72.667 33.999 104c-26.667 -2 -39 10.333 -37 37l7 42c3.33301 15.333 9 25.833 17 31.5s21 8.5 39 8.5zM275.001 690
l-72.999 -515c-2 -17.333 0.166992 -30.166 6.5 -38.499s19.166 -12.5 38.499 -12.5h236l-3 -117c-65.333 -6.66699 -162 -10 -290 -10c-49.333 0 -87 14.167 -113 42.5s-35.333 67.166 -28 116.499l73 534h153z"/>
            <glyph glyph-name="lcaron" unicode="&#x13e;" horiz-adv-x="325"
                   d="M358 700h30c17.333 0 29.333 -3.33301 36 -10s8.66699 -18 6 -34l-7 -51c-8.66699 -51.333 -31 -100.333 -67 -147l-59 19c14.667 36 26 70.667 34 104c-27.333 -2 -39.333 10 -36 36l7 43c2.66699 15.333 8.16699 25.833 16.5 31.5s21.5 8.5 39.5 8.5zM265 700
l-76.999 -542c-2.66699 -18 -0.833984 -30.333 5.49902 -37s19.833 -10 40.5 -10h43l7 -105c-23.333 -12 -61.666 -18 -114.999 -18c-46 0 -80.833 12.333 -104.5 37s-32.834 58.667 -27.501 102l81 573h147z"/>
            <glyph glyph-name="Ldot" unicode="&#x13f;" horiz-adv-x="528"
                   d="M275 690l-72.999 -515c-2 -17.333 0.166992 -30.166 6.5 -38.499s19.166 -12.5 38.499 -12.5h236l-3 -117c-65.333 -6.66699 -162 -10 -290 -10c-49.333 0 -87 14.167 -113 42.5s-35.333 67.166 -28 116.499l73 534h153zM435.001 342h-43.998
c-13.333 0 -23.833 3.83301 -31.5 11.5s-10.834 18.167 -9.50098 31.5l7 53c3.33301 25.333 17.666 38 42.999 38h45c30.667 0 44 -14.667 40 -44l-7 -52c-4 -25.333 -18.333 -38 -43 -38z"/>
            <glyph glyph-name="ldot" unicode="&#x140;" horiz-adv-x="411"
                   d="M265 700l-76.999 -542c-2.66699 -18 -0.833984 -30.333 5.49902 -37s19.833 -10 40.5 -10h43l7 -105c-23.333 -12 -61.666 -18 -114.999 -18c-46 0 -80.833 12.333 -104.5 37s-32.834 58.667 -27.501 102l81 573h147zM371.001 305h-44
c-13.333 0 -23.833 3.83301 -31.5 11.5s-10.834 18.167 -9.50098 31.5l7 53c4 25.333 18.333 38 43 38h45c30.667 0 44 -14.667 40 -44l-7 -52c-3.33301 -25.333 -17.666 -38 -42.999 -38z"/>
            <glyph glyph-name="Lslash" unicode="&#x141;" horiz-adv-x="529"
                   d="M484 124l-2.99902 -117c-65.333 -6.66699 -162 -10 -290 -10c-49.333 0 -87 14.167 -113 42.5s-35.333 67.166 -28 116.499l21 153l-58 -22l9 81l60 23l41 299h153l-34 -238l116 43l-11 -81l-116 -44l-28 -195c-2 -17.333 0.166992 -30.166 6.5 -38.499
s19.166 -12.5 38.499 -12.5h236z"/>
            <glyph glyph-name="lslash" unicode="&#x142;" horiz-adv-x="332"
                   d="M223 370l-29.999 -212c-2.66699 -18 -0.833984 -30.333 5.49902 -37s19.833 -10 40.5 -10h43l7 -105c-23.333 -12 -61.666 -18 -114.999 -18c-46 0 -80.833 12.333 -104.5 37s-32.834 58.667 -27.501 102l26 184l-63 -24l11 81l64 24l43 308h147l-35 -249l117 44l-12 -81
z"/>
            <glyph glyph-name="Nacute" unicode="&#x143;" horiz-adv-x="717"
                   d="M621 829l-237 -106l-37 63l218 151zM704 690l-90 -637.998c-4.66699 -34.667 -23.667 -52 -57 -52h-85c-15.333 0 -26.833 3.66699 -34.5 11s-15.167 19.666 -22.5 36.999l-137 368c-12.667 33.333 -22.667 68 -30 104h-10c-1.33301 -40.667 -4 -76.667 -8 -108l-57 -412
h-145l90 638c4.66699 34.667 24 52 58 52h84c14.667 0 26 -3.83301 34 -11.5s15.333 -19.834 22 -36.501l133 -356c15.333 -40.667 27.333 -78 36 -112h12c0 39.333 2.33301 76.333 7 111l55 405h145z"/>
            <glyph glyph-name="nacute" unicode="&#x144;" horiz-adv-x="596"
                   d="M300 541l-37 63l218 150l56 -107zM204 493v-97.998c76.667 74.667 151.667 112 225 112c42 0 74.333 -12.167 97 -36.5s30.667 -58.833 24 -103.5l-52 -367h-147l45 323c3.33301 23.333 2.66602 39.166 -2.00098 47.499s-15 12.166 -31 11.499
c-37.333 -0.666992 -88.666 -26.667 -153.999 -78l-42 -304h-148l69 493h116z"/>
            <glyph glyph-name="Ncommaaccent" unicode="&#x145;" horiz-adv-x="717"
                   d="M704 690l-90 -637.998c-4.66699 -34.667 -23.667 -52 -57 -52h-85c-15.333 0 -26.833 3.66699 -34.5 11s-15.167 19.666 -22.5 36.999l-137 368c-12.667 33.333 -22.667 68 -30 104h-10c-1.33301 -40.667 -4 -76.667 -8 -108l-57 -412h-145l90 638
c4.66699 34.667 24 52 58 52h84c14.667 0 26 -3.83301 34 -11.5s15.333 -19.834 22 -36.501l133 -356c15.333 -40.667 27.333 -78 36 -112h12c0 39.333 2.33301 76.333 7 111l55 405h145zM322 -51.998l29.999 0.00195312c34 0 48 -14.667 42 -44l-7 -52
c-8.66699 -52 -31 -100.667 -67 -146l-59 19c14.667 35.333 26.334 69.666 35.001 102.999c-14 -0.666992 -24 2.16602 -30 8.49902s-8.33301 15.833 -7 28.5l7 42c2.66699 16 8.16699 26.833 16.5 32.5s21.5 8.5 39.5 8.5z"/>
            <glyph glyph-name="ncommaaccent" unicode="&#x146;" horiz-adv-x="596"
                   d="M204 493v-97.998c76.667 74.667 151.667 112 225 112c42 0 74.333 -12.167 97 -36.5s30.667 -58.833 24 -103.5l-52 -367h-147l45 323c3.33301 23.333 2.66602 39.166 -2.00098 47.499s-15 12.166 -31 11.499c-37.333 -0.666992 -88.666 -26.667 -153.999 -78l-42 -304
h-148l69 493h116zM242 -47.998l29.998 0.00195312c17.333 0 29.5 -3.5 36.5 -10.5s9.16699 -18.167 6.5 -33.5l-8 -52c-7.33301 -50.667 -29.666 -99.334 -66.999 -146.001l-59 19c16.667 40.667 28.334 75 35.001 103c-14 -0.666992 -24 2.16602 -30 8.49902
s-8.33301 15.833 -7 28.5l7 42c2.66699 16 8.16699 26.833 16.5 32.5s21.5 8.5 39.5 8.5z"/>
            <glyph glyph-name="Ncaron" unicode="&#x147;" horiz-adv-x="717"
                   d="M626 870l-160 -131h-80l-134 141l49 49l126 -92h8l156 91zM704 690l-90 -637.998c-4.66699 -34.667 -23.667 -52 -57 -52h-85c-15.333 0 -26.833 3.66699 -34.5 11s-15.167 19.666 -22.5 36.999l-137 368c-12.667 33.333 -22.667 68 -30 104h-10
c-1.33301 -40.667 -4 -76.667 -8 -108l-57 -412h-145l90 638c4.66699 34.667 24 52 58 52h84c14.667 0 26 -3.83301 34 -11.5s15.333 -19.834 22 -36.501l133 -356c15.333 -40.667 27.333 -78 36 -112h12c0 39.333 2.33301 76.333 7 111l55 405h145z"/>
            <glyph glyph-name="ncaron" unicode="&#x148;" horiz-adv-x="596"
                   d="M303 557l-135 140l49 50l126 -92h8l156 90l35 -57l-160 -131h-79zM204 493v-97.998c76.667 74.667 151.667 112 225 112c42 0 74.333 -12.167 97 -36.5s30.667 -58.833 24 -103.5l-52 -367h-147l45 323c3.33301 23.333 2.66602 39.166 -2.00098 47.499
s-15 12.166 -31 11.499c-37.333 -0.666992 -88.666 -26.667 -153.999 -78l-42 -304h-148l69 493h116z"/>
            <glyph glyph-name="Eng" unicode="&#x14a;" horiz-adv-x="719"
                   d="M706 690l-105.998 -749.001c-6.66699 -48 -23.834 -85.333 -51.501 -112s-61.5 -39.667 -101.5 -39c-48.667 0 -88.334 7 -119.001 21l26 94h39c42.667 0 67 18 73 54l7 47l-18 -1c-2 0 -3.83301 0.333008 -5.5 1s-3.33398 2 -5.00098 4l-4.5 5.5
c-1.33301 1.66699 -2.66602 4 -3.99902 7s-2.5 5.5 -3.5 7.5s-2.16699 4.83301 -3.5 8.5s-2.33301 6.16699 -3 7.5l-148 358c-12 27.333 -21.333 62.333 -28 105h-11c0 -36.667 -3 -73.667 -9 -111l-56 -398h-146l90 638c4.66699 34.667 24 52 58 52h79
c15.333 0 27 -3.83301 35 -11.5s15 -19.834 21 -36.501l138 -344c18 -43.333 30.333 -80.666 37 -111.999h10c0 32.667 3 72.334 9 119.001l55 385h146z"/>
            <glyph glyph-name="eng" unicode="&#x14b;" horiz-adv-x="596"
                   d="M202 493l1 -96.9971c78.667 74 152 111 220 111c46.667 0 81 -12 103 -36s30 -58.667 24 -104l-57 -404c-15.333 -108.667 -67 -163 -155 -163c-50 0 -90 7 -120 21l25 94h35c40 0 62.667 18 68 54l51 358c2.66699 19.333 1.5 32.666 -3.5 39.999
s-16.167 10.666 -33.5 9.99902c-34.667 -0.666992 -85 -25.334 -151 -74.001l-42 -303h-148l69 493h114z"/>
            <glyph glyph-name="Omacron" unicode="&#x14c;" horiz-adv-x="680"
                   d="M557 776h-299l13 96h299zM388 703c106 0 179.333 -27.167 220 -81.5s51.667 -148.5 33 -282.5c-18 -134.667 -51.5 -227 -100.5 -277s-126.167 -75 -231.5 -75c-108 0 -182 26.667 -222 80s-51 148 -33 284c18.667 132.667 52.5 224.5 101.5 275.5s126.5 76.5 232.5 76.5
zM383 580c-53.333 0 -91.3301 -16.167 -113.997 -48.5s-41 -96.5 -55 -192.5c-12.667 -90 -12.334 -150.667 0.999023 -182s45.666 -47 96.999 -47c52.667 0 90.667 16.5 114 49.5s42 96.833 56 191.5c13.333 91.333 13.166 152.333 -0.500977 183s-46.5 46 -98.5 46z"/>
            <glyph glyph-name="omacron" unicode="&#x14d;" horiz-adv-x="586"
                   d="M484 594h-300l14 95h299zM315 507c91.333 0 154.999 -20.667 190.999 -62s47.333 -109.666 34 -204.999c-12.667 -92.667 -40.167 -158 -82.5 -196s-108.166 -57 -197.499 -57c-90.667 0 -154.5 20.667 -191.5 62s-48.833 109 -35.5 203
c13.333 93.333 41 159.166 83 197.499s108.333 57.5 199 57.5zM313.999 396c-40.667 0 -69.834 -10.3311 -87.501 -30.998s-30.834 -62.334 -39.501 -125.001c-8 -57.333 -7 -95.333 3 -114s34.333 -28 73 -28c40 0 68.667 10.5 86 31.5s30.333 61.833 39 122.5
c8.66699 57.333 7.83398 95.666 -2.49902 114.999s-34.166 29 -71.499 29z"/>
            <glyph glyph-name="Ohungarumlaut" unicode="&#x150;" horiz-adv-x="680"
                   d="M469 882l-170 -162l-60 42l143 180zM658 882l-170 -162l-59 41l142 181zM388 703c106 0 179.333 -27.167 220 -81.5s51.667 -148.5 33 -282.5c-18 -134.667 -51.5 -227 -100.5 -277s-126.167 -75 -231.5 -75c-108 0 -182 26.667 -222 80s-51 148 -33 284
c18.667 132.667 52.5 224.5 101.5 275.5s126.5 76.5 232.5 76.5zM383 580c-53.333 0 -91.3301 -16.167 -113.997 -48.5s-41 -96.5 -55 -192.5c-12.667 -90 -12.334 -150.667 0.999023 -182s45.666 -47 96.999 -47c52.667 0 90.667 16.5 114 49.5s42 96.833 56 191.5
c13.333 91.333 13.166 152.333 -0.500977 183s-46.5 46 -98.5 46z"/>
            <glyph glyph-name="ohungarumlaut" unicode="&#x151;" horiz-adv-x="586"
                   d="M396 699l-170 -162l-60 42l143 181zM585 699l-170 -162l-59 42l142 181zM315 507c91.333 0 154.999 -20.667 190.999 -62s47.333 -109.666 34 -204.999c-12.667 -92.667 -40.167 -158 -82.5 -196s-108.166 -57 -197.499 -57c-90.667 0 -154.5 20.667 -191.5 62
s-48.833 109 -35.5 203c13.333 93.333 41 159.166 83 197.499s108.333 57.5 199 57.5zM313.999 396c-40.667 0 -69.834 -10.3311 -87.501 -30.998s-30.834 -62.334 -39.501 -125.001c-8 -57.333 -7 -95.333 3 -114s34.333 -28 73 -28c40 0 68.667 10.5 86 31.5
s30.333 61.833 39 122.5c8.66699 57.333 7.83398 95.666 -2.49902 114.999s-34.166 29 -71.499 29z"/>
            <glyph glyph-name="OE" unicode="&#x152;" horiz-adv-x="949"
                   d="M940 570l-254.998 -0.000976562c-34.667 0 -54 -18 -58 -54l-15 -105h269l-13 -105h-270l-19 -138c-2.66699 -17.333 -0.833984 -29.666 5.49902 -36.999s18.166 -11 35.499 -11h256l-3 -113c-60 -6.66699 -160.667 -10 -302 -10c-38 0 -70.333 8 -97 24
c-50 -22.667 -106.667 -34 -170 -34c-56.667 0 -102.5 5.83301 -137.5 17.5s-63.167 31.5 -84.5 59.5s-33.333 65.333 -36 112s0 105 8 175c19.333 135.333 53.166 227.833 101.499 277.5s125.833 74.5 232.5 74.5c66.667 0 123.334 -9.33301 170.001 -28
c22.667 12 50 18 82 18c146 0 252.333 -3.66699 319 -11zM479.002 556.999l3.00098 15.001c-26.667 5.33301 -58 8 -94 8c-53.333 0 -92.5 -17 -117.5 -51s-43.833 -97.333 -56.5 -190c-12.667 -89.333 -12.834 -149.833 -0.500977 -181.5s42.833 -47.5 91.5 -47.5
c46 0 84.667 4.66699 116 14c0 5.33301 0.666992 14.666 2 27.999z"/>
            <glyph glyph-name="oe" unicode="&#x153;" horiz-adv-x="904"
                   d="M814 117l8.99902 -93.999c-54 -23.333 -124.667 -35 -212 -35c-74.667 0 -131.667 17.667 -171 53c-44.667 -36 -105.667 -54 -183 -54c-90 0 -153.167 20.667 -189.5 62s-47.833 109 -34.5 203c13.333 93.333 40.833 159.166 82.5 197.499s107.167 57.5 196.5 57.5
c72 0 127.333 -16 166 -48c42.667 32 105.334 48 188.001 48c86 0 144.5 -14.333 175.5 -43s42.5 -71 34.5 -127c-6.66699 -46.667 -25.5 -80 -56.5 -100s-78.833 -32.333 -143.5 -37l-145 -11c0.666992 -33.333 8.66699 -55.5 24 -66.5s40 -16.5 74 -16.5
c63.333 0 125 3.66699 185 11zM539.999 276.001l113 11c26.667 2 46 7.33301 58 16s19.333 24.667 22 48c2 22 -2.16699 35.667 -12.5 41s-31.833 7.66602 -64.5 6.99902c-38 0 -64.667 -8.16699 -80 -24.5s-27.333 -49.166 -36 -98.499zM259.999 98.001
c38.667 0 66.333 10.502 83 31.502s29.334 61.833 38.001 122.5c8.66699 57.333 8.16699 95.666 -1.5 114.999s-32.834 29 -69.501 29c-39.333 0 -67.5 -10.333 -84.5 -31s-29.833 -62.334 -38.5 -125.001c-8 -57.333 -7.16699 -95.333 2.5 -114s33.167 -28 70.5 -28z"/>
            <glyph glyph-name="Racute" unicode="&#x154;" horiz-adv-x="641"
                   d="M336 723l-37 63l218 151l56 -108zM28 0l97.0029 690.002c61.333 6 146.333 9 255 9c86 0 148.833 -15.833 188.5 -47.5s54.167 -85.834 43.5 -162.501c-6.66699 -48.667 -21.834 -86.834 -45.501 -114.501s-60.167 -44.5 -109.5 -50.5l-1 -6
c46 -10.667 73.667 -46 83 -106l36 -212h-156l-32 214c-2.66699 21.333 -8.33398 35.833 -17.001 43.5s-22.334 11.5 -41.001 11.5l-114 1l-38 -270h-149zM232.003 387.002h108c40 0 68.5 7.33301 85.5 22s28.5 42 34.5 82c5.33301 34.667 2 58.5 -10 71.5
s-36.333 19.5 -73 19.5l-118 -1z"/>
            <glyph glyph-name="racute" unicode="&#x155;" horiz-adv-x="423"
                   d="M237 541l-37 63l218 150l57 -107zM203 493v-93c75.333 71.333 145.333 107 210 107h30l-33 -137h-36c-20.667 0 -42.5 -4.5 -65.5 -13.5s-56.167 -24.833 -99.5 -47.5l-42 -309h-148l69 493h115z"/>
            <glyph glyph-name="Rcommaaccent" unicode="&#x156;" horiz-adv-x="641"
                   d="M28 0l97.0029 690.002c61.333 6 146.333 9 255 9c86 0 148.833 -15.833 188.5 -47.5s54.167 -85.834 43.5 -162.501c-6.66699 -48.667 -21.834 -86.834 -45.501 -114.501s-60.167 -44.5 -109.5 -50.5l-1 -6c46 -10.667 73.667 -46 83 -106l36 -212h-156l-32 214
c-2.66699 21.333 -8.33398 35.833 -17.001 43.5s-22.334 11.5 -41.001 11.5l-114 1l-38 -270h-149zM232.003 387.002h108c40 0 68.5 7.33301 85.5 22s28.5 42 34.5 82c5.33301 34.667 2 58.5 -10 71.5s-36.333 19.5 -73 19.5l-118 -1zM295.003 -51.998l29.999 0.00195312
c34 0 48 -14.667 42 -44l-7 -52c-8.66699 -52 -31 -100.667 -67 -146l-59 19c14.667 35.333 26.334 69.666 35.001 102.999c-14 -0.666992 -24 2.16602 -30 8.49902s-8.33301 15.833 -7 28.5l7 42c2.66699 16 8.16699 26.833 16.5 32.5s21.5 8.5 39.5 8.5z"/>
            <glyph glyph-name="rcommaaccent" unicode="&#x157;" horiz-adv-x="423"
                   d="M443 507l-33 -137h-36c-20.667 0 -42.5 -4.5 -65.5 -13.5s-56.167 -24.833 -99.5 -47.5l-42 -309h-148l69 493h115v-93c75.333 71.333 145.333 107 210 107h30zM68 -48l30.002 0.000976562c32.667 0 46.667 -14.667 42 -44l-7 -52c-8.66699 -52 -31 -100.667 -67 -146
l-59 19c15.333 36.667 26.666 71 33.999 103c-14 -0.666992 -23.833 2.16602 -29.5 8.49902s-7.83398 15.833 -6.50098 28.5l7 42c2.66699 16 8.16699 26.833 16.5 32.5s21.5 8.5 39.5 8.5z"/>
            <glyph glyph-name="Rcaron" unicode="&#x158;" horiz-adv-x="641"
                   d="M339 739l-135 141l49 49l126 -92h8l156 91l35 -58l-160 -131h-79zM28 0l97.0029 690.002c61.333 6 146.333 9 255 9c86 0 148.833 -15.833 188.5 -47.5s54.167 -85.834 43.5 -162.501c-6.66699 -48.667 -21.834 -86.834 -45.501 -114.501s-60.167 -44.5 -109.5 -50.5
l-1 -6c46 -10.667 73.667 -46 83 -106l36 -212h-156l-32 214c-2.66699 21.333 -8.33398 35.833 -17.001 43.5s-22.334 11.5 -41.001 11.5l-114 1l-38 -270h-149zM232.003 387.002h108c40 0 68.5 7.33301 85.5 22s28.5 42 34.5 82c5.33301 34.667 2 58.5 -10 71.5
s-36.333 19.5 -73 19.5l-118 -1z"/>
            <glyph glyph-name="rcaron" unicode="&#x159;" horiz-adv-x="423"
                   d="M240 557l-134 140l48 50l126 -92h8l156 90l36 -57l-161 -131h-79zM203 493v-93c75.333 71.333 145.333 107 210 107h30l-33 -137h-36c-20.667 0 -42.5 -4.5 -65.5 -13.5s-56.167 -24.833 -99.5 -47.5l-42 -309h-148l69 493h115z"/>
            <glyph glyph-name="Sacute" unicode="&#x15a;"
                   d="M548 829l-238 -106l-37 63l218 151zM323 262l-131 52.9971c-50 20.667 -83.667 47.334 -101 80.001s-23 73.667 -17 123c10 73.333 35.5 122.5 76.5 147.5s104.833 37.5 191.5 37.5c86 0 161 -9.33301 225 -28l-15 -103c-60 2 -131.333 3 -214 3
c-40.667 0.666992 -68.334 -2.5 -83.001 -9.5s-24.334 -25.833 -29.001 -56.5c-3.33301 -22.667 -1.5 -38.5 5.5 -47.5s23.5 -18.5 49.5 -28.5l124 -48c52.667 -20.667 87.334 -46.5 104.001 -77.5s21.667 -73.5 15 -127.5c-10 -76 -34.5 -127.167 -73.5 -153.5
s-105.167 -39.5 -198.5 -39.5c-77.333 0 -156.333 9 -237 27l16 109c141.333 -3.33301 213 -5 215 -5c46.667 0 78.334 4.5 95.001 13.5s27.334 28.167 32.001 57.5c2.66699 22.667 0.666992 38.334 -6 47.001s-21.334 17.334 -44.001 26.001z"/>
            <glyph glyph-name="sacute" unicode="&#x15b;" horiz-adv-x="524"
                   d="M501 647l-237 -106l-38 63l219 150zM268 177l-119.001 49.001c-40 16 -68 36.333 -84 61s-21.667 55.667 -17 93c5.33301 45.333 25.166 78 59.499 98s88.166 29.667 161.499 29c90.667 -1.33301 166.667 -8 228 -20l-14 -94c-128 2 -193 3 -195 3
c-38.667 0 -64.334 -1.5 -77.001 -4.5s-20 -10.167 -22 -21.5c-1.33301 -11.333 1.83398 -19.833 9.50098 -25.5s22.5 -12.834 44.5 -21.501l121 -48c40.667 -16 69.334 -35.333 86.001 -58s22.667 -53 18 -91c-4 -29.333 -11.833 -53.333 -23.5 -72
s-28.5 -32.667 -50.5 -42s-45.667 -15.5 -71 -18.5s-57.666 -4.5 -96.999 -4.5c-60 0 -132.333 6 -217 18l14 95c24 -1.33301 76.333 -2 157 -2c57.333 0 95.333 2 114 6s29.334 12.667 32.001 26c1.33301 10 -1.16699 17.333 -7.5 22s-18.833 10.667 -37.5 18z"/>
            <glyph glyph-name="Scedilla" unicode="&#x15e;"
                   d="M323 262l-131 52.9971c-50 20.667 -83.667 47.334 -101 80.001s-23 73.667 -17 123c10 73.333 35.5 122.5 76.5 147.5s104.833 37.5 191.5 37.5c86 0 161 -9.33301 225 -28l-15 -103c-60 2 -131.333 3 -214 3c-40.667 0.666992 -68.334 -2.5 -83.001 -9.5
s-24.334 -25.833 -29.001 -56.5c-3.33301 -22.667 -1.5 -38.5 5.5 -47.5s23.5 -18.5 49.5 -28.5l124 -48c52.667 -20.667 87.334 -46.5 104.001 -77.5s21.667 -73.5 15 -127.5c-10 -76 -34.5 -127.167 -73.5 -153.5s-105.167 -39.5 -198.5 -39.5
c-77.333 0 -156.333 9 -237 27l16 109c141.333 -3.33301 213 -5 215 -5c46.667 0 78.334 4.5 95.001 13.5s27.334 28.167 32.001 57.5c2.66699 22.667 0.666992 38.334 -6 47.001s-21.334 17.334 -44.001 26.001zM169 -117.003l14.999 59.002
c52.667 5.33301 90.334 3.5 113.001 -5.5s31 -30.833 25 -65.5c-8 -48 -31.833 -83.333 -71.5 -106s-87.167 -30.334 -142.5 -23.001l20 64c24.667 0 46.167 5 64.5 15s29.5 24.667 33.5 44c1.33301 7.33301 -1.16699 12.166 -7.5 14.499s-22.833 3.5 -49.5 3.5z"/>
            <glyph glyph-name="scedilla" unicode="&#x15f;" horiz-adv-x="524"
                   d="M268 177l-119.001 49.001c-40 16 -68 36.333 -84 61s-21.667 55.667 -17 93c5.33301 45.333 25.166 78 59.499 98s88.166 29.667 161.499 29c90.667 -1.33301 166.667 -8 228 -20l-14 -94c-128 2 -193 3 -195 3c-38.667 0 -64.334 -1.5 -77.001 -4.5
s-20 -10.167 -22 -21.5c-1.33301 -11.333 1.83398 -19.833 9.50098 -25.5s22.5 -12.834 44.5 -21.501l121 -48c40.667 -16 69.334 -35.333 86.001 -58s22.667 -53 18 -91c-4 -29.333 -11.833 -53.333 -23.5 -72s-28.5 -32.667 -50.5 -42s-45.667 -15.5 -71 -18.5
s-57.666 -4.5 -96.999 -4.5c-60 0 -132.333 6 -217 18l14 95c24 -1.33301 76.333 -2 157 -2c57.333 0 95.333 2 114 6s29.334 12.667 32.001 26c1.33301 10 -1.16699 17.333 -7.5 22s-18.833 10.667 -37.5 18zM132.999 -108.999l15 58c52 6 89.5 4.33301 112.5 -5
s31.5 -31 25.5 -65c-8 -48 -31.833 -83.5 -71.5 -106.5s-87.167 -30.5 -142.5 -22.5l20 64c24.667 -0.666992 46.167 4 64.5 14s29.5 24.667 33.5 44c1.33301 8 -1.16699 13.167 -7.5 15.5s-22.833 3.5 -49.5 3.5z"/>
            <glyph glyph-name="Scaron" unicode="&#x160;"
                   d="M552 870l-160 -131h-79l-135 141l49 49l126 -92h8l156 91zM323 262l-131 52.9971c-50 20.667 -83.667 47.334 -101 80.001s-23 73.667 -17 123c10 73.333 35.5 122.5 76.5 147.5s104.833 37.5 191.5 37.5c86 0 161 -9.33301 225 -28l-15 -103c-60 2 -131.333 3 -214 3
c-40.667 0.666992 -68.334 -2.5 -83.001 -9.5s-24.334 -25.833 -29.001 -56.5c-3.33301 -22.667 -1.5 -38.5 5.5 -47.5s23.5 -18.5 49.5 -28.5l124 -48c52.667 -20.667 87.334 -46.5 104.001 -77.5s21.667 -73.5 15 -127.5c-10 -76 -34.5 -127.167 -73.5 -153.5
s-105.167 -39.5 -198.5 -39.5c-77.333 0 -156.333 9 -237 27l16 109c141.333 -3.33301 213 -5 215 -5c46.667 0 78.334 4.5 95.001 13.5s27.334 28.167 32.001 57.5c2.66699 22.667 0.666992 38.334 -6 47.001s-21.334 17.334 -44.001 26.001z"/>
            <glyph glyph-name="scaron" unicode="&#x161;" horiz-adv-x="524"
                   d="M506 688l-160 -131h-80l-134 140l49 50l125 -92h8l157 90zM268 177l-119.001 49.001c-40 16 -68 36.333 -84 61s-21.667 55.667 -17 93c5.33301 45.333 25.166 78 59.499 98s88.166 29.667 161.499 29c90.667 -1.33301 166.667 -8 228 -20l-14 -94c-128 2 -193 3 -195 3
c-38.667 0 -64.334 -1.5 -77.001 -4.5s-20 -10.167 -22 -21.5c-1.33301 -11.333 1.83398 -19.833 9.50098 -25.5s22.5 -12.834 44.5 -21.501l121 -48c40.667 -16 69.334 -35.333 86.001 -58s22.667 -53 18 -91c-4 -29.333 -11.833 -53.333 -23.5 -72
s-28.5 -32.667 -50.5 -42s-45.667 -15.5 -71 -18.5s-57.666 -4.5 -96.999 -4.5c-60 0 -132.333 6 -217 18l14 95c24 -1.33301 76.333 -2 157 -2c57.333 0 95.333 2 114 6s29.334 12.667 32.001 26c1.33301 10 -1.16699 17.333 -7.5 22s-18.833 10.667 -37.5 18z"/>
            <glyph glyph-name="Tcedilla" unicode="&#x162;" horiz-adv-x="594"
                   d="M617 566h-206l-79 -566h-153l80 566h-205l17 124h563zM171 -100l15 58c52 6 89.5 4.33301 112.5 -5s31.5 -31 25.5 -65c-8 -48 -31.833 -83.5 -71.5 -106.5s-87.167 -30.5 -142.5 -22.5l20 64c24.667 -0.666992 46.167 4 64.5 14s29.5 24.667 33.5 44
c1.33301 8 -1.16699 13.167 -7.5 15.5s-22.833 3.5 -49.5 3.5z"/>
            <glyph glyph-name="tcedilla" unicode="&#x163;" horiz-adv-x="410"
                   d="M266 394l-32.999 -236c-2.66699 -18.667 -1.16699 -31.167 4.5 -37.5s18.5 -9.5 38.5 -9.5h66l7 -104c-35.333 -12.667 -81.333 -19 -138 -19c-46.667 0 -81.334 12.833 -104.001 38.5s-30.667 61.167 -24 106.5l38 261h-89l12 94l91 5l20 138h145l-19 -138h136l-14 -99
h-137zM109.001 -110l14.998 59.002c52.667 6 90.334 4.33301 113.001 -5s31.334 -31.333 26.001 -66c-8 -48 -32 -83.333 -72 -106s-87.667 -30.334 -143 -23.001l21 64c24.667 0 46 5 64 15s29 24.667 33 44c1.33301 7.33301 -1.16699 12.166 -7.5 14.499
s-22.833 3.5 -49.5 3.5z"/>
            <glyph glyph-name="Tcaron" unicode="&#x164;" horiz-adv-x="594"
                   d="M321 739l-134 141l49 49l125 -92h8l157 91l35 -58l-160 -131h-80zM617 566h-206l-79 -566h-153l80 566h-205l17 124h563z"/>
            <glyph glyph-name="tcaron" unicode="&#x165;" horiz-adv-x="410"
                   d="M392 793l29.999 0.00195312c17.333 0 29.5 -3.5 36.5 -10.5s9.16699 -18.167 6.5 -33.5l-8 -52c-7.33301 -50.667 -29.666 -99.334 -66.999 -146.001l-59 19c15.333 34.667 27 69 35 103c-14 -0.666992 -24 2.16602 -30 8.49902s-8.33301 15.833 -7 28.5l7 42
c2.66699 16 8.16699 26.833 16.5 32.5s21.5 8.5 39.5 8.5zM280.999 493.002h136.001l-14 -99h-137l-33 -236c-2.66699 -18.667 -1.16699 -31.167 4.5 -37.5s18.5 -9.5 38.5 -9.5h66l7 -104c-35.333 -12.667 -81.333 -19 -138 -19c-46.667 0 -81.334 12.833 -104.001 38.5
s-30.667 61.167 -24 106.5l38 261h-89l12 94l91 5l20 138h145z"/>
            <glyph glyph-name="Tbar" unicode="&#x166;" horiz-adv-x="594"
                   d="M411 566l-22 -157h134l-10 -73h-134l-47 -336h-153l47 336h-122l10 73h123l22 157h-205l17 124h563l-17 -124h-206z"/>
            <glyph glyph-name="tbar" unicode="&#x167;" horiz-adv-x="410"
                   d="M266 394l-8.99902 -69h105l-10 -73h-106l-13 -94c-2.66699 -18.667 -1.16699 -31.167 4.5 -37.5s18.5 -9.5 38.5 -9.5h66l7 -104c-35.333 -12.667 -81.333 -19 -138 -19c-46.667 0 -81.334 12.833 -104.001 38.5s-30.667 61.167 -24 106.5l17 119h-61l10 73h62l10 69h-89
l12 94l91 5l20 138h145l-19 -138h136l-14 -99h-137z"/>
            <glyph glyph-name="Umacron" unicode="&#x16a;" horiz-adv-x="677"
                   d="M555 776h-300l14 96h299zM670 690l-59.999 -417.999c-15.333 -105.333 -45.333 -179.166 -90 -221.499s-115 -63.5 -211 -63.5c-98 0 -167.333 22.667 -208 68s-54 119.666 -40 222.999l58 412h153l-59 -418c-9.33301 -62.667 -7.33301 -105.334 6 -128.001
s43.333 -34 90 -34c48 0 82.667 12 104 36s36.666 68 45.999 132l58 412h153z"/>
            <glyph glyph-name="umacron" unicode="&#x16b;" horiz-adv-x="587"
                   d="M487 601h-300l14 96h299zM555 493l-67.999 -493h-114v93c-73.333 -70.667 -144.333 -106 -213 -106c-47.333 0 -81.833 12.333 -103.5 37s-29.167 58.667 -22.5 102l51 367h148l-47 -327c-2.66699 -20 -1.16699 -34.167 4.5 -42.5s16.5 -12.5 32.5 -12.5
c21.333 0 42.166 5.66699 62.499 17s47.5 31.333 81.5 60l42 305h146z"/>
            <glyph glyph-name="Uring" unicode="&#x16e;" horiz-adv-x="677"
                   d="M419 941c35.333 0 64 -11.334 86 -34.001s30.667 -51 26 -85c-4 -30.667 -16.833 -56.167 -38.5 -76.5s-49.5 -30.5 -83.5 -30.5c-35.333 0 -63.833 11.333 -85.5 34s-30.5 50.667 -26.5 84c3.33301 30.667 16 56.334 38 77.001s50 31 84 31zM418 879.999
c-14.667 0 -26.835 -4.83203 -36.502 -14.499s-15.167 -21.834 -16.5 -36.501c-2 -16.667 1.33301 -29.667 10 -39s20.334 -14 35.001 -14c15.333 0 27.833 5 37.5 15s15.167 23 16.5 39c1.33301 14.667 -2.16699 26.667 -10.5 36s-20.166 14 -35.499 14zM669.999 690
l-59.999 -417.999c-15.333 -105.333 -45.333 -179.166 -90 -221.499s-115 -63.5 -211 -63.5c-98 0 -167.333 22.667 -208 68s-54 119.666 -40 222.999l58 412h153l-59 -418c-9.33301 -62.667 -7.33301 -105.334 6 -128.001s43.333 -34 90 -34c48 0 82.667 12 104 36
s36.666 68 45.999 132l58 412h153z"/>
            <glyph glyph-name="uring" unicode="&#x16f;" horiz-adv-x="587"
                   d="M341 539c-35.333 0 -63.833 11.5 -85.5 34.5s-30.5 51.167 -26.5 84.5c3.33301 30.667 16 56.334 38 77.001s50 31 84 31c35.333 0 64 -11.333 86 -34s30.667 -51 26 -85c-3.33301 -30.667 -16 -56.334 -38 -77.001s-50 -31 -84 -31zM297 654
c-2 -16.667 1.33203 -29.666 9.99902 -38.999s20.334 -14 35.001 -14c15.333 0 27.833 5 37.5 15s15.167 23 16.5 39c1.33301 14.667 -2.16699 26.667 -10.5 36s-20.166 14 -35.499 14c-14.667 0 -26.834 -4.83301 -36.501 -14.5s-15.167 -21.834 -16.5 -36.501z
M554.999 493.001l-67.999 -493h-114v93c-73.333 -70.667 -144.333 -106 -213 -106c-47.333 0 -81.833 12.333 -103.5 37s-29.167 58.667 -22.5 102l51 367h148l-47 -327c-2.66699 -20 -1.16699 -34.167 4.5 -42.5s16.5 -12.5 32.5 -12.5c21.333 0 42.166 5.66699 62.499 17
s47.5 31.333 81.5 60l42 305h146z"/>
            <glyph glyph-name="Uhungarumlaut" unicode="&#x170;" horiz-adv-x="677"
                   d="M467 882l-170 -162l-60 42l143 180zM656 882l-170 -162l-59 41l142 181zM670 690l-59.999 -417.999c-15.333 -105.333 -45.333 -179.166 -90 -221.499s-115 -63.5 -211 -63.5c-98 0 -167.333 22.667 -208 68s-54 119.666 -40 222.999l58 412h153l-59 -418
c-9.33301 -62.667 -7.33301 -105.334 6 -128.001s43.333 -34 90 -34c48 0 82.667 12 104 36s36.666 68 45.999 132l58 412h153z"/>
            <glyph glyph-name="uhungarumlaut" unicode="&#x171;" horiz-adv-x="587"
                   d="M229 545l-60 41l143 181l87 -61zM359 586l142 181l87 -61l-170 -161zM409 493h146.001l-68 -493h-114v93c-73.333 -70.667 -144.333 -106 -213 -106c-47.333 0 -81.833 12.333 -103.5 37s-29.167 58.667 -22.5 102l51 367h148l-47 -327
c-2.66699 -20 -1.16699 -34.167 4.5 -42.5s16.5 -12.5 32.5 -12.5c21.333 0 42.166 5.66699 62.499 17s47.5 31.333 81.5 60z"/>
            <glyph glyph-name="Uogonek" unicode="&#x172;" horiz-adv-x="677"
                   d="M670 690l-60 -418.003c-14 -100 -41.667 -171.667 -83 -215s-105 -66.666 -191 -69.999c-24.667 -27.333 -47.667 -60.666 -69 -99.999c-8.66699 -17.333 -8.66699 -28.5 0 -33.5s25.334 -4.16699 50.001 2.5l14 -57c-29.333 -10.667 -55.833 -17.167 -79.5 -19.5
s-42.667 -0.666016 -57 5.00098s-25.333 13.667 -33 24s-11.334 22.333 -11.001 36s4.16602 27.834 11.499 42.501c17.333 34 51.333 67.667 102 101c-81.333 6.66699 -138.666 33 -171.999 79s-43.666 116.333 -30.999 211l58 412h153l-59 -418
c-9.33301 -62.667 -7.33301 -105.334 6 -128.001s43.333 -34 90 -34c48 0 82.667 12 104 36s36.666 68 45.999 132l58 412h153z"/>
            <glyph glyph-name="uogonek" unicode="&#x173;" horiz-adv-x="587"
                   d="M555 493l-67.9971 -493.003c-28.667 -32 -52.667 -66.667 -72 -104c-9.33301 -17.333 -9.5 -28.5 -0.5 -33.5s25.5 -4.16699 49.5 2.5l14 -57c-29.333 -10.667 -55.833 -17.167 -79.5 -19.5s-42.5 -0.666016 -56.5 5.00098s-24.833 13.667 -32.5 24
s-11.334 22.333 -11.001 36s4.16602 27.834 11.499 42.501c17.333 34.667 52.333 69.334 105 104.001h-42v93c-73.333 -70.667 -144.333 -106 -213 -106c-47.333 0 -81.833 12.333 -103.5 37s-29.167 58.667 -22.5 102l51 367h148l-47 -327
c-2.66699 -20 -1.16699 -34.167 4.5 -42.5s16.5 -12.5 32.5 -12.5c21.333 0 42.166 5.66699 62.499 17s47.5 31.333 81.5 60l42 305h146z"/>
            <glyph glyph-name="Wcircumflex" unicode="&#x174;" horiz-adv-x="967"
                   d="M737 772l-45 -52l-131 98h-8l-156 -96l-37 56l149 133h101zM998 690l-201.999 -651.001c-8 -26 -26.667 -39 -56 -39h-144c-13.333 0 -25 4.5 -35 13.5s-15.333 19.833 -16 32.5l-13 446v88h-19c-8.66699 -36.667 -16.334 -66.334 -23.001 -89.001l-137 -451
c-8 -26.667 -27 -40 -57 -40h-145c-13.333 0 -25.166 4.33301 -35.499 13s-15.5 19.334 -15.5 32.001l-21 645h152v-482c0 -11.333 -0.5 -29.166 -1.5 -53.499s-1.5 -39.833 -1.5 -46.5h20c3.33301 14 13 49.333 29 106l133 432c8.66699 29.333 28 44 58 44h129
c14 0 25.5 -4.83301 34.5 -14.5s13.5 -21.5 13.5 -35.5l19 -433c1.33301 -43.333 1.66602 -76.333 0.999023 -99h21c10 45.333 18.333 80 25 104l132 478h155z"/>
            <glyph glyph-name="wcircumflex" unicode="&#x175;" horiz-adv-x="888"
                   d="M668 590l-46 -52l-131 98h-8l-155 -96l-37 56l148 133h101zM226 102h11.002c19.333 0 35.333 16.667 48 50c11.333 26.667 22.333 65 33 115c8.66699 38 19 101.333 31 190c4 24 18 36 42 36h139c10.667 0 19.5 -3.33301 26.5 -10s10.833 -15 11.5 -25l27 -356h10
c9.33301 0 16.833 4.33301 22.5 13s11.5 21.334 17.5 38.001c15.333 32.667 30.666 75.334 45.999 128.001c18 65.333 31 136 39 212h150c-16.667 -92.667 -37.667 -175.667 -63 -249c-22.667 -68 -45.334 -121 -68.001 -159c-16.667 -31.333 -35.334 -53.333 -56.001 -66
s-50.667 -19 -90 -19h-73c-12 0 -22 3.66699 -30 11s-12.333 16.666 -13 27.999l-23 364h-12c-4 -46 -12.667 -101 -26 -165c-13.333 -56 -27.666 -100.667 -42.999 -134c-16 -42 -36.5 -69.833 -61.5 -83.5s-57.167 -20.5 -96.5 -20.5h-80c-12 0 -22 3.66699 -30 11
s-12.667 16.666 -14 27.999l-61 455h152z"/>
            <glyph glyph-name="Ycircumflex" unicode="&#x176;" horiz-adv-x="605"
                   d="M215 723l-37 56l148 133h102l127 -139l-45 -52l-131 98h-8zM367 225l-30.999 -225h-154l33 233l-160 457h153l78 -256c7.33301 -29.333 11.666 -59 12.999 -89h11c6.66699 30.667 18.667 61 36 91l150 254h164z"/>
            <glyph glyph-name="ycircumflex" unicode="&#x177;"
                   d="M166 540l-37 56l148 133h102l127 -139l-45 -52l-131 99h-8zM417 493h156.001c-14 -76 -34.833 -153.5 -62.5 -232.5s-56.834 -146.833 -87.501 -203.5c-50 -90.667 -103.5 -155.5 -160.5 -194.5s-124.833 -61.5 -203.5 -67.5l-18 91c46 12 83.5 25.5 112.5 40.5
s56.833 39.5 83.5 73.5h-59c-16 0 -29.5 4.66699 -40.5 14s-18.167 21.333 -21.5 36l-81 443h159l47 -377c1.33301 -10.667 7 -16 17 -16h40l4 9c52.667 109.333 91 237.333 115 384z"/>
            <glyph glyph-name="Ydieresis" unicode="&#x178;" horiz-adv-x="605"
                   d="M479 763h-54c-20.667 0 -29.667 9.66699 -27 29l10 63c2.66699 20.667 14 31 34 31h51c22.667 0 32 -10 28 -30l-9 -63c-2.66699 -20 -13.667 -30 -33 -30zM304 763h-54c-20.667 0 -29.667 9.66699 -27 29l10 63c2.66699 20.667 14.667 31 36 31h49
c22.667 0 32 -10 28 -30l-9 -63c-2.66699 -20 -13.667 -30 -33 -30zM367 225l-30.999 -225h-154l33 233l-160 457h153l78 -256c7.33301 -29.333 11.666 -59 12.999 -89h11c6.66699 30.667 18.667 61 36 91l150 254h164z"/>
            <glyph glyph-name="Zacute" unicode="&#x179;"
                   d="M312 723l-37 63l218 151l57 -108zM187 117h328l-16 -117h-500l15 117l385 456h-312l16 117h485l-17 -117z"/>
            <glyph glyph-name="zacute" unicode="&#x17a;" horiz-adv-x="522"
                   d="M256 541l-37 63l219 150l56 -107zM492 388l-306 -282h270l-14 -106h-443l14 106h-1l307 282h-261l14 105h433z"/>
            <glyph glyph-name="Zdotaccent" unicode="&#x17b;"
                   d="M381 753h-45.001c-30.667 0 -44 14.667 -40 44l7 51c4 26 18.333 39 43 39h44c13.333 0 23.833 -3.83301 31.5 -11.5s10.834 -18.167 9.50098 -31.5l-7 -53c-2.66699 -25.333 -17 -38 -43 -38zM186.999 117h328l-16 -117h-500l15 117l385 456h-312l16 117h485l-17 -117z
"/>
            <glyph glyph-name="zdotaccent" unicode="&#x17c;" horiz-adv-x="522"
                   d="M325 570h-45.001c-30.667 0 -44 14.667 -40 44l7 52c4 25.333 18.667 38 44 38h43c14 0 24.667 -3.66699 32 -11s10.333 -18 9 -32l-7 -53c-3.33301 -25.333 -17.666 -38 -42.999 -38zM491.999 388l-306 -282h270l-14 -106h-443l14 106h-1l307 282h-261l14 105h433z"/>
            <glyph glyph-name="Zcaron" unicode="&#x17d;"
                   d="M315 739l-135 141l49 49l126 -92h8l156 91l35 -58l-160 -131h-79zM187 117h328l-16 -117h-500l15 117l385 456h-312l16 117h485l-17 -117z"/>
            <glyph glyph-name="zcaron" unicode="&#x17e;" horiz-adv-x="522"
                   d="M259 557l-134 140l49 50l125 -92h8l157 90l35 -57l-160 -131h-80zM492 388l-306 -282h270l-14 -106h-443l14 106h-1l307 282h-261l14 105h433z"/>
            <glyph glyph-name="florin" unicode="&#x192;" horiz-adv-x="470"
                   d="M483 593h-64.001c-22.667 0 -40.167 -4.66699 -52.5 -14s-21.5 -26.333 -27.5 -51l-28 -122h118l-22 -100h-119l-73 -319c-22.667 -100 -84 -150 -184 -150c-56.667 0 -100 3.66699 -130 11l29 98h61c43.333 0 70 22 80 66l68 294h-95l18 88l99 11l34 147
c24 100 86.333 150 187 150c52.667 0 96.334 -3.66699 131.001 -11z"/>
            <glyph glyph-name="Scommaaccent" unicode="&#x218;"
                   d="M323 262l-131 52.9971c-50 20.667 -83.667 47.334 -101 80.001s-23 73.667 -17 123c10 73.333 35.5 122.5 76.5 147.5s104.833 37.5 191.5 37.5c86 0 161 -9.33301 225 -28l-15 -103c-60 2 -131.333 3 -214 3c-40.667 0.666992 -68.334 -2.5 -83.001 -9.5
s-24.334 -25.833 -29.001 -56.5c-3.33301 -22.667 -1.5 -38.5 5.5 -47.5s23.5 -18.5 49.5 -28.5l124 -48c52.667 -20.667 87.334 -46.5 104.001 -77.5s21.667 -73.5 15 -127.5c-10 -76 -34.5 -127.167 -73.5 -153.5s-105.167 -39.5 -198.5 -39.5
c-77.333 0 -156.333 9 -237 27l16 109c141.333 -3.33301 213 -5 215 -5c46.667 0 78.334 4.5 95.001 13.5s27.334 28.167 32.001 57.5c2.66699 22.667 0.666992 38.334 -6 47.001s-21.334 17.334 -44.001 26.001zM246 -52.0029l29.998 0.00195312
c17.333 0 29.5 -3.5 36.5 -10.5s9.16699 -18.167 6.5 -33.5l-8 -52c-7.33301 -50.667 -29.666 -99.334 -66.999 -146.001l-59 19c16.667 40.667 28.334 75 35.001 103c-14 -0.666992 -24 2.16602 -30 8.49902s-8.33301 15.833 -7 28.5l7 42
c2.66699 16 8.16699 26.833 16.5 32.5s21.5 8.5 39.5 8.5z"/>
            <glyph glyph-name="scommaaccent" unicode="&#x219;" horiz-adv-x="524"
                   d="M268 177l-119.001 49.001c-40 16 -68 36.333 -84 61s-21.667 55.667 -17 93c5.33301 45.333 25.166 78 59.499 98s88.166 29.667 161.499 29c90.667 -1.33301 166.667 -8 228 -20l-14 -94c-128 2 -193 3 -195 3c-38.667 0 -64.334 -1.5 -77.001 -4.5
s-20 -10.167 -22 -21.5c-1.33301 -11.333 1.83398 -19.833 9.50098 -25.5s22.5 -12.834 44.5 -21.501l121 -48c40.667 -16 69.334 -35.333 86.001 -58s22.667 -53 18 -91c-4 -29.333 -11.833 -53.333 -23.5 -72s-28.5 -32.667 -50.5 -42s-45.667 -15.5 -71 -18.5
s-57.666 -4.5 -96.999 -4.5c-60 0 -132.333 6 -217 18l14 95c24 -1.33301 76.333 -2 157 -2c57.333 0 95.333 2 114 6s29.334 12.667 32.001 26c1.33301 10 -1.16699 17.333 -7.5 22s-18.833 10.667 -37.5 18zM202.999 -49.999l30.001 0.000976562
c17.333 0 29.5 -3.5 36.5 -10.5s9.16699 -18.167 6.5 -33.5l-8 -52c-7.33301 -50 -29.333 -98.667 -66 -146l-59 19c15.333 36.667 26.666 71 33.999 103c-14 -0.666992 -24 2.16602 -30 8.49902s-8.33301 15.833 -7 28.5l7 42c3.33301 16 9 26.833 17 32.5s21 8.5 39 8.5z
"/>
            <glyph glyph-name="uni021A" unicode="&#x21a;" horiz-adv-x="594"
                   d="M617 566h-206l-79 -566h-153l80 566h-205l17 124h563zM231 -48l29.999 0.00195312c17.333 0 29.5 -3.5 36.5 -10.5s9.16699 -18.167 6.5 -33.5l-8 -52c-7.33301 -50.667 -29.666 -99.334 -66.999 -146.001l-59 19c15.333 34.667 27 69 35 103
c-14 -0.666992 -24 2.16602 -30 8.49902s-8.33301 15.833 -7 28.5l7 42c2.66699 16 8.16699 26.833 16.5 32.5s21.5 8.5 39.5 8.5z"/>
            <glyph glyph-name="uni021B" unicode="&#x21b;" horiz-adv-x="410"
                   d="M266 394l-32.999 -236c-2.66699 -18.667 -1.16699 -31.167 4.5 -37.5s18.5 -9.5 38.5 -9.5h66l7 -104c-35.333 -12.667 -81.333 -19 -138 -19c-46.667 0 -81.334 12.833 -104.001 38.5s-30.667 61.167 -24 106.5l38 261h-89l12 94l91 5l20 138h145l-19 -138h136l-14 -99
h-137zM177.001 -50l29.999 0.00195312c17.333 0 29.5 -3.5 36.5 -10.5s9.16699 -18.167 6.5 -33.5l-8 -52c-7.33301 -50.667 -29.666 -99.334 -66.999 -146.001l-59 19c15.333 34.667 27 69 35 103c-14 -0.666992 -24 2.16602 -30 8.49902s-8.33301 15.833 -7 28.5l7 42
c2.66699 16 8.16699 26.833 16.5 32.5s21.5 8.5 39.5 8.5z"/>
            <glyph glyph-name="circumflex" unicode="&#x2c6;" horiz-adv-x="448"
                   d="M463 587l-45 -52l-131 98h-8l-156 -96l-37 56l148 133h102z"/>
            <glyph glyph-name="caron" unicode="&#x2c7;" horiz-adv-x="448"
                   d="M469 683l-160 -131h-79l-135 140l49 50l126 -92h8l156 90z"/>
            <glyph glyph-name="breve" unicode="&#x2d8;" horiz-adv-x="393"
                   d="M354 708l68.999 -13c-0.666992 -42.667 -17.167 -78.167 -49.5 -106.5s-75.166 -42.5 -128.499 -42.5c-54.667 0 -96.167 15 -124.5 45s-36.833 66.333 -25.5 109l72 5c-3.33301 -21.333 2 -37 16 -47s35.667 -15 65 -15c32 0 57.167 5.83301 75.5 17.5
s28.5 27.5 30.5 47.5z"/>
            <glyph glyph-name="dotaccent" unicode="&#x2d9;" horiz-adv-x="236"
                   d="M155 703h43.999c13.333 0 23.833 -3.83301 31.5 -11.5s10.834 -18.167 9.50098 -31.5l-7 -53c-4 -26 -18.333 -39 -43 -39h-45c-14.667 0 -25.5 4 -32.5 12s-9.5 18.667 -7.5 32l7 52c2.66699 26 17 39 43 39z"/>
            <glyph glyph-name="ring" unicode="&#x2da;" horiz-adv-x="309"
                   d="M215 757c35.333 0 64 -11.333 86 -34s31 -51 27 -85c-4 -30.667 -17 -56.334 -39 -77.001s-50 -31 -84 -31c-35.333 0 -63.833 11.5 -85.5 34.5s-30.5 51.167 -26.5 84.5c3.33301 30.667 16 56.334 38 77.001s50 31 84 31zM214 696
c-14.667 0 -26.8291 -4.83203 -36.4961 -14.499s-15.167 -21.834 -16.5 -36.501c-2 -16.667 1.5 -29.667 10.5 -39s20.833 -14 35.5 -14c15.333 0 27.666 5 36.999 15s14.666 23 15.999 39c1.33301 14.667 -2.33398 26.667 -11.001 36s-20.334 14 -35.001 14z"/>
            <glyph glyph-name="ogonek" unicode="&#x2db;" horiz-adv-x="251"
                   d="M102 5l64.002 -5.00195c-28.667 -32 -52.667 -66.667 -72 -104c-9.33301 -17.333 -9.5 -28.5 -0.5 -33.5s25.5 -4.16699 49.5 2.5l14 -57c-29.333 -10.667 -55.833 -17.167 -79.5 -19.5s-42.5 -0.666016 -56.5 5.00098s-24.833 13.667 -32.5 24
s-11.334 22.333 -11.001 36s4.16602 27.834 11.499 42.501c19.333 38 57 74.333 113 109z"/>
            <glyph glyph-name="tilde" unicode="&#x2dc;" horiz-adv-x="439"
                   d="M157 567l-62.999 5.99805c0.666992 46.667 9.66699 81.834 27 105.501s39.666 34.834 66.999 33.501c22 -1.33301 49.667 -9.16602 83 -23.499s56 -22.5 68 -24.5c18 -3.33301 30.833 -1.16602 38.5 6.50098s12.834 20.834 15.501 39.501l62 -6
c0.666992 -46 -7.5 -80.833 -24.5 -104.5s-39.5 -34.834 -67.5 -33.501c-24 1.33301 -53 9.66602 -87 24.999s-56 23.666 -66 24.999c-17.333 2.66699 -29.833 0 -37.5 -8s-12.834 -21.667 -15.501 -41z"/>
            <glyph glyph-name="hungarumlaut" unicode="&#x2dd;" horiz-adv-x="501"
                   d="M322 682l-170 -162l-60 42l143 181zM511 682l-170 -162l-59 41l142 182z"/>
            <glyph glyph-name="Delta" unicode="&#x394;" horiz-adv-x="663"
                   d="M609 53l-6 -53h-620l6 53l324 637h151zM449 114l-67.999 344c-5.33301 28.667 -8.33301 57.667 -9 87c-12.667 -40.667 -23.334 -70 -32.001 -88l-166 -343h275z"/>
            <glyph glyph-name="Omega" unicode="&#x3a9;" horiz-adv-x="717"
                   d="M20 123l80.002 -0.00390625c24.667 0 48.334 -4 71.001 -12c-41.333 42.667 -70 85.167 -86 127.5s-19.667 94.5 -11 156.5c14 104.667 47.167 182.167 99.5 232.5s130.5 75.5 234.5 75.5c204.667 0 292 -107.333 262 -322
c-9.33301 -65.333 -26.833 -117.166 -52.5 -155.499s-66.834 -76.833 -123.501 -115.5c23.333 8.66699 47.333 13 72 13h82l-16 -123h-277l13 115c44.667 32.667 77.167 67.334 97.5 104.001s34.833 86.334 43.5 149.001c11.333 80 9.16602 135.5 -6.50098 166.5
s-49.167 46.5 -100.5 46.5c-54 0 -93.5 -15.667 -118.5 -47s-43.167 -87 -54.5 -167c-9.33301 -62.667 -9.33301 -112.167 0 -148.5s30.666 -71.166 63.999 -104.499l-13 -114h-276z"/>
            <glyph glyph-name="mu" unicode="&#x3bc;" horiz-adv-x="618"
                   d="M572 493l-70 -493h-115l-2 75c-67.333 -58.667 -132 -88 -194 -88c-16.667 0 -30.667 1.33301 -42 4c2.66699 -24 2.66699 -44 0 -60l-17 -121h-128l46 329l50 354h148l-47 -327c-2.66699 -18 -0.5 -30.5 6.5 -37.5s19.833 -10.5 38.5 -10.5
c36.667 0 80.667 14.667 132 44l45 331h149z"/>
            <glyph glyph-name="pi" unicode="&#x3c0;" horiz-adv-x="647"
                   d="M640 388h-78l-55 -388h-147l54 388h-154l-54 -388h-148l55 388h-79l15 106h606z"/>
            <glyph glyph-name="uni0401" unicode="&#x401;" horiz-adv-x="572"
                   d="M495 775h-53.002c-21.333 0 -30.666 9.66699 -27.999 29l10 63c2.66699 20.667 14.334 31 35.001 31h50c22 0 31.667 -10.333 29 -31l-10 -62c-2.66699 -20 -13.667 -30 -33 -30zM319.998 775h-53.001c-21.333 0 -30.666 9.66699 -27.999 29l10 63
c2.66699 20.667 14.667 31 36 31h49c22 0 31.667 -10.333 29 -31l-10 -63c-2.66699 -19.333 -13.667 -29 -33 -29zM563.997 570l-257.999 0.00195312c-19.333 0 -33.166 -3.83301 -41.499 -11.5s-13.833 -21.834 -16.5 -42.501l-15 -104h272l-14 -108h-273l-18 -133
c-2.66699 -18.667 -0.5 -31.834 6.5 -39.501s19.833 -11.5 38.5 -11.5h255l-4 -113c-58.667 -6.66699 -158.334 -10 -299.001 -10c-56 0 -97 14.833 -123 44.5s-35.667 70.167 -29 121.5l55 394c6 42.667 23.167 76 51.5 100s66.166 36 113.499 36
c145.333 0 251.333 -3.66699 318 -11z"/>
            <glyph glyph-name="uni0402" unicode="&#x402;" horiz-adv-x="759"
                   d="M412 566l-24.999 -173.002c59.333 37.333 122.666 56 189.999 56c56 0 97.333 -16.333 124 -49s34 -89 22 -169c-14 -90 -45.667 -153 -95 -189s-116 -53.333 -200 -52l-8 108c49.333 6.66699 84.833 19.334 106.5 38.001s36.5 50.667 44.5 96
c6.66699 38.667 4.66699 63.834 -6 75.501s-28 17.5 -52 17.5c-46 0 -93.333 -16 -142 -48l-39 -277h-153l80 566h-204l17 124h562l-16 -124h-206z"/>
            <glyph glyph-name="uni0403" unicode="&#x403;" horiz-adv-x="527"
                   d="M553 829l-237 -106l-37 63l218 151zM28 0l76.001 548c6.66699 46 24 81.667 52 107s62.667 38 104 38c141.333 0 243.333 -4 306 -12l-18 -111h-231c-22.667 0 -38.334 -3.83301 -47.001 -11.5s-14.667 -23.167 -18 -46.5l-72 -512h-152z"/>
            <glyph glyph-name="uni0404" unicode="&#x404;" horiz-adv-x="586"
                   d="M600 678l-20.998 -113c-72 3.33301 -131 5 -177 5c-58.667 0 -100.334 -10.333 -125.001 -31s-43.334 -63 -56.001 -127h278l-13 -108h-281c-8 -71.333 -4.66699 -119 10 -143s47.667 -37.667 99 -41c65.333 -2.66699 132 0.666016 200 9.99902l6 -115
c-64 -20.667 -135.667 -29.667 -215 -27c-110.667 3.33301 -184.5 32 -221.5 86s-46.833 146.333 -29.5 277c18 132.667 52.833 224.334 104.5 275.001s132.167 76 241.5 76c75.333 0 142 -8 200 -24z"/>
            <glyph glyph-name="uni0405" unicode="&#x405;"
                   d="M323 262l-131 52.9971c-50 20.667 -83.667 47.334 -101 80.001s-23 73.667 -17 123c10 73.333 35.5 122.5 76.5 147.5s104.833 37.5 191.5 37.5c86 0 161 -9.33301 225 -28l-15 -103c-60 2 -131.333 3 -214 3c-40.667 0.666992 -68.334 -2.5 -83.001 -9.5
s-24.334 -25.833 -29.001 -56.5c-3.33301 -22.667 -1.5 -38.5 5.5 -47.5s23.5 -18.5 49.5 -28.5l124 -48c52.667 -20.667 87.334 -46.5 104.001 -77.5s21.667 -73.5 15 -127.5c-10 -76 -34.5 -127.167 -73.5 -153.5s-105.167 -39.5 -198.5 -39.5
c-77.333 0 -156.333 9 -237 27l16 109c141.333 -3.33301 213 -5 215 -5c46.667 0 78.334 4.5 95.001 13.5s27.334 28.167 32.001 57.5c2.66699 22.667 0.666992 38.334 -6 47.001s-21.334 17.334 -44.001 26.001z"/>
            <glyph glyph-name="uni0406" unicode="&#x406;" horiz-adv-x="294"
                   d="M182 0h-152l97 690h152z"/>
            <glyph glyph-name="uni0407" unicode="&#x407;" horiz-adv-x="292"
                   d="M291 886h51c21.333 0 30.666 -10 27.999 -30l-10 -63c-2 -20 -13 -30 -33 -30h-53c-20.667 0 -30 9.66699 -28 29l10 63c2.66699 20.667 14.334 31 35.001 31zM117 886l50 0.000976562c12 0 20 -2.33301 24 -7s5.33301 -12.334 4 -23.001l-10 -63c-2 -20 -13 -30 -33 -30
h-53c-20.667 0 -30 9.66699 -28 29l10 63c2.66699 20.667 14.667 31 36 31zM181 0.000976562h-153l97 690h153z"/>
            <glyph glyph-name="uni0408" unicode="&#x408;" horiz-adv-x="366"
                   d="M354 690l-76.999 -548c-6.66699 -50 -24.5 -88.167 -53.5 -114.5s-66.5 -39.5 -112.5 -39.5c-54 0 -96.333 7 -127 21l26 101h41c45.333 0 70.666 18.667 75.999 56l74 524h153z"/>
            <glyph glyph-name="uni0409" unicode="&#x409;" horiz-adv-x="983"
                   d="M625 434l93 0.00292969c92.667 0 155.834 -16.833 189.501 -50.5s44.167 -92.834 31.5 -177.501c-11.333 -83.333 -34.333 -139.833 -69 -169.5s-93 -44.5 -175 -44.5c-123.333 0 -217.333 2.66699 -282 8l82 580h-68c-22.667 0 -39.334 -4.66699 -50.001 -14
s-18.667 -26 -24 -50c-2.66699 -12.667 -8.33398 -37.667 -17.001 -75l-17.5 -75.5c-3 -13 -8.16699 -33.5 -15.5 -61.5s-13.5 -49.167 -18.5 -63.5s-11.167 -30.833 -18.5 -49.5s-15 -35.334 -23 -50.001c-27.333 -54 -61 -91.833 -101 -113.5
s-88.667 -31.834 -146 -30.501l-5 126c57.333 9.33301 95.333 32.333 114 69c18 30.667 33.333 68.167 46 112.5s29.334 112.5 50.001 204.5l9 42c21.333 92.667 77.333 139 168 139h283zM580 110.003h88c43.333 0 72.5 6.5 87.5 19.5s25.833 42.167 32.5 87.5
c6 44 4.33301 73.333 -5 88s-34.333 22 -75 22h-98z"/>
            <glyph glyph-name="uni040A" unicode="&#x40a;" horiz-adv-x="975"
                   d="M618 428h97.002c87.333 0 148.166 -16.5 182.499 -49.5s45.5 -92.5 33.5 -178.5c-10.667 -80 -33.334 -134.667 -68.001 -164s-91.667 -44 -171 -44c-126 0 -221 2.66699 -285 8l45 316h-224l-44 -316h-153l97 690h153l-37 -263h223l37 263h151zM573.002 110h92
c41.333 0 69.333 6.5 84 19.5s25 40.833 31 83.5c6 40.667 4.33301 68.167 -5 82.5s-34 21.5 -74 21.5h-99z"/>
            <glyph glyph-name="uni040B" unicode="&#x40b;" horiz-adv-x="777"
                   d="M411 566l-24.002 -168c68.667 36.667 135.667 55 201 55c58.667 0 99.834 -14 123.501 -42s31.834 -71 24.501 -129l-39 -282h-153l36 256c4 26.667 1.5 44.667 -7.5 54s-27.5 14 -55.5 14c-45.333 0 -94 -15.333 -146 -46l-39 -278h-153l79 566h-204l17 124h563
l-17 -124h-206z"/>
            <glyph glyph-name="uni040C" unicode="&#x40c;" horiz-adv-x="633"
                   d="M345 723l-37 63l218 151l57 -108zM390 360l-0.999023 -4.00098c25.333 -4 46.166 -10.5 62.499 -19.5s30.333 -20.667 42 -35s21.5 -34.166 29.5 -59.499s15.167 -53.833 21.5 -85.5s13.833 -71.834 22.5 -120.501l6 -36h-154c-20.667 122 -34.334 194.667 -41.001 218
c-12.667 43.333 -33 69.666 -61 78.999c-12 4.66699 -27.333 7 -46 7h-53c2 -22 1 -45 -3 -69l-33 -235h-152l97 690h152l-28 -198c-4.66699 -32 -10.334 -58.333 -17.001 -79h45c20 0 38.167 4 54.5 12s30.333 17.5 42 28.5s24.834 30.333 39.501 58
s26.834 52.334 36.501 74.001l44.5 104.5h158c-50.667 -117.333 -85 -190.666 -103 -219.999c-31.333 -52 -69 -85.333 -113 -100c-14.667 -4.66699 -30.667 -8 -48 -10z"/>
            <glyph glyph-name="uni040D" unicode="&#x40d;" horiz-adv-x="710"
                   d="M494 786l-49 -63l-221 114l66 97zM598 0l-146 0.000976562l57 396c5.33301 37.333 13.333 73.666 24 108.999h-6c-23.333 -45.333 -40.333 -75.666 -51 -90.999l-289 -414h-157l97 690h147l-55 -391c-4.66699 -32.667 -13.667 -70.334 -27 -113.001h7
c14.667 32 32.667 63.333 54 94l287 410h155z"/>
            <glyph glyph-name="uni040E" unicode="&#x40e;" horiz-adv-x="592"
                   d="M471 902l68.998 -13c-1.33301 -43.333 -18.166 -79 -50.499 -107s-75.166 -42 -128.499 -42c-55.333 0 -97 15.167 -125 45.5s-36 66.5 -24 108.5l71 4c-3.33301 -20.667 2 -36 16 -46s35.667 -15 65 -15c66 0 101.667 21.667 107 65zM643.998 690l-240 -514
c-28 -60.667 -56.167 -105.834 -84.5 -135.501s-64.833 -46.5 -109.5 -50.5c-48.667 -4 -105 1.33301 -169 16l24 107c62.667 -3.33301 103.667 -1.66602 123 5.00098s38.333 26 57 58l11 20h-32c-45.333 0 -72 23.667 -80 71l-83 423h152l58 -364
c0.666992 -8.66699 5.66699 -13 15 -13h27l169 377h162z"/>
            <glyph glyph-name="uni040F" unicode="&#x40f;" horiz-adv-x="693"
                   d="M677 690l-97 -690h-210l-27 -151h-105l16 151h-223l97 690h153l-81 -580h243l81 580h153z"/>
            <glyph glyph-name="uni0410" unicode="&#x410;" horiz-adv-x="647"
                   d="M432 180h-238.001l-74 -180h-159l290 653c9.33301 24.667 27.666 37 54.999 37h144c12.667 0 23.834 -4.16699 33.501 -12.5s14.834 -18.5 15.501 -30.5l108 -647h-152zM415.999 301l-27 209c-2 14.667 -3.66699 37 -5 67h-29c-12 -34 -20 -56 -24 -66l-87 -210h172z"/>
            <glyph glyph-name="uni0411" unicode="&#x411;" horiz-adv-x="616"
                   d="M240 410h98.999c94.667 0 159.167 -15.833 193.5 -47.5s45.833 -87.167 34.5 -166.5s-35.166 -133.333 -71.499 -162s-95.5 -43 -177.5 -43c-118 0 -214 3 -288 9l97 690c72.667 4.66699 151.667 7 237 7c62.667 0 139.667 -2.33301 231 -7l-29 -118h-303zM196.999 108
h96c45.333 0 75.833 6.5 91.5 19.5s26.167 41.167 31.5 84.5c5.33301 39.333 3 64.833 -7 76.5s-36.333 17.5 -79 17.5h-105z"/>
            <glyph glyph-name="uni0412" unicode="&#x412;" horiz-adv-x="637"
                   d="M30 0l96.998 690.002c58.667 5.33301 142.334 8 251.001 8c88.667 0 150.334 -13.333 185.001 -40s47 -75.334 37 -146.001c-7.33301 -49.333 -21.5 -86 -42.5 -110s-53.167 -38 -96.5 -42l-1 -6c96 -7.33301 135.333 -70 118 -188
c-10 -68.667 -33.333 -114.834 -70 -138.501s-97 -35.5 -181 -35.5c-130.667 0 -229.667 2.66699 -297 8zM235.998 409.002h106c37.333 0 64 6.5 80 19.5s26.667 37.833 32 74.5c4.66699 32 1.16699 53.167 -10.5 63.5s-35.5 15.5 -71.5 15.5h-111zM193.998 108.002h106.001
c44.667 0 75.667 6.5 93 19.5s28.666 39.5 33.999 79.5c5.33301 39.333 2 65.5 -10 78.5s-38.667 19.833 -80 20.5h-115z"/>
            <glyph glyph-name="uni0413" unicode="&#x413;" horiz-adv-x="527"
                   d="M28 0l76.001 548c6.66699 46 24 81.667 52 107s62.667 38 104 38c141.333 0 243.333 -4 306 -12l-18 -111h-231c-22.667 0 -38.334 -3.83301 -47.001 -11.5s-14.667 -23.167 -18 -46.5l-72 -512h-152z"/>
            <glyph glyph-name="uni0414" unicode="&#x414;" horiz-adv-x="738"
                   d="M677 7l-22.002 -158.001h-114l10 151h-448l-33 -151h-115l21 151l15 110h69c36 66 65.833 133.833 89.5 203.5s45.834 148.834 66.501 237.501c9.33301 44.667 28.833 79 58.5 103s67.834 36 114.501 36h294l-82 -580h90zM448.998 109.999l67.001 470h-81
c-21.333 0 -38 -5 -50 -15s-20.333 -26.667 -25 -50c-38.667 -175.333 -83.334 -310.333 -134.001 -405h223z"/>
            <glyph glyph-name="uni0415" unicode="&#x415;" horiz-adv-x="573"
                   d="M565 570l-258 0.00195312c-19.333 0 -33.166 -3.83301 -41.499 -11.5s-13.833 -21.834 -16.5 -42.501l-15 -104h272l-14 -108h-272l-19 -133c-2.66699 -18.667 -0.5 -31.834 6.5 -39.501s19.833 -11.5 38.5 -11.5h255l-3 -113c-59.333 -6.66699 -159 -10 -299 -10
c-56.667 0 -98 14.833 -124 44.5s-35.333 70.167 -28 121.5l54 394c6 42.667 23.167 76 51.5 100s66.166 36 113.499 36c145.333 0 251.333 -3.66699 318 -11z"/>
            <glyph glyph-name="uni0416" unicode="&#x416;" horiz-adv-x="929"
                   d="M690 361l-0.998047 -4.99805c18.667 -2.66699 34.667 -6.66699 48 -12s25.166 -13.666 35.499 -24.999s19 -23.833 26 -37.5s13.833 -32.334 20.5 -56.001s12.667 -47.834 18 -72.501s11.666 -56.667 18.999 -96l11 -57h-152c-4 20 -9 47 -15 81l-14.5 76.5
c-3 15.667 -7.33301 34.334 -13 56.001s-10.667 36.334 -15 44.001s-10.333 16.167 -18 25.5s-16 15.166 -25 17.499s-20.167 3.5 -33.5 3.5h-46c2 -22 1.33301 -45 -2 -69l-33 -235h-147l34 241c3.33301 19.333 9 40.333 17 63h-43c-36.667 0 -66.5 -16 -89.5 -48
s-60.167 -101.667 -111.5 -209c-9.33301 -20.667 -16.666 -36.334 -21.999 -47.001h-162l33.5 75.5l29 62.5c12.333 26 21.333 44.333 27 55l24 43.5c10.333 18.333 18.5 31 24.5 38l23.5 27.5c9.66699 11.333 18.334 19 26.001 23l27.5 15c10.667 6 21.5 10.167 32.5 12.5
s23.167 4.5 36.5 6.5l1 5c-18.667 3.33301 -34.834 8.16602 -48.501 14.499s-25.5 15.333 -35.5 27s-18.5 24.667 -25.5 39s-13.5 33.166 -19.5 56.499s-11.333 47.333 -16 72l-17 93c-2 10.667 -3.33301 18.667 -4 24h151c2 -10.667 4.66699 -26 8 -46l13 -74
c2.66699 -15.333 6.66699 -34 12 -56s10.333 -37.5 15 -46.5s10.667 -18.667 18 -29s15.5 -17.166 24.5 -20.499s19.833 -5 32.5 -5h52c-2 28 -1 56.333 3 85l27 192h146l-29 -198c-3.33301 -27.333 -8.66602 -53.666 -15.999 -78.999h34c38 0 68.5 16.167 91.5 48.5
s56.833 97.166 101.5 194.499c7.33301 14.667 12.666 26 15.999 34h157c-52.667 -117.333 -84.334 -186 -95.001 -206c-29.333 -53.333 -62.333 -88.333 -99 -105c-19.333 -8.66699 -42 -14.667 -68 -18z"/>
            <glyph glyph-name="uni0417" unicode="&#x417;" horiz-adv-x="563"
                   d="M98 569l-5.00195 109.998c61.333 12.667 134 19 218 19c85.333 0 145.5 -13.667 180.5 -41s47.5 -75.666 37.5 -144.999c-7.33301 -49.333 -21.333 -86 -42 -110s-52.667 -38 -96 -42l-1 -6c90.667 -8.66699 127.667 -71.334 111 -188.001
c-9.33301 -67.333 -31.5 -113.166 -66.5 -137.499s-93.5 -36.5 -175.5 -36.5c-102.667 0 -191 10.333 -265 31l18 103c80.667 -12 152.667 -18 216 -18c41.333 0 70.666 6.83301 87.999 20.5s28.666 39.834 33.999 78.501c6 38.667 2.83301 64.5 -9.5 77.5
s-38.166 19.5 -77.499 19.5h-134l13 107h127c36.667 0 62.667 6.5 78 19.5s25.333 37.167 30 72.5c4.66699 32.667 1.33398 54 -9.99902 64s-35.666 15 -72.999 15c-51.333 0 -116.666 -4.33301 -195.999 -13z"/>
            <glyph glyph-name="uni0418" unicode="&#x418;" horiz-adv-x="710"
                   d="M598 0l-146 0.000976562l57 396c5.33301 37.333 13.333 73.666 24 108.999h-6c-23.333 -45.333 -40.333 -75.666 -51 -90.999l-289 -414h-157l97 690h147l-55 -391c-4.66699 -32.667 -13.667 -70.334 -27 -113.001h7c14.667 32 32.667 63.333 54 94l287 410h155z"/>
            <glyph glyph-name="uni0419" unicode="&#x419;" horiz-adv-x="710"
                   d="M504 894l96.998 -0.000976562c-1.33301 -44 -18.166 -80.667 -50.499 -110s-74.166 -44 -125.499 -44c-56 0 -98.167 14.667 -126.5 44s-36.833 66 -25.5 110h99c-6 -29.333 -4 -50.166 6 -62.499s27.333 -18.5 52 -18.5c46 0 70.667 27 74 81zM597.998 -0.000976562
l-146 0.000976562l57 396c5.33301 37.333 13.333 73.666 24 108.999h-6c-23.333 -45.333 -40.333 -75.666 -51 -90.999l-289 -414h-157l97 690h147l-55 -391c-4.66699 -32.667 -13.667 -70.334 -27 -113.001h7c14.667 32 32.667 63.333 54 94l287 410h155z"/>
            <glyph glyph-name="uni041A" unicode="&#x41a;" horiz-adv-x="633"
                   d="M390 360l-0.999023 -4.00098c25.333 -4 46.166 -10.5 62.499 -19.5s30.333 -20.667 42 -35s21.5 -34.166 29.5 -59.499s15.167 -53.833 21.5 -85.5s13.833 -71.834 22.5 -120.501l6 -36h-154c-20.667 122 -34.334 194.667 -41.001 218
c-12.667 43.333 -33 69.666 -61 78.999c-12 4.66699 -27.333 7 -46 7h-53c2 -22 1 -45 -3 -69l-33 -235h-152l97 690h152l-28 -198c-4.66699 -32 -10.334 -58.333 -17.001 -79h45c20 0 38.167 4 54.5 12s30.333 17.5 42 28.5s24.834 30.333 39.501 58
s26.834 52.334 36.501 74.001l44.5 104.5h158c-50.667 -117.333 -85 -190.666 -103 -219.999c-31.333 -52 -69 -85.333 -113 -100c-14.667 -4.66699 -30.667 -8 -48 -10z"/>
            <glyph glyph-name="uni041B" unicode="&#x41b;" horiz-adv-x="678"
                   d="M662 690l-96.999 -689.999h-152l82 580h-81c-23.333 0 -40.5 -4.66699 -51.5 -14s-19.167 -26 -24.5 -50c-16 -71.333 -28.333 -124.333 -37 -159s-19.5 -72.334 -32.5 -113.001s-26.833 -75 -41.5 -103c-56 -108.667 -138 -156.667 -246 -144l-6 121
c14 2.66699 24.167 5 30.5 7s15.333 5.66699 27 11s22 12.666 31 21.999s17.5 21.333 25.5 36c18.667 32.667 35.167 73.834 49.5 123.501s33.166 128.5 56.499 236.5c20 90.667 77.667 136 173 136h294z"/>
            <glyph glyph-name="uni041C" unicode="&#x41c;" horiz-adv-x="911"
                   d="M674 690l148.001 -0.00292969c18 0 31.667 -5.33301 41 -16s13 -25 11 -43l-62 -631h-143l59 571h-16l-164 -430c-10 -30.667 -31.667 -46 -65 -46h-100c-34.667 0 -53.667 17 -57 51l-48 425h-18l-99 -571h-144l115 636c3.33301 18.667 9.66602 32.334 18.999 41.001
s23 13 41 13h143c32.667 0 50.667 -17.333 54 -52l40 -344c2.66699 -29.333 4 -62 4 -98h15c8 28.667 18.333 60.334 31 95.001l130 352c10 30.667 31.667 46.334 65 47.001z"/>
            <glyph glyph-name="uni041D" unicode="&#x41d;" horiz-adv-x="687"
                   d="M672 690l-97 -690h-153l44 307h-240l-43 -307h-153l97 690h153l-37 -264h239l37 264h153z"/>
            <glyph glyph-name="uni041E" unicode="&#x41e;" horiz-adv-x="680"
                   d="M388 703c106 0 179.333 -27.167 220 -81.5s51.667 -148.5 33 -282.5c-18 -134.667 -51.5 -227 -100.5 -277s-126.167 -75 -231.5 -75c-108 0 -182 26.667 -222 80s-51 148 -33 284c18.667 132.667 52.5 224.5 101.5 275.5s126.5 76.5 232.5 76.5zM383 580
c-53.333 0 -91.3301 -16.167 -113.997 -48.5s-41 -96.5 -55 -192.5c-12.667 -90 -12.334 -150.667 0.999023 -182s45.666 -47 96.999 -47c52.667 0 90.667 16.5 114 49.5s42 96.833 56 191.5c13.333 91.333 13.166 152.333 -0.500977 183s-46.5 46 -98.5 46z"/>
            <glyph glyph-name="uni041F" unicode="&#x41f;" horiz-adv-x="688"
                   d="M673 690l-97 -690h-154l82 580h-239l-82 -580h-153l97 690h546z"/>
            <glyph glyph-name="uni0420" unicode="&#x420;" horiz-adv-x="611"
                   d="M30 0l96.999 689.999c61.333 6 146 9 254 9c92.667 0 156.334 -17.167 191.001 -51.5s46 -94.166 34 -179.499c-12 -88 -36.333 -146.667 -73 -176s-99 -44 -187 -44c-45.333 0 -88 3 -128 9l-36 -257h-152zM232.999 364.999l102.999 -0.000976562
c41.333 0 69.833 7.33301 85.5 22s26.834 45.334 33.501 92.001c6 40 3.33301 67.167 -8 81.5s-35 21.5 -71 21.5l-113 -1z"/>
            <glyph glyph-name="uni0421" unicode="&#x421;" horiz-adv-x="583"
                   d="M516 129l6 -113.998c-60 -18 -133.333 -27 -220 -27c-106.667 0 -179.167 28.167 -217.5 84.5s-48.5 149.166 -30.5 278.499c18.667 133.333 52 225.166 100 275.499s125.333 75.5 232 75.5c76.667 0 145.334 -8 206.001 -24l-20 -113c-54 3.33301 -118 5 -192 5
c-35.333 0 -63 -5.66699 -83 -17s-36.833 -33.5 -50.5 -66.5s-24.834 -82.167 -33.501 -147.5c-12 -86 -11.667 -144 1 -174s43.667 -45 93 -45c79.333 -0.666992 149 2.33301 209 9z"/>
            <glyph glyph-name="uni0422" unicode="&#x422;" horiz-adv-x="594"
                   d="M617 566h-206l-79 -566h-153l80 566h-205l17 124h563z"/>
            <glyph glyph-name="uni0423" unicode="&#x423;" horiz-adv-x="592"
                   d="M644 690l-240 -514c-28 -60.667 -56.167 -105.834 -84.5 -135.501s-64.833 -46.5 -109.5 -50.5c-48.667 -4 -105 1.33301 -169 16l24 107c62.667 -3.33301 103.667 -1.66602 123 5.00098s38.333 26 57 58l11 20h-32c-45.333 0 -72 23.667 -80 71l-83 423h152l58 -364
c0.666992 -8.66699 5.66699 -13 15 -13h27l169 377h162z"/>
            <glyph glyph-name="uni0424" unicode="&#x424;" horiz-adv-x="841"
                   d="M560 722l-12.001 -88.002c110.667 -7.33301 186.834 -33 228.501 -77s55.5 -115.667 41.5 -215c-13.333 -99.333 -46 -169.666 -98 -210.999s-136.667 -64.666 -254 -69.999l-12 -87h-153l12 88c-112.667 7.33301 -189.5 32.833 -230.5 76.5s-54.5 115.5 -40.5 215.5
c14 99.333 47.167 169.833 99.5 211.5s136.833 65.167 253.5 70.5l11 86h154zM524.999 519.998l-50.001 -342.001c66 4.66699 111.833 19.334 137.5 44.001s42.834 68.667 51.501 132c8 60.667 2.5 102.5 -16.5 125.5s-59.833 36.5 -122.5 40.5zM335.998 176.997l49 342.001
c-66 -4.66699 -111.833 -19.334 -137.5 -44.001s-42.5 -69 -50.5 -133c-8.66699 -60.667 -3.66699 -102.5 15 -125.5s60 -36.167 124 -39.5z"/>
            <glyph glyph-name="uni0425" unicode="&#x425;" horiz-adv-x="638"
                   d="M458 354l129 -354h-153l-100 307h-11l-187 -307h-168l230 354l-117 336h151l90 -285h13l177 285h160z"/>
            <glyph glyph-name="uni0426" unicode="&#x426;" horiz-adv-x="718"
                   d="M671 110l-15 -110l-21 -151h-114l10 151h-500l97 690h153l-81 -580h230l81 580h153l-82 -580h89z"/>
            <glyph glyph-name="uni0427" unicode="&#x427;" horiz-adv-x="653"
                   d="M638 690l-96.999 -690h-153l42 293c-74.667 -39.333 -144.667 -59 -210 -59c-62 0 -105.833 14 -131.5 42s-34.834 71 -27.501 129l41 285h152l-36 -259c-4.66699 -25.333 -2 -43 8 -53s28 -15 54 -15c52 0 107.333 15.333 166 46l39 281h153z"/>
            <glyph glyph-name="uni0428" unicode="&#x428;" horiz-adv-x="968"
                   d="M953 690l-97 -690h-826l97 690h149l-82 -580h190l82 580h148l-81 -580h190l81 580h149z"/>
            <glyph glyph-name="uni0429" unicode="&#x429;" horiz-adv-x="1005"
                   d="M958 110l-15 -110l-21 -151h-114l9 151h-786l97 690h149l-82 -580h189l81 580h149l-82 -580h189l81 580h149l-81 -580h88z"/>
            <glyph glyph-name="uni042A" unicode="&#x42a;" horiz-adv-x="759"
                   d="M399 434l94 0.000976562c92.667 0 156 -16.833 190 -50.5s44.667 -92.834 32 -177.501c-11.333 -83.333 -34.5 -139.833 -69.5 -169.5s-93.5 -44.5 -175.5 -44.5c-125.333 0 -220.333 2.66699 -285 8l80 566h-212l17 124h365zM353 110.001h90c44 0 73.5 6.5 88.5 19.5
s25.833 42.167 32.5 87.5c6 44 4.33301 73.333 -5 88s-35 22 -77 22h-98z"/>
            <glyph glyph-name="uni042B" unicode="&#x42b;" horiz-adv-x="896"
                   d="M244 434l94.999 -0.000976562c92.667 0 155.834 -16.667 189.501 -50s44.5 -92.666 32.5 -177.999c-11.333 -83.333 -34.5 -139.833 -69.5 -169.5s-93.5 -44.5 -175.5 -44.5c-126 0 -221.333 2.66699 -286 8l97 690h153zM879.999 689.999l-97 -690h-153l97 690h153z
M197.999 109.999h90.999c44 0 73.5 6.5 88.5 19.5s25.833 42.167 32.5 87.5c6 44 4.33301 73.333 -5 88s-34.666 22 -75.999 22h-100z"/>
            <glyph glyph-name="uni042C" unicode="&#x42c;" horiz-adv-x="608"
                   d="M244 434l96.999 0.000976562c92.667 0 156 -16.833 190 -50.5s45 -92.834 33 -177.501c-11.333 -82.667 -34.666 -139 -69.999 -169s-94 -45 -176 -45c-127.333 0 -223.333 2.66699 -288 8l97 690h153zM197.999 110.001h92c45.333 0 75.5 6.5 90.5 19.5
s25.5 42.167 31.5 87.5c6 44 4.33301 73.333 -5 88s-35 22 -77 22h-101z"/>
            <glyph glyph-name="uni042D" unicode="&#x42d;" horiz-adv-x="587"
                   d="M94 565l-6.00098 113.999c57.333 15.333 122.666 23 195.999 23c112.667 0 189.334 -27 230.001 -81s52 -148 34 -282c-17.333 -129.333 -50.5 -219.5 -99.5 -270.5s-126.5 -77.833 -232.5 -80.5c-83.333 -1.33301 -156 8.33398 -218 29.001l19 113
c57.333 -8.66699 123 -12 197 -10c52.667 2.66699 91 17 115 43s42.667 73.333 56 142h-280l13 108h282c3.33301 34.667 3.33301 62.5 0 83.5s-10.666 36.833 -21.999 47.5s-24.5 17.667 -39.5 21s-35.5 5 -61.5 5c-50.667 0 -111.667 -1.66699 -183 -5z"/>
            <glyph glyph-name="uni042E" unicode="&#x42e;" horiz-adv-x="968"
                   d="M242 412l127.997 -0.000976562c20.667 110 54 186 100 228s115 63 207 63c102 0 174 -27.667 216 -83s54 -149 36 -281c-19.333 -135.333 -53.166 -227.833 -101.499 -277.5s-126.166 -74.5 -233.499 -74.5c-97.333 0 -164.666 23.333 -201.999 70
s-50 128.334 -38 245.001h-128l-42 -302h-153l97 690h153zM768.997 350.999c12.667 90 12.499 150.667 -0.500977 182s-44.5 47 -94.5 47c-52 0 -89.5 -16.5 -112.5 -49.5s-41.167 -96.833 -54.5 -191.5c-12.667 -90 -12.5 -150.667 0.5 -182s43.5 -47 91.5 -47
c53.333 0 91.833 16.667 115.5 50s41.834 97 54.501 191z"/>
            <glyph glyph-name="uni042F" unicode="&#x42f;" horiz-adv-x="638"
                   d="M196 316l1.00195 4c-45.333 6.66699 -76.833 28.5 -94.5 65.5s-22.834 79.833 -15.501 128.5c9.33301 70 35 118.333 77 145s105.667 40 191 40c113.333 0 202.666 -3 267.999 -9l-97 -690h-153l37 265h-94c-22 0 -39.5 -4.66699 -52.5 -14s-23.833 -25.333 -32.5 -48
l-78 -203h-166l87 215c27.333 63.333 68 97 122 101zM427.002 382l27.999 199.001l-103 1c-38 0 -65.167 -6.33301 -81.5 -19s-26.833 -36.334 -31.5 -71.001c-5.33301 -39.333 -2.16602 -67.5 9.50098 -84.5s35.167 -25.5 70.5 -25.5h108z"/>
            <glyph glyph-name="uni0430" unicode="&#x430;" horiz-adv-x="594"
                   d="M491 0h-114.999l1 89c-50.667 -65.333 -118 -99 -202 -101c-62 -2 -103.833 18.167 -125.5 60.5s-25.5 111.5 -11.5 207.5c6.66699 45.333 16 83.5 28 114.5s25.333 55.5 40 73.5s33.667 31.667 57 41s45.833 15.333 67.5 18s49.167 4 82.5 4
c35.333 0 77.666 -3 126.999 -9s89 -13 119 -21zM400.001 398l-76.001 0.00195312c-48 0 -80.667 -8.33301 -98 -25s-30.333 -56.334 -39 -119.001c-8.66699 -63.333 -10.667 -103.833 -6 -121.5s19.334 -25.834 44.001 -24.501c43.333 0.666992 92.333 31.667 147 93z"/>
            <glyph glyph-name="uni0431" unicode="&#x431;" horiz-adv-x="590"
                   d="M560 728l13 -123.002c-39.333 -11.333 -83.833 -18.666 -133.5 -21.999s-85.834 -7.66602 -108.501 -12.999c-37.333 -9.33301 -64.5 -22.166 -81.5 -38.499s-31.833 -38.5 -44.5 -66.5c-12.667 -21.333 -22.334 -45 -29.001 -71l1 3c22.667 26 47.5 45.833 74.5 59.5
s62.167 20.5 105.5 20.5c79.333 0 132.333 -20 159 -60s35 -99.667 25 -179c-11.333 -88 -37.833 -151.667 -79.5 -191s-104.5 -59 -188.5 -59c-35.333 0 -66.333 3.16699 -93 9.5s-48.5 14.333 -65.5 24s-30.667 23 -41 40s-17.833 33.5 -22.5 49.5s-7 36.667 -7 62
s1 47.666 3 66.999s5 44 9 74c16 112 38.833 195.5 68.5 250.5s81.5 93.833 155.5 116.5c32.667 10 78.834 18.167 138.501 24.5s106.834 13.833 141.501 22.5zM323 374.998c-43.333 0 -73.333 -10 -90 -30s-28.667 -56 -36 -108
c-7.33301 -54 -6.16602 -90.667 3.50098 -110s32.167 -29 67.5 -29s62 10.5 80 31.5s31.333 60.5 40 118.5c7.33301 52 6.66602 86.167 -2.00098 102.5s-29.667 24.5 -63 24.5z"/>
            <glyph glyph-name="uni0432" unicode="&#x432;" horiz-adv-x="564"
                   d="M384 261l-1.00195 -4c49.333 -2.66699 83.833 -15.667 103.5 -39s25.834 -57 18.501 -101c-7.33301 -48.667 -29.166 -82.5 -65.499 -101.5s-94.833 -28.5 -175.5 -28.5c-100.667 0 -167.667 19.5 -201 58.5s-42 110.167 -26 213.5c14.667 98 42.667 164.167 84 198.5
s108.666 50.833 201.999 49.5c30.667 -0.666992 57.5 -3.16699 80.5 -7.5s45 -11.5 66 -21.5s35.833 -24.833 44.5 -44.5s10.667 -43.5 6 -71.5c-11.333 -61.333 -56.666 -95 -135.999 -101zM190.998 294l90.999 7.99805c34.667 2.66699 58.834 7.83398 72.501 15.501
s22.5 18.834 26.5 33.501c4.66699 19.333 1.16699 32.5 -10.5 39.5s-34.167 10.5 -67.5 10.5c-38 0 -64.167 -7.33301 -78.5 -22s-25.5 -43 -33.5 -85zM276.997 214.998l-99.001 -7.99805c-6 -48.667 -4.16699 -79.834 5.5 -93.501s31.834 -20.5 66.501 -20.5
c39.333 0 67 4.16699 83 12.5s25.667 24.833 29 49.5c3.33301 24 -1 40.667 -13 50s-36 12.666 -72 9.99902z"/>
            <glyph glyph-name="uni0433" unicode="&#x433;" horiz-adv-x="534"
                   d="M70 372l-1.99707 98.002c66.667 22.667 140.334 35 221.001 37c32.667 0.666992 61 -0.5 85 -3.5s46.667 -8.66699 68 -17s37.166 -21.833 47.499 -40.5s14.166 -41.667 11.499 -69c-2 -21.333 -7.66699 -40.833 -17 -58.5s-19 -31.5 -29 -41.5
s-23.833 -19.667 -41.5 -29s-29.834 -15.166 -36.501 -17.499s-17.334 -5.83301 -32.001 -10.5l-127 -44c-23.333 -8 -39 -15 -47 -21s-12.333 -13.667 -13 -23c-1.33301 -13.333 4 -21.833 16 -25.5s33.667 -4.83398 65 -3.50098c79.333 2.66699 152.333 12.667 219 30
l8 -102c-76.667 -28.667 -156.667 -43 -240 -43c-74.667 0 -130 11.833 -166 35.5s-51.333 61.167 -46 112.5c4 37.333 17.5 66.666 40.5 87.999s56.167 39.333 99.5 54l122 41c31.333 10 53 18.667 65 26s18 16.666 18 27.999c0.666992 10.667 -5 17.5 -17 20.5
s-37.667 3.83301 -77 2.5c-44 -2.66699 -109 -10.667 -195 -24z"/>
            <glyph glyph-name="uni0434" unicode="&#x434;" horiz-adv-x="583"
                   d="M135 620l21.001 99c142.667 -15.333 246.5 -57.333 311.5 -126s88.167 -172.667 69.5 -312c-14 -104 -43 -179 -87 -225s-111 -69 -201 -69c-162 0 -232.667 78.333 -212 235c10 76.667 33.667 134 71 172s90.666 57 159.999 57c51.333 0 92.333 -12 123 -36
c-4 64 -25.5 110 -64.5 138s-102.833 50.333 -191.5 67zM259.001 98c38.667 0 66.5 13.833 83.5 41.5s31.167 79.167 42.5 154.5l3 28c-24.667 14.667 -51.667 22 -81 22c-36.667 0 -63.5 -10 -80.5 -30s-28.833 -52.333 -35.5 -97s-5 -75.667 5 -93s31 -26 63 -26z"/>
            <glyph glyph-name="uni0435" unicode="&#x435;" horiz-adv-x="560"
                   d="M472 117l9.99609 -94c-55.333 -23.333 -127.666 -35 -216.999 -35c-94 0 -158.667 22 -194 66s-47.666 111.667 -36.999 203c12 96 39.333 161.667 82 197s110.667 53 204 53c86.667 0 145.5 -14.333 176.5 -43s42.5 -71 34.5 -127
c-6.66699 -46.667 -25.667 -80 -57 -100s-79.666 -32.333 -144.999 -37l-146 -11c0.666992 -32.667 8.83398 -54.667 24.501 -66s40.5 -17 74.5 -17c64.667 0 128 3.66699 190 11zM191.996 276l115.001 11c26.667 2 46.167 7.33301 58.5 16s19.833 24.667 22.5 48
c2 22 -2.16699 35.667 -12.5 41s-32.166 7.66602 -65.499 6.99902c-38.667 0 -65.834 -8.16699 -81.501 -24.5s-27.834 -49.166 -36.501 -98.499z"/>
            <glyph glyph-name="uni0436" unicode="&#x436;" horiz-adv-x="794"
                   d="M579 258l-1.00195 -4.00195c12 -2 22.167 -4.33301 30.5 -7s16.166 -5 23.499 -7s14 -6.33301 20 -13s11.333 -12.167 16 -16.5s9.33398 -12.666 14.001 -24.999l11.5 -30c3 -7.66699 7 -21.667 12 -42l12.5 -50c3.33301 -13 8.33301 -34.167 15 -63.5h-140
c-21.333 95.333 -36.333 152 -45 170c-10.667 22 -27.667 34 -51 36h-11h-40c0.666992 -16 0.666992 -31.333 0 -46l-22 -160h-130l24 164c0.666992 10.667 4 24.667 10 42h-33c-30 0 -54.167 -11.667 -72.5 -35s-50.166 -80.333 -95.499 -171h-149
c51.333 103.333 83 163.666 95 180.999c22 34 48.667 55.667 80 65c14 4.66699 32.333 8.33398 55 11.001l1 4c-48.667 6.66699 -80 22.5 -94 47.5s-30.333 86.5 -49 184.5h140c16 -80 29.167 -131.167 39.5 -153.5s30.5 -33.5 60.5 -33.5h38
c-2 20.667 -1.66699 41.334 1 62.001l18 125h130l-19 -129c-3.33301 -22.667 -7.66602 -42 -12.999 -58h24c30.667 0 55.167 11.333 73.5 34s46.833 73.667 85.5 153h147c-46.667 -94.667 -78 -152.667 -94 -174c-23.333 -31.333 -53.333 -50.333 -90 -57
c-8.66699 -2 -18 -3.33301 -28 -4z"/>
            <glyph glyph-name="uni0437" unicode="&#x437;" horiz-adv-x="514"
                   d="M68 382l-4 102.995c51.333 13.333 112 20 182 20c86.667 0 147.167 -9.5 181.5 -28.5s47.833 -56.167 40.5 -111.5c-4.66699 -35.333 -15.834 -61.666 -33.501 -78.999s-46.834 -27.666 -87.501 -30.999l-1 -4c42 -2.66699 71.5 -15 88.5 -37s22.5 -54.333 16.5 -97
c-7.33301 -53.333 -28 -88.166 -62 -104.499s-91.333 -24.5 -172 -24.5c-87.333 0 -162 7 -224 21l16 101c72 -6.66699 137 -10 195 -10c39.333 0 65.5 3.33301 78.5 10s20.833 21.334 23.5 44.001c2.66699 19.333 -1.16602 32.333 -11.499 39s-31.5 10.334 -63.5 11.001
l-144 1l11 92h137c30.667 0 52.334 3.83301 65.001 11.5s20.667 21.5 24 41.5c2.66699 18 -1 29.5 -11 34.5s-34.333 7.5 -73 7.5c-50.667 0 -108 -3.33301 -172 -10z"/>
            <glyph glyph-name="uni0438" unicode="&#x438;" horiz-adv-x="592"
                   d="M557 493l-67.999 -493h-114v93c-73.333 -70.667 -144.333 -106 -213 -106c-47.333 0 -81.833 12.333 -103.5 37s-29.167 58.667 -22.5 102l51 367h148l-47 -327c-2.66699 -20 -1.16699 -34.167 4.5 -42.5s16.5 -12.5 32.5 -12.5c21.333 0 42.166 5.66699 62.499 17
s47.5 31.333 81.5 60l42 305h146z"/>
            <glyph glyph-name="uni0439" unicode="&#x439;" horiz-adv-x="592"
                   d="M411 712h97c-1.33301 -44.667 -18 -81.5 -50 -110.5s-74 -43.5 -126 -43.5c-56 0 -98.167 14.5 -126.5 43.5s-36.833 65.833 -25.5 110.5h99c-11.333 -54.667 8 -82 58 -82c46 0 70.667 27.333 74 82zM557 493l-67.999 -493h-114v93
c-73.333 -70.667 -144.333 -106 -213 -106c-47.333 0 -81.833 12.333 -103.5 37s-29.167 58.667 -22.5 102l51 367h148l-47 -327c-2.66699 -20 -1.16699 -34.167 4.5 -42.5s16.5 -12.5 32.5 -12.5c21.333 0 42.166 5.66699 62.499 17s47.5 31.333 81.5 60l42 305h146z"/>
            <glyph glyph-name="uni043A" unicode="&#x43a;" horiz-adv-x="560"
                   d="M345 257l-1.00098 -3.99902c22 -2.66699 39.5 -6.33398 52.5 -11.001s24.333 -11.334 34 -20.001s17.5 -21.5 23.5 -38.5s11.833 -37.167 17.5 -60.5s12.5 -54 20.5 -92c2.66699 -13.333 4.66699 -23.666 6 -30.999h-148c-18.667 93.333 -32 148.666 -40 165.999
c-10 22 -27 34.333 -51 37c-5.33301 0.666992 -11.666 1 -18.999 1h-49c2 -14 2 -29 0 -45l-23 -159h-147l70 493h146l-17 -129c-2.66699 -16.667 -7.33398 -35.667 -14.001 -57h32c38 0 66 11 84 33s44 73 78 153h156c-42.667 -93.333 -72 -150.666 -88 -171.999
c-21.333 -30 -50.666 -49.333 -87.999 -58c-10 -2 -21.667 -4 -35 -6z"/>
            <glyph glyph-name="uni043B" unicode="&#x43b;" horiz-adv-x="593"
                   d="M558 493l-69 -493.001h-147l55 390h-59c-17.333 0 -30.5 -4 -39.5 -12s-16.167 -22.333 -21.5 -43c-23.333 -89.333 -46 -163.666 -68 -222.999c-29.333 -91.333 -101.333 -130.333 -216 -117l-9 115c31.333 3.33301 52 8.33301 62 15c12 7.33301 22 20.333 30 39
c20.667 50 42 120 64 210c10 40.667 26.667 70.667 50 90s56 29 98 29h270z"/>
            <glyph glyph-name="uni043C" unicode="&#x43c;" horiz-adv-x="781"
                   d="M550 493h134c36 0 52.333 -18 49 -54l-46 -439h-134l39 385h-13l-117 -279c-10.667 -28.667 -30.334 -43 -59.001 -43h-81c-30.667 0 -47.667 16.333 -51 49l-43 273h-14l-67 -385h-134l77 440c2.66699 18.667 8.33398 32.167 17.001 40.5s22 12.5 40 12.5h129
c30.667 0 47.667 -16.333 51 -49l30 -208c3.33301 -31.333 5.33301 -58.333 6 -81h13c8.66699 33.333 16.334 59 23.001 77l93 218c9.33301 28.667 28.666 43 57.999 43z"/>
            <glyph glyph-name="uni043D" unicode="&#x43d;" horiz-adv-x="601"
                   d="M567 493l-70 -493h-145l30 209h-186l-29 -209h-146l70 493h145l-25 -181h185l26 181h145z"/>
            <glyph glyph-name="uni043E" unicode="&#x43e;" horiz-adv-x="588"
                   d="M317 507c91.333 0 155.001 -20.667 191.001 -62s47 -109.666 33 -204.999c-12.667 -92.667 -40.167 -158 -82.5 -196s-108.166 -57 -197.499 -57c-90.667 0 -154.334 20.5 -191.001 61.5s-48.667 108.833 -36 203.5c13.333 93.333 41.166 159.166 83.499 197.499
s108.833 57.5 199.5 57.5zM315.001 396c-40.667 0 -69.6699 -10.3311 -87.0029 -30.998s-30.666 -62.334 -39.999 -125.001c-8 -56.667 -7 -94.5 3 -113.5s34.333 -28.5 73 -28.5c40 0 68.667 10.5 86 31.5s30.333 61.833 39 122.5
c8.66699 57.333 7.83398 95.666 -2.49902 114.999s-34.166 29 -71.499 29z"/>
            <glyph glyph-name="uni043F" unicode="&#x43f;" horiz-adv-x="601"
                   d="M206 493l-0.000976562 -98c76.667 74.667 151.667 112 225 112c42 0 74.333 -12.167 97 -36.5s31 -58.833 25 -103.5l-52 -367h-148l46 323c2.66699 24 1.66699 40 -3 48s-15 11.667 -31 11c-37.333 -0.666992 -88.666 -26.667 -153.999 -78l-42 -304h-148l69 493h116z
"/>
            <glyph glyph-name="uni0440" unicode="&#x440;" horiz-adv-x="597"
                   d="M208 493l-2.00098 -95c28.667 30 61.334 55.333 98.001 76s72.667 31 108 31c58 0 98 -20.333 120 -61s26.667 -109.667 14 -207c-7.33301 -52.667 -17.833 -96.167 -31.5 -130.5s-31.334 -59.833 -53.001 -76.5s-43.667 -28 -66 -34s-50.166 -9 -83.499 -9
c-48.667 0 -97.667 4.33301 -147 13c0 -31.333 -2.33301 -62.333 -7 -93l-16 -97h-148l97 683h117zM183.999 90h76.001c50.667 0 83.5 8.5 98.5 25.5s27.167 58.167 36.5 123.5c8.66699 62.667 10.5 102.834 5.5 120.501s-19.167 26.5 -42.5 26.5
c-17.333 0 -39.333 -7.33301 -66 -22s-53.334 -34.334 -80.001 -59.001z"/>
            <glyph glyph-name="uni0441" unicode="&#x441;" horiz-adv-x="509"
                   d="M436 117l11.0039 -97c-51.333 -21.333 -115.666 -32 -192.999 -32c-88.667 0 -150.834 20.667 -186.501 62s-46.834 109 -33.501 203c13.333 92.667 40.166 158.167 80.499 196.5s104.166 57.5 191.499 57.5c78 0 141 -10.667 189 -32l-20 -90
c-77.333 1.33301 -127 2 -149 2c-46 0 -78.833 -9.5 -98.5 -28.5s-32.834 -56.5 -39.501 -112.5c-7.33301 -58 -4.83301 -95.5 7.5 -112.5s40.833 -25.5 85.5 -25.5c61.333 0 113 3 155 9z"/>
            <glyph glyph-name="uni0442" unicode="&#x442;" horiz-adv-x="881"
                   d="M205 493v-89.001c68 68.667 134 103 198 103c36 0 64.333 -8 85 -24s32.667 -38.667 36 -68c63.333 61.333 125.666 92 186.999 92c45.333 0 78.5 -12.5 99.5 -37.5s28.167 -59.167 21.5 -102.5l-51 -367h-146l45 327c2.66699 20.667 1 35 -5 43s-16 12 -30 12
c-17.333 0 -35.166 -5.16699 -53.499 -15.5s-43.833 -30.166 -76.5 -59.499l-43 -307h-142l46 327c3.33301 20 2.33301 34.167 -3 42.5s-16.333 12.5 -33 12.5c-17.333 0 -35.333 -5.16699 -54 -15.5s-43.667 -28.833 -75 -55.5l-43 -311h-147l70 493h114z"/>
            <glyph glyph-name="uni0443" unicode="&#x443;" horiz-adv-x="580"
                   d="M418 493l155.999 0.000976562c-34 -168.667 -84 -313.667 -150 -435c-53.333 -106.667 -114.333 -181.834 -183 -225.501s-149.334 -56.167 -242.001 -37.5l12 105c88.667 -16 164.334 17.333 227.001 100h-59c-16 0 -29.667 4.66699 -41 14s-18.333 21.333 -21 36
l-80 443h158l46 -377c2.66699 -10.667 8.66699 -16 18 -16h39l4 9c52.667 102 91.334 230 116.001 384z"/>
            <glyph glyph-name="uni0444" unicode="&#x444;" horiz-adv-x="745"
                   d="M496 700l-26 -196c92.667 -7.33301 157 -31.666 193 -72.999s47.667 -105 35 -191c-11.333 -84.667 -40 -146.334 -86 -185.001s-118 -60.667 -216 -66l-24 -179h-133l24 181c-93.333 6.66699 -157.833 30.5 -193.5 71.5s-47.5 104.167 -35.5 189.5
c12 86 41 148.333 87 187s118 60.667 216 66l27 195h132zM448 398l-43.999 -300.999c51.333 4.66699 88 18.167 110 40.5s36.667 59.166 44 110.499c7.33301 52.667 3.16602 89.667 -12.501 111s-48.167 34.333 -97.5 39zM285.001 96.001l42.999 301.999
c-50.667 -4.66699 -87.167 -18.5 -109.5 -41.5s-37.166 -60.5 -44.499 -112.5c-7.33301 -51.333 -3 -87.666 13 -108.999s48.667 -34.333 98 -39z"/>
            </font>
</defs>
</svg>
